<?xml version="1.0" encoding="UTF-8" standalone="no"?>
<!-- Generator: Adobe Illustrator 27.5.0, SVG Export Plug-In . SVG Version: 6.00 Build 0)  -->

<svg
   version="1.1"
   x="0px"
   y="0px"
   viewBox="0 0 617.18011 248.6058"
   xml:space="preserve"
   id="svg122"
   sodipodi:docname="teeter-header.svg"
   width="617.18011"
   height="248.6058"
   inkscape:version="1.1.2 (0a00cf5339, 2022-02-04)"
   xmlns:inkscape="http://www.inkscape.org/namespaces/inkscape"
   xmlns:sodipodi="http://sodipodi.sourceforge.net/DTD/sodipodi-0.dtd"
   xmlns="http://www.w3.org/2000/svg"
   xmlns:svg="http://www.w3.org/2000/svg"><defs
   id="defs126">
	<linearGradient
   id="SVGID_1_"
   gradientUnits="userSpaceOnUse"
   x1="367.52731"
   y1="261.49051"
   x2="367.52731"
   y2="21.219601">
		<stop
   offset="0"
   style="stop-color:#FFFFFF"
   id="stop6" />
		<stop
   offset="0.0573"
   style="stop-color:#EAF8FE"
   id="stop8" />
		<stop
   offset="0.2607"
   style="stop-color:#A4E2F9"
   id="stop10" />
		<stop
   offset="0.4529"
   style="stop-color:#69D0F6"
   id="stop12" />
		<stop
   offset="0.6282"
   style="stop-color:#3CC1F3"
   id="stop14" />
		<stop
   offset="0.7834"
   style="stop-color:#1BB7F1"
   id="stop16" />
		<stop
   offset="0.9126"
   style="stop-color:#07B0EF"
   id="stop18" />
		<stop
   offset="1"
   style="stop-color:#00AEEF"
   id="stop20" />
		<stop
   offset="1"
   style="stop-color:#000000"
   id="stop22" />
	</linearGradient>
	
	
	
	
	
	
	
	
	
	
	
	
	
	
	
	
	
	
	
	
	
	
	
	
	
	
	
	
	
	
	
	
	
	
	
	
	
	
	
</defs><sodipodi:namedview
   id="namedview124"
   pagecolor="#ffffff"
   bordercolor="#666666"
   borderopacity="1.0"
   inkscape:pageshadow="2"
   inkscape:pageopacity="0.0"
   inkscape:pagecheckerboard="0"
   showgrid="true"
   fit-margin-top="0"
   fit-margin-left="0"
   fit-margin-right="0"
   fit-margin-bottom="0"
   inkscape:zoom="11.313709"
   inkscape:cx="2.8284271"
   inkscape:cy="44.989669"
   inkscape:window-width="1904"
   inkscape:window-height="995"
   inkscape:window-x="1208"
   inkscape:window-y="645"
   inkscape:window-maximized="0"
   inkscape:current-layer="svg122"
   showguides="false"
   objecttolerance="10000"><inkscape:grid
     type="xygrid"
     id="grid1008" /></sodipodi:namedview>
<style
   type="text/css"
   id="style2">
	.st0{fill:url(#SVGID_1_);}
	.st1{fill:#009444;}
	.st2{fill:#BE1E2D;}
	.st3{fill:none;stroke:#009444;stroke-width:9;stroke-miterlimit:10;}
	.st4{fill:#1C75BC;}
	.st5{fill:#F9ED32;}
	.st6{fill:#009444;stroke:#009444;stroke-width:0.527;stroke-miterlimit:10;}
	.st7{fill:#009444;stroke:#009444;stroke-width:0.7069;stroke-miterlimit:10;}
	.st8{fill:#ECC19C;}
	.st9{fill:#8B5E3C;}
	.st10{fill:#FBB040;}
	.st11{fill:#6D6E71;}
	.st12{fill:#005E8A;}
	.st13{fill:#FFFFFF;}
	.st14{fill:#006838;}
</style>
<g
   id="Layer_3"
   transform="translate(-59.29,-21.22)">
</g>
<g
   id="red"
   transform="translate(-59.29,-21.22)">
</g>
<polygon
   class="st0"
   points="467.4,256.01 382.13,249.32 320.01,258.66 284.01,256.83 281.72,254.06 305.98,246.3 302.54,241.3 273.89,248.39 237.13,258.61 123.66,261.49 59.29,259.28 60.58,21.22 675.77,22.38 675.77,245.34 525.21,248.05 "
   id="polygon25"
   style="fill:url(#SVGID_1_)"
   transform="matrix(1.0024656,0,0,1.0048513,-59.436186,-22.488573)" /><polygon
   class="st1"
   points="288.92,253.74 280.51,253.39 285.99,257.45 287.98,261.52 "
   id="polygon27"
   transform="translate(-59.29,-21.22)" /><path
   class="st2"
   d="M 176.18,181.65 482.43,59.99 493.05,55.34 562.73,29.46 c 0,0.33 19.21,-7.07 23.89,8.85 3.32,11.28 -6.86,15.26 -11.28,16.59 L 191.89,211.96 Z"
   id="path29" /><polyline
   class="st3"
   points="676.46,247.71 525.21,248.05 467.4,256.01 382.13,249.32 320.01,258.66 287.9,258.28  "
   id="polyline31"
   transform="matrix(1.0021361,0,0,1,-59.904981,-21.22)" /><polygon
   class="st4"
   points="588.39,255.08 583.53,134.52 581.87,91.39 580.43,49.36 598.13,32.99 613.39,48.26 619.8,255.08 "
   id="polygon33"
   transform="translate(-59.29,-21.22)" /><path
   class="st5"
   d="m 194.76,174.69 c -7.09,-10.82 -11.28,-24.55 -19.39,-43.04 -1.51,-3.45 -1.41,-7.25 -1.85,-10.68 l -1.18,-11.29 c 5.55,-3.95 16.11,-6.33 30.61,-9.47 4.06,-0.88 14.23,1.03 16.36,6.46 2.19,5.58 -5.46,11.23 -3.63,21.31 1.97,10.87 9.91,6.38 22.21,18.17 3.15,3.02 5.48,5.76 6.93,7.57 z"
   id="path35" /><ellipse
   class="st4"
   cx="193.87001"
   cy="122.72"
   rx="5.4099998"
   ry="5.1100001"
   id="ellipse37" /><polygon
   class="st4"
   points="125.65,239.37 202.62,209.51 209.7,213.71 128.3,247.67 "
   id="polygon39"
   transform="translate(-59.29,-21.22)" /><polyline
   class="st3"
   points="237.13,258.61 119.7,261.32 59.98,259.99  "
   id="polyline41"
   transform="matrix(1.003895,0,0,1,-60.213622,-21.22)" /><polyline
   class="st6"
   points="589.28,249.18 582.76,230.3 584.85,243.35 575.99,233.79 582.52,244.75 572.03,241.72 589.28,249.18     "
   id="polyline43"
   transform="translate(-59.29,-21.22)" /><polyline
   class="st7"
   points="624.8,239.38 636.06,225.85 627.77,241.36 641.1,237.07 619.17,247.63  "
   id="polyline45"
   transform="translate(-59.29,-21.22)" /><polygon
   class="st8"
   points="187.8,149.12 202.96,130.54 204.28,124.57 203.95,119.59 207.27,113.29 209.81,116.61 209.25,122.37 210.92,123.24 213.68,112.85 215.9,114.06 215.56,116.61 218.77,120.59 220.43,123.13 222.42,126.89 219.66,129.55 214.46,138.39 209.81,140.61 202.96,154.76 191.01,169.03 182.38,172.02 162.81,165.49 163.28,155.47 170.77,141.16 179.06,144.64 "
   id="polygon47"
   transform="translate(-59.29,-21.22)" /><path
   class="st8"
   d="m 127.79,62.04 0.29,14.88 c 1.77,1.51 4.67,2.22 4.2,3.32 -0.33,0.77 -0.86,2.52 -1.77,3.76 l -1.8,4.81 -2.82,0.26 -1.57,6.43 -5.75,4.76 -7.96,0.11 -8.28,6.2 -14.28,-16.15 10.86,-5.55 -3.9,-7.02 5.32,-4.97 6.08,6.85 7.64,-7.85 -2.07,-8.12 7.61,-5.49 z"
   id="path49" /><path
   class="st9"
   d="m 123.54,66.52 c 0.4,0.17 6.18,1.05 6.19,0.88 0.12,-1.58 -1.72,-3.83 -3.85,-6.13 -2.05,-2.21 -5.96,-4.53 -15.72,-6.26 -13.93,-2.46 -13.05,1.66 -17.92,3.87 -0.83,0.38 -2.35,-4.92 -3.21,-4.65 -0.7,0.22 -1.11,5.13 -1.77,5.42 -0.75,0.33 -4.07,-2.08 -4.76,-1.66 -1.13,0.69 2.7,3.71 1.77,4.65 -2.21,2.21 -4.8,14.51 -3.04,19.54 2.19,6.25 6.93,9.33 7.64,11.72 l 6.6,-0.3 5.39,-1.76 c -0.55,0.11 -5.53,-0.22 -1.34,-10.07 1.95,-3.36 10.96,2.14 8.42,3.21 l 3.1,-6.36 c 0.33,-0.23 2.99,-2.12 3.2,-5.59 0.18,-2.94 -1.54,-4.93 -1.88,-5.31 l 5.53,1.22 -3.54,-5.86 c 4.46,2.08 5.54,1.89 9.19,3.44 z"
   id="path51" /><path
   class="st10"
   d="m 73.21,185.63 c -2.32,-8.85 -4.61,-33.42 -2.88,-48.44 3.15,-27.29 7.75,-28.47 12.61,-38.05 1.2,1.04 6.84,-4.98 13.61,-3.59 6.74,1.38 9.06,4.39 10.5,3.37 l 2.88,0.88 1.99,6.86 c 0,0 10.98,10.84 10.4,12.83 -1.55,3.71 -19.23,18.38 -19.69,18.36 l 13.71,10.4 -0.22,10.4 6.19,5.31 c -3.64,2.92 -6.19,9.95 -12.17,11.94 -20.13,9.07 -15.93,0 -20.57,4.2 -17.06,15.46 -14.36,4.65 -16.36,5.53 z"
   id="path53" /><path
   class="st11"
   d="m 186.36,241.93 c 14.05,-1.33 39.7,-4.65 40.15,-5.42 1.21,-2.11 -5.31,-3.76 -13.38,-8.85 l 16.37,-2.21 14.27,-5.09 c 0,0 -1.21,-2.78 -4.31,-3.32 -5.75,-1 -12.08,-2.96 -14.38,-6.53 -0.73,-1.12 -2.71,-0.31 -3.65,-1 -2.1,-2.21 -8.51,-5.53 -8.52,-5.53 l -9.62,2.88 -10.84,3.98 1.55,6.64 -13.05,7.52 -3.43,5.31 0.33,6.53 1.99,4.09 z"
   id="path55" /><path
   class="st12"
   d="m 74.32,185.52 7.63,1.33 c 3.57,-1.22 4.29,-5.09 7.85,-6.3 4.34,-1.48 11.81,-1.18 16.15,-2.65 4.27,-1.45 7.52,-1.99 11.5,-8.07 l 4.87,-6.3 3.32,-0.6 19.46,-7.8 c 5.42,-1.77 16.48,-8.79 26.54,3.54 5.75,7.04 12.5,9.93 12.61,11.39 l -12.17,4.98 13.94,23.67 9.73,17.7 -9.62,5.2 -9.84,8.07 c -2.32,-2.13 -6.83,-14.64 -10.18,-19.69 -5.59,-8.42 -4.46,-4.75 -10.84,-12.83 -4.03,-5.11 -6.93,-5.65 -10.84,-7.19 -2.24,-0.88 -4.02,-0.49 -5.42,-0.66 l -41.7,17.36 c -4.24,-1.53 -10.88,-4.18 -16.15,-7.63 -2.69,-1.76 -4.42,-6.19 -5.28,-9.18 z"
   id="path57" /><polygon
   class="st2"
   points="182.05,261.49 174.31,243.35 169.89,231.19 208.6,214.15 211.58,214.82 220.87,225.44 230.05,240.48 "
   id="polygon59"
   transform="translate(-59.29,-21.22)" /><polygon
   class="st4"
   points="231.6,197.06 250.18,188.27 253.94,195.57 235.58,202.87 "
   id="polygon61"
   transform="translate(-59.29,-21.22)" /><circle
   class="st13"
   cx="190.51001"
   cy="232.58"
   r="4.3099999"
   id="circle63" /><g
   id="g83"
   transform="translate(-59.29,-21.22)">
		<path
   class="st13"
   d="m 495.31,109.42 c -0.09,0.04 -0.22,0.05 -0.41,0.04 -0.18,-0.01 -0.32,0.02 -0.41,0.08 l -1.52,1.16 3.57,8.71 c 0.13,0.32 0.35,0.64 0.66,0.95 0.09,0.09 0.17,0.31 0.23,0.64 0.07,0.37 0.06,0.63 -0.05,0.77 -0.02,0.02 -0.07,0.05 -0.16,0.08 -0.37,0.15 -0.9,0.29 -1.61,0.41 -0.8,0.13 -1.29,0.15 -1.49,0.05 -0.24,-0.14 -0.34,-0.4 -0.31,-0.8 0.03,-0.35 0.01,-0.58 -0.04,-0.72 l -3.36,-8.2 -1.05,0.78 c -0.05,0.03 -0.12,0.12 -0.21,0.25 -0.09,0.14 -0.19,0.21 -0.29,0.22 -0.28,0.04 -0.76,-0.15 -1.45,-0.56 -0.68,-0.41 -1.04,-0.73 -1.07,-0.96 -0.01,-0.29 0.17,-0.59 0.54,-0.9 0.1,-0.08 0.24,-0.14 0.42,-0.19 0.19,-0.05 0.32,-0.11 0.41,-0.17 l 5.16,-3.84 c 0.05,-0.03 0.18,-0.17 0.4,-0.39 0.14,-0.15 0.29,-0.24 0.45,-0.28 0.33,-0.08 0.59,-0.05 0.78,0.11 0.13,0.1 0.32,0.32 0.55,0.64 0.29,0.39 0.5,0.74 0.63,1.06 0.1,0.24 0.15,0.44 0.14,0.59 -0.01,0.17 -0.18,0.32 -0.51,0.47 z"
   id="path65" />
		<path
   class="st13"
   d="m 508.87,116.16 c 0.08,0.34 0.04,0.6 -0.11,0.76 -0.06,0.06 -0.19,0.14 -0.39,0.22 -0.38,0.15 -0.85,0.28 -1.41,0.38 -0.57,0.1 -0.93,0.11 -1.08,0.05 -0.07,-0.04 -0.12,-0.09 -0.15,-0.17 -0.04,-0.09 -0.05,-0.27 -0.05,-0.56 0.03,-0.12 0.06,-0.24 0.1,-0.38 0.03,-0.14 0.02,-0.29 -0.05,-0.45 -1.76,-4.36 -2.69,-6.53 -2.79,-6.53 -0.19,0.01 -0.4,0.57 -0.65,1.68 -0.27,1.18 -0.28,2.04 -0.06,2.6 l 1.51,3.67 c 0.25,0.1 0.4,0.31 0.47,0.62 0.07,0.37 -0.01,0.67 -0.24,0.91 -0.04,0.04 -0.1,0.08 -0.19,0.11 -0.3,0.12 -0.76,0.23 -1.39,0.33 -0.63,0.1 -0.99,0.12 -1.07,0.08 -0.19,-0.13 -0.29,-0.33 -0.28,-0.6 0,-0.04 0.03,-0.12 0.09,-0.24 0.06,-0.12 0.07,-0.22 0.04,-0.3 l -4.8,-11.71 c -0.04,-0.09 -0.13,-0.19 -0.28,-0.29 -0.15,-0.1 -0.22,-0.22 -0.23,-0.33 -0.03,-0.26 0.08,-0.48 0.33,-0.66 0.16,-0.12 0.6,-0.23 1.32,-0.33 0.78,-0.11 1.24,-0.09 1.38,0.07 0.09,0.1 0.15,0.29 0.17,0.57 0.02,0.27 0.11,0.59 0.25,0.94 l 1.27,3.1 c 0.3,-1.04 0.73,-1.67 1.3,-1.91 0.38,-0.15 0.91,-0.22 1.62,-0.21 0.7,0.01 1.14,0.11 1.31,0.28 0.6,0.58 1.82,3.13 3.67,7.64 0.21,0.23 0.34,0.45 0.39,0.66 z"
   id="path67" />
		<path
   class="st13"
   d="m 515.92,110.31 c 0.17,0.12 0.15,0.7 -0.04,1.74 -0.22,1.11 -0.54,1.93 -0.96,2.46 -0.05,0.06 -0.15,0.12 -0.28,0.17 -0.43,0.18 -1.05,0.28 -1.85,0.3 -0.85,0.04 -1.45,-0.05 -1.81,-0.26 -0.98,-0.57 -1.77,-1.58 -2.37,-3.05 -0.57,-1.39 -0.79,-2.73 -0.66,-4.02 0.13,-1.41 0.66,-2.31 1.59,-2.72 0.34,-0.15 0.79,-0.23 1.35,-0.24 0.69,-0.01 1.31,0.1 1.86,0.34 0.14,0.06 0.36,0.32 0.65,0.78 0.33,0.49 0.59,0.98 0.8,1.49 0.31,0.75 0.4,1.32 0.27,1.71 -0.99,0.83 -2.06,1.51 -3.22,2.04 0.2,0.55 0.5,1.09 0.9,1.62 0.4,0.53 0.68,0.77 0.85,0.71 0.23,-0.08 0.42,-0.37 0.57,-0.87 0.14,-0.43 0.21,-0.77 0.18,-1.02 -0.06,-0.36 -0.09,-0.75 -0.11,-1.16 0.17,-0.09 0.55,-0.15 1.15,-0.16 0.61,-0.03 0.98,0.02 1.13,0.14 z m -5.02,-3.86 c -0.2,0.06 -0.34,0.46 -0.42,1.22 -0.08,0.76 -0.04,1.43 0.14,2.01 0.49,-0.22 0.84,-0.51 1.04,-0.85 0.12,-0.21 -0.02,-0.79 -0.41,-1.76 -0.17,-0.42 -0.29,-0.62 -0.35,-0.62 z"
   id="path69" />
		<path
   class="st13"
   d="m 525.84,96.9 c -0.09,0.04 -0.22,0.05 -0.41,0.04 -0.18,-0.01 -0.32,0.02 -0.41,0.08 l -1.51,1.16 3.57,8.71 c 0.13,0.32 0.35,0.64 0.66,0.95 0.09,0.09 0.16,0.31 0.22,0.64 0.07,0.37 0.06,0.63 -0.05,0.77 -0.02,0.02 -0.07,0.05 -0.16,0.08 -0.36,0.15 -0.9,0.29 -1.61,0.41 -0.8,0.13 -1.29,0.15 -1.49,0.05 -0.24,-0.13 -0.34,-0.4 -0.31,-0.8 0.03,-0.34 0.01,-0.58 -0.04,-0.72 l -3.36,-8.2 -1.05,0.78 c -0.05,0.03 -0.12,0.12 -0.21,0.25 -0.09,0.14 -0.19,0.21 -0.29,0.22 -0.28,0.04 -0.76,-0.15 -1.45,-0.56 -0.68,-0.41 -1.04,-0.73 -1.07,-0.96 -0.02,-0.29 0.16,-0.59 0.54,-0.9 0.1,-0.08 0.24,-0.14 0.42,-0.19 0.19,-0.05 0.32,-0.11 0.41,-0.17 l 5.16,-3.83 c 0.05,-0.03 0.18,-0.17 0.4,-0.4 0.14,-0.15 0.29,-0.24 0.45,-0.28 0.33,-0.08 0.59,-0.05 0.78,0.11 0.13,0.1 0.32,0.32 0.55,0.64 0.29,0.39 0.5,0.74 0.63,1.06 0.1,0.24 0.14,0.44 0.14,0.59 -0.01,0.18 -0.18,0.32 -0.51,0.47 z"
   id="path71" />
		<path
   class="st13"
   d="m 534.9,102.53 c 0.17,0.12 0.15,0.7 -0.04,1.74 -0.22,1.11 -0.54,1.93 -0.96,2.46 -0.05,0.06 -0.14,0.12 -0.28,0.17 -0.43,0.18 -1.05,0.28 -1.85,0.3 -0.85,0.04 -1.45,-0.05 -1.81,-0.26 -0.98,-0.57 -1.77,-1.58 -2.37,-3.05 -0.57,-1.39 -0.79,-2.73 -0.66,-4.02 0.13,-1.41 0.66,-2.31 1.59,-2.72 0.34,-0.15 0.79,-0.23 1.35,-0.24 0.69,-0.01 1.31,0.1 1.86,0.34 0.14,0.06 0.36,0.32 0.65,0.78 0.33,0.49 0.6,0.98 0.8,1.49 0.31,0.75 0.4,1.32 0.27,1.71 -0.99,0.83 -2.06,1.51 -3.22,2.04 0.2,0.55 0.5,1.09 0.9,1.62 0.4,0.53 0.68,0.77 0.86,0.71 0.22,-0.08 0.41,-0.37 0.57,-0.87 0.14,-0.43 0.21,-0.77 0.18,-1.02 -0.06,-0.36 -0.09,-0.75 -0.11,-1.16 0.17,-0.09 0.55,-0.15 1.15,-0.16 0.59,-0.03 0.97,0.02 1.12,0.14 z m -5.02,-3.86 c -0.2,0.06 -0.34,0.46 -0.42,1.22 -0.08,0.76 -0.04,1.43 0.14,2.01 0.49,-0.22 0.83,-0.51 1.04,-0.85 0.12,-0.2 -0.02,-0.79 -0.41,-1.76 -0.18,-0.41 -0.29,-0.62 -0.35,-0.62 z"
   id="path73" />
		<path
   class="st13"
   d="m 542.86,99.26 c 0.17,0.12 0.15,0.7 -0.04,1.74 -0.22,1.11 -0.54,1.93 -0.96,2.46 -0.05,0.06 -0.15,0.12 -0.28,0.17 -0.43,0.18 -1.05,0.27 -1.85,0.29 -0.85,0.04 -1.45,-0.05 -1.81,-0.26 -0.98,-0.57 -1.77,-1.58 -2.37,-3.05 -0.57,-1.39 -0.79,-2.73 -0.66,-4.02 0.13,-1.41 0.66,-2.32 1.59,-2.72 0.34,-0.15 0.79,-0.23 1.35,-0.24 0.69,-0.01 1.31,0.1 1.86,0.34 0.14,0.06 0.36,0.32 0.65,0.78 0.33,0.48 0.6,0.98 0.8,1.49 0.31,0.75 0.4,1.32 0.27,1.71 -0.99,0.83 -2.06,1.51 -3.22,2.04 0.2,0.55 0.5,1.09 0.9,1.62 0.4,0.53 0.68,0.77 0.86,0.71 0.22,-0.08 0.41,-0.37 0.57,-0.87 0.14,-0.43 0.21,-0.77 0.18,-1.02 -0.06,-0.36 -0.09,-0.75 -0.11,-1.16 0.17,-0.09 0.55,-0.15 1.15,-0.16 0.59,-0.02 0.97,0.04 1.12,0.15 z m -5.02,-3.85 c -0.2,0.05 -0.34,0.46 -0.42,1.22 -0.08,0.76 -0.04,1.43 0.14,2.01 0.49,-0.23 0.84,-0.51 1.04,-0.85 0.12,-0.21 -0.02,-0.79 -0.41,-1.76 -0.17,-0.42 -0.29,-0.62 -0.35,-0.62 z"
   id="path75" />
		<path
   class="st13"
   d="m 547.43,91.3 c 0.07,0.2 0.08,0.41 0.02,0.61 -0.06,0.21 -0.16,0.34 -0.3,0.39 -0.04,0.02 -0.08,0.03 -0.12,0.03 -0.18,0.01 -0.54,0.12 -1.08,0.34 l 2.68,6.54 c 0,-0.01 0.07,0.06 0.22,0.22 0.15,0.16 0.25,0.31 0.31,0.45 0.13,0.32 -0.02,0.58 -0.45,0.79 -0.23,0.11 -0.69,0.18 -1.4,0.22 -0.76,0.06 -1.21,0 -1.33,-0.17 -0.05,-0.07 -0.08,-0.25 -0.08,-0.54 0,-0.29 -0.03,-0.5 -0.09,-0.63 l -2.4,-5.86 -0.56,0.23 c -0.21,0.09 -0.54,0.01 -1.01,-0.24 -0.46,-0.24 -0.74,-0.47 -0.83,-0.7 -0.07,-0.17 -0.07,-0.34 0.01,-0.53 0.07,-0.18 0.19,-0.31 0.34,-0.37 l 1.19,-0.49 -0.61,-1.49 c -0.26,-0.15 -0.44,-0.36 -0.54,-0.61 -0.1,-0.23 -0.05,-0.42 0.12,-0.55 0.09,-0.06 0.22,-0.13 0.4,-0.2 0.41,-0.17 0.91,-0.3 1.51,-0.4 0.6,-0.1 1.01,-0.11 1.23,-0.05 0.1,0.04 0.17,0.1 0.21,0.18 0.04,0.11 0.02,0.31 -0.06,0.61 -0.09,0.29 -0.12,0.49 -0.09,0.58 l 0.37,0.89 0.53,-0.22 c 0.11,-0.05 0.42,0.06 0.94,0.31 0.51,0.29 0.8,0.49 0.87,0.66 z"
   id="path77" />
		<path
   class="st13"
   d="m 556.93,93.5 c 0.17,0.12 0.15,0.7 -0.04,1.74 -0.22,1.11 -0.54,1.93 -0.96,2.46 -0.05,0.06 -0.15,0.12 -0.28,0.17 -0.43,0.18 -1.05,0.28 -1.85,0.3 -0.85,0.04 -1.45,-0.05 -1.81,-0.26 -0.98,-0.57 -1.77,-1.58 -2.37,-3.05 -0.57,-1.39 -0.79,-2.73 -0.66,-4.02 0.13,-1.41 0.66,-2.31 1.59,-2.72 0.34,-0.15 0.79,-0.23 1.35,-0.24 0.69,-0.01 1.31,0.1 1.86,0.34 0.14,0.06 0.36,0.32 0.65,0.78 0.33,0.49 0.6,0.98 0.8,1.49 0.31,0.75 0.4,1.32 0.27,1.71 -0.99,0.83 -2.06,1.51 -3.22,2.04 0.2,0.55 0.5,1.09 0.9,1.62 0.4,0.53 0.68,0.77 0.86,0.71 0.22,-0.08 0.41,-0.37 0.57,-0.87 0.14,-0.43 0.21,-0.77 0.18,-1.02 -0.06,-0.36 -0.09,-0.75 -0.11,-1.16 0.17,-0.09 0.55,-0.15 1.15,-0.16 0.6,-0.03 0.97,0.02 1.12,0.14 z m -5.02,-3.86 c -0.2,0.06 -0.34,0.46 -0.42,1.22 -0.08,0.76 -0.04,1.43 0.14,2.01 0.49,-0.23 0.84,-0.51 1.04,-0.85 0.12,-0.21 -0.02,-0.79 -0.41,-1.76 -0.17,-0.42 -0.29,-0.62 -0.35,-0.62 z"
   id="path79" />
		<path
   class="st13"
   d="m 562.01,84.55 c 0.12,0.16 0.11,0.33 -0.01,0.5 -0.11,0.12 -0.2,0.25 -0.29,0.37 -0.26,1.35 -0.62,3.16 -1.07,5.45 0.72,1.75 1.1,2.66 1.13,2.71 0.03,0.05 0.13,0.17 0.3,0.37 0.16,0.2 0.27,0.36 0.33,0.49 0.09,0.21 0.05,0.39 -0.11,0.55 -0.1,0.11 -0.25,0.2 -0.46,0.29 -0.42,0.17 -0.92,0.27 -1.51,0.29 -0.73,0.04 -1.17,-0.11 -1.31,-0.45 -0.04,-0.1 -0.06,-0.28 -0.06,-0.54 0,-0.26 -0.03,-0.46 -0.09,-0.6 l -2.69,-6.56 c -0.38,-0.57 -0.57,-0.86 -0.58,-0.89 -0.14,-0.34 -0.07,-0.62 0.2,-0.83 0.12,-0.09 0.27,-0.17 0.46,-0.25 0.39,-0.16 0.82,-0.26 1.3,-0.31 0.48,-0.05 0.78,-0.01 0.92,0.1 0.04,0.04 0.07,0.09 0.1,0.15 0.02,0.06 0.05,0.35 0.09,0.89 l 0.33,0.79 c 0.07,-0.58 0.13,-1.16 0.2,-1.74 0.1,-0.74 0.22,-1.16 0.37,-1.26 0.22,-0.14 0.65,-0.15 1.29,-0.02 0.64,0.13 1.01,0.3 1.16,0.5 z"
   id="path81" />
	</g><path
   d="m 310.27,162 c -0.37,0.37 -0.68,0.89 -1.13,1.08 -5.99,2.61 -11.98,5.23 -18.02,7.72 -6.11,2.53 -12.3,4.89 -18.42,7.39 -8.1,3.3 -16.17,6.67 -24.26,10 -4.5,1.86 -9.03,3.66 -13.5,5.58 -5.15,2.21 -10.25,4.51 -15.37,6.79 -2.01,0.89 -4,1.81 -6.48,2.94 1.34,0.58 2.37,0.88 3.24,1.44 1.45,0.92 2.79,2 4.18,3 0.49,0.35 1.01,0.94 1.51,0.93 3.09,-0.06 4.96,1.66 6.39,4.11 0.14,0.23 0.33,0.43 0.58,0.73 2.09,-0.47 3.93,-0.13 5.36,1.74 0.33,0.43 1.32,0.53 1.98,0.49 3.17,-0.2 5.65,0.94 7.84,3.27 1.21,1.28 2.4,2.48 3.05,4.13 0.85,2.15 0.15,3.24 -2.07,3.75 -3.04,0.7 -6.03,1.64 -9.06,2.37 -3.76,0.92 -7.55,1.72 -11.32,2.6 -0.71,0.17 -1.39,0.46 -2.35,0.78 1.82,1.22 3.91,1.78 4.91,3.78 0.94,1.89 2.03,3.69 1.97,6.05 -0.5,0.18 -0.98,0.44 -1.49,0.53 -9.65,1.63 -19.32,3.21 -28.97,4.86 -4.99,0.85 -9.9,0.69 -14.87,-0.36 -4.24,-0.9 -5.23,-2.95 -5.57,-6.37 -0.06,-0.62 -0.04,-1.34 -0.35,-1.82 -1.71,-2.63 -1.9,-5.53 -1.76,-8.52 0.03,-0.55 -0.02,-1.11 -0.03,-1.66 0.86,-0.68 1.78,-1.29 2.57,-2.04 2.86,-2.72 5.49,-5.68 9.11,-7.53 2.16,-1.1 4.1,-2.63 6.13,-3.96 -0.24,-0.69 -0.35,-1.15 -0.56,-1.55 -3.87,-7.34 -7.59,-14.78 -11.7,-21.98 -2.87,-5.03 -6.3,-9.73 -9.47,-14.59 -1.34,-2.06 -2.56,-4.22 -3.99,-6.22 -2.4,-3.36 -4.94,-6.62 -7.39,-9.94 -0.86,-1.17 -1.53,-2.51 -2.49,-3.59 -1.83,-2.06 -4.02,-3.28 -6.99,-3.17 -5.24,0.2 -9.78,2.59 -14.49,4.36 -4.37,1.64 -8.55,3.8 -12.79,5.79 -0.97,0.46 -1.96,1.04 -2.69,1.8 -1.95,2.04 -3.76,4.22 -5.64,6.34 -1.38,1.55 -3.14,2.51 -5.03,3.29 -1.36,0.56 -2.97,0.84 -4.04,1.74 -3.11,2.63 -6.62,2.41 -10.25,1.98 -0.81,-0.09 -1.65,-0.09 -2.46,0 -3.86,0.41 -6.92,2.13 -9.27,5.3 -1.82,2.46 -4.42,3.2 -7.42,2.42 -0.67,-0.17 -1.37,-0.27 -2.4,-0.46 0.88,3.73 2.46,6.67 5.06,8.95 4.41,3.88 9.5,6.66 15.1,8.39 1.74,0.54 3.61,0.69 5.45,-0.07 7.94,-3.25 15.93,-6.4 23.86,-9.67 5.52,-2.28 11.01,-4.65 16.46,-7.1 1.79,-0.81 3.38,-0.34 4.73,0.54 6.28,4.1 11.79,9.09 16.19,15.2 5.39,7.49 9.75,15.61 14.11,23.71 0.33,0.61 0.28,1.42 0.4,2.14 -1.43,-0.01 -1.66,-1.16 -2.14,-2.16 -1.14,-2.39 -2.37,-4.73 -3.61,-7.19 -3.32,1.43 -6.4,2.81 -9.52,4.07 -0.99,0.4 -2.1,0.48 -3.15,0.71 l 0.05,0.06 c 2.59,-1.29 5.19,-2.55 7.76,-3.88 1.29,-0.67 2.51,-1.48 4.01,-2.37 -1.08,-2.01 -1.94,-3.92 -3.07,-5.65 -2.67,-4.06 -5.29,-8.17 -8.27,-12 -1.9,-2.44 -4.32,-4.5 -6.65,-6.58 -1.41,-1.26 -2.49,-1.08 -4.07,-0.26 -3,1.56 -6.02,3.12 -9.13,4.45 -5.67,2.44 -11.4,4.73 -17.13,7.05 -2.64,1.07 -5.31,2.08 -7.99,3.07 -1.71,0.63 -2.03,0.88 -1.55,2.58 0.78,2.75 1.68,5.47 2.73,8.12 1.99,5.06 4.13,10.06 6.2,15.08 0.63,1.52 1.31,3.01 1.84,4.57 0.11,0.33 -0.37,0.86 -0.86,1.88 -4.07,-10.47 -7.93,-20.38 -11.9,-30.59 -14.04,4.93 -27.57,11.55 -41.89,16.15 -0.88,-2.02 -1.71,-3.94 -2.55,-5.85 -0.51,-1.16 -0.13,-1.97 0.96,-2.47 1.5,-0.69 3,-1.41 4.54,-2.01 7.8,-3.06 15.61,-6.08 23.41,-9.14 0.32,-0.12 0.56,-0.44 0.92,-0.72 -5.78,-2.02 -11.12,-4.52 -15.61,-8.61 -2.14,-1.95 -3.8,-4.09 -4.85,-6.87 -0.58,-1.53 -0.89,-3.42 -2.52,-4.46 -0.17,-0.11 -0.31,-0.54 -0.23,-0.7 0.79,-1.54 -0.3,-2.85 -0.5,-4.26 -1.65,-11.98 -3.34,-23.96 -3.01,-36.1 0.11,-4.25 0.08,-8.56 0.85,-12.71 1.01,-5.49 2.7,-10.85 4.15,-16.25 0.79,-2.94 1.55,-5.9 3.25,-8.49 2.36,-3.6 4.15,-7.65 7.89,-10.18 0.94,-0.63 1.87,-1.4 3.45,-1.03 -0.37,0.53 -0.5,0.94 -0.76,1.07 -4.27,2 -6.44,5.84 -8.64,9.69 -3.31,5.78 -5,12.08 -6.27,18.53 -0.37,1.9 -0.85,3.78 -1.39,5.63 -1.28,4.41 -1.14,8.95 -1.3,13.47 -0.32,8.99 0.76,17.9 1.84,26.79 0.44,3.65 1.31,7.26 1.97,10.88 0.15,0.81 0.28,1.62 0.42,2.47 3.32,2.39 6.97,1.95 9.74,-1.02 4.05,-4.36 8.8,-6.84 15.03,-5.5 1.29,0.28 2.85,0.13 4.08,-0.35 3.23,-1.25 6.64,-2.39 9.44,-4.34 2.81,-1.96 5.03,-4.79 7.4,-7.35 0.58,-0.63 0.73,-1.66 1.15,-2.69 -4.68,-1.35 -5.51,-5.03 -5.67,-9.06 -0.07,-1.66 -0.04,-3.33 -0.03,-5 0.01,-0.86 0.01,-1.68 -0.93,-2.12 -4.47,-2.12 -8.05,-5.42 -11.78,-9.02 -1.74,1.55 -3.42,3.05 -5.22,4.67 -2.58,-3.65 -5.27,-6.92 -6.89,-10.87 -0.62,-1.52 -1.25,-3.1 -1.5,-4.71 -0.63,-4.1 -1.7,-8.12 -1.59,-12.34 0.13,-5.42 2.55,-9.55 6.7,-12.71 1.9,-1.44 4.27,-1.62 6.65,-1.3 3.56,0.48 6.69,1.99 9.68,3.88 0.27,0.17 0.56,0.32 1.28,0.16 -0.78,-1.51 -1.49,-3.05 -2.36,-4.5 -0.3,-0.5 -0.96,-0.89 -1.54,-1.09 -3.73,-1.31 -7.45,-2.65 -11.23,-3.75 -1.27,-0.37 -2.74,-0.11 -4.12,-0.05 -1.06,0.05 -2.11,0.25 -3.18,0.14 3.11,-0.99 6.01,-2.09 9.45,-0.22 2.76,1.5 6.13,1.93 9.27,2.66 2.32,0.54 4.69,1.03 7.05,1.12 4.94,0.19 9.57,-3.3 10.3,-9.22 0.08,-0.63 0.17,-1.26 0.26,-1.87 2.44,0.01 2.78,-0.32 3.53,-2.51 0.53,-1.55 1.24,-3.05 1.94,-4.54 0.74,-1.57 0.6,-2 -1.05,-2.67 -2.5,-1 -2.82,-1.67 -2.46,-4.41 0.29,-2.18 0.43,-4.37 0.64,-6.61 -4.25,-1.34 -8.22,-2.59 -12.18,-3.83 -0.11,0.14 -0.22,0.28 -0.33,0.41 1.1,1.38 2.2,2.75 3.4,4.26 -2.15,1.15 -3.88,-0.8 -6.2,-0.72 1.77,2 2.06,4.07 1.77,6.2 -0.22,1.6 -0.8,3.04 -2.76,3.21 l 0.06,0.05 c 2.07,-3.45 1.97,-6.74 -0.68,-9.86 -0.03,-0.04 0.04,-0.17 0.16,-0.61 1.75,0.34 3.54,0.68 5.33,1.03 0.11,-0.14 0.22,-0.27 0.33,-0.41 -1.37,-1.71 -2.75,-3.42 -4.51,-5.61 1.17,0.11 1.82,0 2.27,0.25 3.15,1.79 6.54,2.91 10.03,3.74 1.31,0.31 2.69,0.35 4.28,0.55 -0.98,-3.33 -3.33,-5 -5.69,-6.55 -5.56,-3.65 -11.8,-5.23 -18.38,-5.26 -3.12,-0.01 -6.28,0.52 -9.09,2.12 -1.06,0.6 -2,1.41 -3.29,1.88 0.26,-0.38 0.46,-0.8 0.78,-1.12 1.88,-1.93 4.25,-2.9 6.84,-3.39 6.83,-1.27 13.4,-0.09 19.69,2.55 3.03,1.27 5.93,3.06 8.1,5.62 1.21,1.43 1.94,3.26 2.99,5.09 -0.86,0.36 -1.33,0.56 -2,0.85 0,2.86 0,5.81 0,8.9 1.79,0.59 3.73,1.12 4.16,3.7 -1.74,1.81 -2.99,4.06 -3.39,6.82 -0.26,1.83 -0.82,2.02 -3.3,2.22 -0.25,3.74 -1.76,6.64 -4.97,8.99 -3.15,2.31 -6.51,1.96 -10.27,1.84 0.61,1.43 1.43,2.51 1.47,3.62 0.1,3.16 2.48,4.68 4.24,6.69 1.51,1.73 2.94,3.54 4.27,5.42 0.68,0.96 1.18,1.94 2.86,1.29 -0.02,0.21 -0.03,0.41 -0.05,0.62 -0.99,1.1 -1.98,2.19 -3,3.31 2.2,2.03 4.27,3.94 6.45,5.94 2.45,-1.56 3.97,-3.99 5.78,-6.12 1.3,-1.54 2.26,-3.36 3.46,-4.99 1.68,-2.28 3.4,-4.54 5.18,-6.74 2.46,-3.04 2.64,-6.35 1.38,-9.88 -0.12,-0.34 -0.33,-0.64 -0.51,-0.99 0.34,-0.5 0.55,-1.11 0.98,-1.38 1.64,-1.05 2.24,-2.65 2.45,-4.43 0.11,-0.94 0.07,-1.95 1.18,-2.26 1.19,-0.33 1.9,0.39 2.38,1.41 0.19,0.41 0.47,0.77 0.81,1.32 1.65,-1.9 1.51,-4.21 2.01,-6.28 0.52,-2.12 0.82,-4.3 1.25,-6.62 1.07,0.37 2.01,0.69 3.29,1.13 -0.84,3.04 -1.66,6.01 -2.46,8.93 2.96,1.55 2.96,1.55 2.27,4.34 0.68,0.95 1.26,1.83 1.92,2.64 0.3,0.37 0.7,0.74 1.13,0.9 1.3,0.49 2.38,1.01 2.09,2.75 -0.06,0.38 0.41,0.89 0.72,1.28 1.57,2.03 1.31,4.3 -0.91,5.64 -1.36,0.82 -1.98,1.84 -2.51,3.33 -1.18,3.37 -3.13,6.21 -6.74,7.58 -1.09,0.41 -2.02,1.2 -2.47,2.46 -1.67,4.64 -4.42,8.71 -7.1,12.77 -2.38,3.6 -5.21,6.92 -7.85,10.35 -2.09,2.72 -4.83,4.35 -8.11,5.38 -2.68,0.83 -5.17,1.12 -7.75,-0.14 -0.72,-0.35 -1.57,-0.45 -2.4,-0.67 -0.98,1.29 -1.08,2.72 -0.83,4.03 0.38,1.98 1.08,3.9 1.65,5.85 0.46,1.59 1.49,2.43 3.15,2.72 0.9,0.16 1.73,0.72 2.88,1.23 4.88,-3.41 10.98,-5.2 16.85,-7.52 5.22,-2.07 10.45,-4.08 16.01,-4.96 2.82,-0.45 5.58,-0.09 8.21,1.52 3.82,2.34 6.87,5.54 10.18,8.45 3.18,2.8 6.33,5.63 9.53,8.48 1.78,-0.77 3.43,-1.48 5.26,-2.27 -1.37,-3.03 -2.64,-5.85 -3.91,-8.68 -2.08,-4.62 -4.32,-9.19 -6.18,-13.89 -1.66,-4.19 -2.89,-8.54 -4.31,-12.82 -1.07,-3.22 -2.1,-6.47 -3.25,-9.66 -1.06,-2.93 -1.19,-5.96 -1.38,-9 -0.26,-4.08 -0.29,-4.02 3.53,-5.38 3.81,-1.35 7.54,-2.93 11.37,-4.21 1.98,-0.66 4.1,-0.89 6.16,-1.27 3.71,-0.67 7.41,-1.5 11.15,-1.91 4.5,-0.5 9.01,-0.75 13.19,1.76 4.55,2.74 5.32,6.57 4.25,10.64 -0.44,1.67 -1.32,3.23 -2.11,4.79 -1.69,3.33 -3.07,6.68 -2.6,10.58 0.2,1.68 0.75,3.12 1.98,4.13 1.78,1.44 3.66,2.79 5.64,3.92 1.98,1.14 4.16,1.94 6.22,2.94 4.66,2.26 8.52,5.46 11.53,9.69 1.17,1.65 2.41,3.25 3.75,5.06 0.59,-0.18 1.29,-0.33 1.94,-0.6 6.13,-2.51 12.23,-5.09 18.38,-7.55 4.63,-1.85 9.33,-3.51 13.96,-5.36 5.56,-2.22 11.07,-4.55 16.61,-6.81 1.46,-0.59 2.95,-1.09 4.41,-1.67 8.89,-3.58 17.76,-7.2 26.67,-10.74 6.75,-2.69 13.56,-5.23 20.3,-7.93 8.72,-3.49 17.4,-7.08 26.1,-10.61 9.04,-3.67 18.09,-7.34 27.15,-10.97 7.51,-3.01 15.05,-5.92 22.55,-8.94 6.47,-2.61 12.89,-5.35 19.36,-7.94 6.41,-2.56 12.87,-5 19.3,-7.51 5.83,-2.27 11.66,-4.57 17.49,-6.86 7.02,-2.76 14.06,-5.49 21.07,-8.28 3.15,-1.25 6.22,-2.72 9.38,-3.93 3.58,-1.37 6.75,-3.63 10.51,-4.59 1.01,-0.26 1.46,-0.97 1.4,-2.08 -0.17,-2.95 -0.25,-5.91 -0.38,-8.86 -0.02,-0.37 -0.24,-0.77 -0.14,-1.08 0.41,-1.37 0.23,-2.48 -1.01,-2.86 6.22,-6.09 12.3,-12.05 18.64,-18.25 0.88,0.88 1.95,1.85 2.9,2.92 4.37,4.97 8.73,9.95 13.02,14.99 0.73,0.85 1.11,2 1.64,2.99 2.32,-0.86 4.81,-1.78 7.3,-2.69 5.53,-2.01 11.04,-1.53 16.61,-0.07 2.19,0.57 3.58,1.94 4.66,3.64 1.79,2.83 2.97,5.95 3.08,9.35 0.17,5.32 -2.41,9.62 -7.47,11.79 -3.63,1.56 -7.14,3.39 -10.75,4.99 -3.87,1.72 -7.79,3.31 -11.68,4.97 -0.25,0.1 -0.45,0.3 -1.07,0.7 0,5.39 -0.15,11.02 0.03,16.64 0.3,9.34 0.91,18.66 1.21,28 0.3,9.44 0.32,18.88 0.6,28.32 0.18,6.01 0.74,12.01 0.9,18.02 0.31,11 0.31,22.02 0.7,33.02 0.3,8.68 1.1,17.33 1.45,26.01 0.23,5.73 0.22,11.49 0.01,17.22 -0.18,4.81 -0.57,3.87 -4.03,3.86 -8.7,-0.03 -17.41,-0.21 -26.11,-0.32 -1.1,-0.01 -2.21,0 -3.51,0 -0.11,-0.51 -0.34,-1.11 -0.36,-1.71 -0.23,-5.82 -0.47,-11.64 -0.61,-17.46 -0.14,-5.91 -0.12,-11.82 -0.28,-17.73 -0.34,-12.77 -0.64,-25.54 -1.18,-38.3 -0.29,-6.92 -0.78,-13.85 -1.68,-20.72 -1.01,-7.76 -0.46,-15.5 -0.51,-23.26 -0.06,-8.6 -0.44,-17.19 -0.8,-25.79 -0.16,-3.95 -0.58,-7.88 -0.92,-12.23 -1.53,0.66 -2.82,1.23 -4.12,1.77 -6.64,2.75 -13.27,5.55 -19.95,8.22 -4.52,1.81 -9.13,3.38 -13.67,5.13 -4.45,1.72 -8.85,3.55 -13.28,5.32 -4.94,1.98 -9.88,3.98 -14.84,5.94 -5.81,2.3 -11.66,4.53 -17.46,6.88 -6.99,2.83 -13.94,5.74 -20.9,8.62 -7.21,2.98 -14.4,6.01 -21.64,8.93 -1.34,0.54 -2.85,0.64 -4.27,0.95 0,0 0.05,0.07 0.05,0.07 1.47,-0.74 2.89,-1.59 4.41,-2.21 8.77,-3.59 17.57,-7.09 26.35,-10.68 10.15,-4.15 20.28,-8.34 30.42,-12.52 4.34,-1.79 8.66,-3.64 13.04,-5.36 7.89,-3.11 15.83,-6.09 23.72,-9.21 3.5,-1.38 6.8,-3.38 10.39,-4.38 6.45,-1.79 12.24,-5.08 18.48,-7.33 2.12,-0.76 3.78,-2.25 3.27,-5.02 -0.2,-1.08 -0.06,-2.22 -0.08,-3.33 -0.08,-4.62 -0.2,-9.24 -0.25,-13.87 -0.04,-3.58 -0.01,-7.17 -0.01,-11.22 -1.36,0.64 -2.23,1.09 -3.13,1.46 -6.71,2.79 -13.4,5.6 -20.13,8.35 -5.63,2.3 -11.27,4.55 -16.93,6.76 -6.7,2.61 -13.45,5.08 -20.14,7.73 -6.84,2.71 -13.62,5.59 -20.44,8.36 -5.54,2.25 -11.11,4.44 -16.67,6.65 -5.38,2.15 -10.76,4.31 -16.15,6.45 -7.63,3.02 -15.28,5.98 -22.89,9.05 -6.39,2.58 -12.72,5.33 -19.11,7.9 -9.4,3.79 -18.83,7.51 -28.25,11.25 -11.38,4.52 -22.77,9.02 -34.15,13.54 -8.47,3.37 -16.94,6.76 -25.4,10.18 -7.34,2.97 -14.64,6.04 -21.99,8.99 -9.4,3.78 -18.86,7.39 -28.22,11.26 -5.27,2.18 -10.68,3.99 -15.66,6.91 -2.76,1.61 -5.93,2.53 -8.93,3.72 -7.68,3.05 -15.37,6.07 -23.05,9.12 -0.81,0.32 -1.59,0.74 -2.27,1.06 5.18,9.18 10.23,18.13 15.16,26.86 1.59,-0.49 2.92,-0.8 4.17,-1.3 5.39,-2.14 10.8,-4.26 16.13,-6.53 5.16,-2.2 10.19,-4.71 15.38,-6.87 10.4,-4.31 20.87,-8.45 31.29,-12.71 7.33,-2.99 14.61,-6.08 21.94,-9.07 6.74,-2.75 13.49,-5.46 20.26,-8.14 2.73,-1.08 5.5,-2.03 8.26,-3.04 z M 126.22,135.4 c -0.3,-0.18 -0.66,-0.31 -0.89,-0.56 -2.01,-2.15 -3.98,-4.34 -5.99,-6.49 -0.88,-0.94 -1.81,-1.84 -3.32,-1.87 -4.18,3.81 -8.38,7.63 -12.85,11.69 2.75,2.22 5.14,4.36 7.76,6.17 2.26,1.56 4.7,2.95 7.23,4.02 1.99,0.84 4.07,1.94 6.4,1.4 3.56,-0.83 6.89,-2.15 9.29,-5.09 2.5,-3.06 5.32,-5.82 7.38,-9.27 2.73,-4.58 5.64,-9.04 7.64,-14.01 0.57,-1.41 1.36,-2.53 2.84,-3.15 4.6,-1.92 7.27,-6.26 6.89,-11.14 -0.05,-0.6 -0.14,-1.45 -0.53,-1.73 -1.67,-1.17 -2.16,-3.65 -4.57,-3.78 0.69,-2.42 1.28,-4.61 1.95,-6.77 0.3,-0.98 0.45,-1.78 -1.12,-2.16 -0.69,3.02 -1.53,5.92 -1.99,8.89 -0.3,1.91 -1.16,3.15 -2.84,4.16 -0.71,-0.6 -1.39,-1.18 -2.05,-1.74 2.89,-4.32 3.04,-7.58 0.58,-11.2 -1.06,2.15 -2.12,4.31 -3.39,6.88 1.16,2.01 1.05,4.58 0.31,7.28 -0.4,1.48 -0.36,3.11 -0.28,4.67 0.06,1.35 -0.15,2.51 -0.86,3.67 -2.62,4.32 -5.28,8.63 -7.73,13.05 -1.99,3.57 -5.06,6.06 -8.02,8.69 -0.37,0.33 -0.96,0.4 -1.65,0.67 -0.11,-0.93 -0.2,-1.64 -0.29,-2.36 1.08,0.43 2.09,0.52 3,-0.41 1.42,-1.44 3.21,-2.64 4.26,-4.31 3.42,-5.44 6.57,-11.05 9.83,-16.6 0.57,-0.97 0.33,-1.76 -0.7,-2.54 -0.59,0.64 -1.25,1.26 -1.79,1.97 -3.56,4.68 -7.09,9.39 -10.66,14.08 -0.82,1.07 -1.54,2.35 -3.26,2.18 -2,-2.51 -4.01,-5.02 -7.21,-6.67 -0.6,0.62 -1.21,1.26 -1.88,1.95 0.49,0.59 0.81,1.03 1.18,1.43 2.14,2.28 4.34,4.51 6.42,6.84 0.52,0.54 0.63,1.43 0.91,2.16 z m 433.59,97.79 c 0,-1.6 -0.05,-3.07 0.01,-4.53 0.4,-10.74 -0.38,-21.45 -0.75,-32.17 -0.26,-7.4 -0.44,-14.8 -0.63,-22.2 -0.17,-6.66 -0.26,-13.31 -0.47,-19.97 -0.12,-3.79 -0.49,-7.57 -0.61,-11.36 -0.16,-5.27 -0.18,-10.55 -0.29,-15.82 -0.15,-7.49 -0.16,-14.99 -0.51,-22.48 -0.3,-6.44 -1.12,-12.85 -1.44,-19.28 -0.21,-4.24 0.02,-8.5 0.1,-12.75 0.08,-3.88 0.44,-7.76 0.31,-11.63 -0.34,-10.41 -0.86,-20.82 -1.33,-31.23 -0.01,-0.15 -0.21,-0.28 -0.57,-0.73 -10.08,-0.14 -20.41,-0.28 -30.85,-0.42 -0.16,0.95 -0.4,1.67 -0.38,2.37 0.06,2.02 0.32,4.04 0.33,6.06 0.05,6.29 -0.1,12.59 0.07,18.88 0.25,9.19 0.75,18.38 1.07,27.57 0.49,13.87 0.88,27.74 1.38,41.61 0.23,6.45 0.5,12.89 0.97,19.32 0.27,3.68 0.85,7.31 0.78,11.04 -0.06,3.29 0.57,6.58 0.66,9.88 0.39,14.51 0.66,29.02 1.03,43.52 0.17,6.82 0.46,13.64 0.71,20.47 0.05,1.26 0.17,2.51 0.26,3.85 10.17,0 20.05,0 30.15,0 z M 242.74,154.56 c -0.27,-0.8 -0.32,-1.09 -0.46,-1.31 -4.13,-6.72 -9.78,-11.6 -17.13,-14.59 -2.36,-0.96 -4.65,-2.2 -6.77,-3.63 -3.54,-2.38 -5.67,-7.38 -4.2,-11.67 1.05,-3.08 2.27,-6.01 3.89,-8.83 3.44,-6 0.18,-10.56 -5.25,-12.34 -3.57,-1.17 -7.45,-1.34 -11.26,-0.62 -4.89,0.92 -9.86,1.54 -14.63,2.87 -4.94,1.38 -9.69,3.45 -14.58,5.24 0,4.05 0,7.72 1.18,11.29 0.63,1.9 1.25,3.81 1.88,5.72 1.62,4.9 3.02,9.89 4.91,14.69 2.8,7.11 5.88,14.11 9,21.09 0.69,1.55 1.03,3.68 4.09,3.74 -1.62,1.04 -1.42,1.91 -0.83,2.85 1.03,1.63 1.99,3.3 3.1,5.13 5.23,-2.3 10.42,-4.67 15.69,-6.87 5.17,-2.16 10.48,-3.98 15.59,-6.26 5.15,-2.29 10.63,-3.85 15.78,-6.5 z M 121.66,119.95 c -0.79,-1.5 -1.25,-2.72 -2.01,-3.71 -1.46,-1.88 -2.99,-3.73 -4.67,-5.42 -3.68,-3.69 -7.89,-6.67 -12.99,-8.03 -2.31,-0.62 -4.79,-0.86 -6.94,0.67 -0.87,0.62 -1.45,1.65 -2.3,2.32 -3.07,2.43 -4.32,5.7 -4.2,9.45 0.09,2.84 0.69,5.67 0.9,8.52 0.44,6.02 2.98,11.14 6.53,15.86 0.47,0.63 1,1.22 1.5,1.83 8.09,-7.2 15.98,-14.21 24.18,-21.49 z M 557.14,61.71 c 0.69,-0.13 1.16,-0.14 1.57,-0.3 5.22,-2.03 10.43,-4.07 15.64,-6.12 0.33,-0.13 0.6,-0.4 0.91,-0.59 1.48,-0.9 2.96,-1.8 4.46,-2.68 2.6,-1.52 4.74,-3.33 5.77,-6.38 1.33,-3.9 0.39,-7.42 -1.07,-10.98 -1.18,-2.88 -3.28,-4.68 -6.25,-5.34 -2.06,-0.46 -4.18,-0.72 -6.29,-0.85 -5.94,-0.35 -11.14,1.89 -16.3,4.63 0.53,9.53 1.04,18.91 1.56,28.61 z m -332.59,174.7 c 0.06,-0.27 0.12,-0.54 0.18,-0.8 -2.7,-0.64 -4.6,-2.48 -6.74,-3.97 -0.78,-0.54 -1.88,-0.8 -2.86,-0.86 -1.03,-0.06 -1.55,-0.43 -2.22,-1.23 -1.76,-2.08 -3.34,-4.69 -6.59,-3.64 -1.54,-2.17 -2.12,-4.93 -5.34,-4.87 -0.39,0.01 -0.81,-0.68 -1.18,-1.08 -2.14,-2.24 -5.46,-2.84 -8.01,-1.15 -3.99,2.63 -7.97,5.25 -11.29,8.82 -2.08,2.24 -3.18,4.58 -2.45,7.47 0.41,1.64 1.24,3.28 2.28,4.62 0.54,0.7 1.94,0.71 2.93,1.09 1.9,0.73 3.84,0.37 5.76,0.18 6.53,-0.64 13.05,-1.3 19.57,-2.03 3.11,-0.35 6.21,-0.86 9.3,-1.35 2.21,-0.36 4.43,-0.8 6.66,-1.2 z M 193.6,211.3 c 0.76,1.46 1.37,2.7 2.05,3.89 0.31,0.55 0.73,1.41 1.16,1.45 2.72,0.22 3.88,3.34 6.7,3.46 0.68,0.03 1.39,1.12 1.96,1.82 0.57,0.71 0.98,1.54 1.49,2.36 2.24,-0.18 4.06,0.49 5.46,2.21 0.56,0.69 1.26,0.77 2.2,0.67 8.54,-0.93 16.85,-2.87 24.96,-5.67 1.07,-0.37 2.12,-0.81 3.69,-1.42 -2.16,-2.29 -4.83,-3.42 -8.89,-2.53 -2.08,-2.46 -2.08,-2.46 -6.28,-2.78 -1.13,-1.59 -1.96,-3.6 -4.25,-3.98 -2.13,-0.36 -4.36,-0.41 -5.22,-3.04 -0.16,-0.49 -0.96,-0.88 -1.55,-1.1 -2.68,-1.02 -5.43,-1.89 -8.33,-1.16 -1.78,0.45 -3.55,1.01 -5.26,1.68 -3.25,1.3 -6.45,2.69 -9.89,4.14 z m -124.8,13 c 0.58,0 0.88,0.08 1.12,-0.01 7.27,-2.62 14.57,-5.16 21.79,-7.91 6.28,-2.39 12.47,-5.02 18.7,-7.54 5.97,-2.41 11.95,-4.78 17.9,-7.23 5.34,-2.19 10.67,-4.42 15.95,-6.73 1.52,-0.67 2.89,-1.7 4.57,-2.71 -1.63,-1.06 -2.88,-1.83 -4.07,-2.67 -1.02,-0.71 -1.96,-0.69 -3.1,-0.21 -7.63,3.21 -15.28,6.38 -22.95,9.51 -6.98,2.84 -14,5.6 -21,8.4 -7.34,2.94 -14.68,5.87 -22,8.86 -2.96,1.21 -5.86,2.59 -8.78,3.89 0.67,1.57 1.25,2.92 1.87,4.35 z m 83.76,-71.27 c 1.45,0.45 3.05,0.48 3.88,1.29 2.16,2.1 4.12,4.46 5.93,6.88 2.9,3.91 5.62,7.95 8.39,11.95 0.59,0.85 1.2,1.32 2.3,0.99 3.31,-1 6.46,-2.35 9.56,-4.02 -0.29,-0.42 -0.42,-0.67 -0.6,-0.86 -4.85,-5.15 -10.03,-9.94 -15.63,-14.27 -4.21,-3.25 -8.75,-4.27 -13.83,-1.96 z m 75.4,88.89 c -0.63,-3.98 -1.2,-4.43 -4.44,-3.95 -2.28,0.34 -4.56,0.66 -6.84,0.96 -4.48,0.58 -8.97,1.14 -13.45,1.72 -3.11,0.4 -6.21,0.93 -9.33,1.23 -4.12,0.4 -8.26,1.09 -12.41,0.11 -0.4,-0.09 -0.86,0.07 -1.78,0.15 0.56,1.1 0.78,2.2 1.44,2.71 0.99,0.77 2.25,1.4 3.47,1.62 4.28,0.76 8.62,1.18 12.97,0.55 6.94,-1.01 13.86,-2.09 20.78,-3.22 3.17,-0.51 6.3,-1.22 9.59,-1.88 z M 523.05,26.85 c 0.07,0.18 0.13,0.37 0.2,0.55 9.26,0 18.53,0 28.36,0 -4.58,-5.38 -8.82,-10.37 -13.15,-15.47 -5.3,5.1 -9.55,10.84 -15.41,14.92 z M 172.79,176.13 c 1.35,1.94 2.57,3.7 3.66,5.26 5.97,-2.28 11.56,-4.42 17.26,-6.59 -1.12,-2.27 -2.08,-4.23 -3.06,-6.22 -6.26,1.75 -11.86,4.63 -17.86,7.55 z m 71.86,45.22 c -5.26,1.52 -10.13,2.91 -14.99,4.34 -4.9,1.45 -10.16,1.32 -14.82,3.1 1.59,0.69 3.14,1.41 4.74,2.03 0.82,0.32 1.8,0.77 2.57,0.59 6.82,-1.55 13.62,-3.21 20.41,-4.9 1.3,-0.32 2.55,-0.88 4.11,-1.44 -0.72,-1.34 -1.32,-2.43 -2.02,-3.72 z M 158.92,99.96 c -0.56,0.85 -1.04,1.59 -1.56,2.38 0.29,0.32 0.64,0.71 0.98,1.09 2.54,-1.43 2.71,-2.15 0.58,-3.47 z m 1.76,7.08 c 1.61,-1.26 1.65,-1.6 0.46,-3.35 -1.54,0.95 -1.34,2.08 -0.46,3.35 z m -4.04,-9.69 c -1.1,1.88 -1.1,1.88 -0.63,3.45 1.21,-1.27 1.21,-1.27 0.63,-3.45 z m -4.29,-1.8 c -0.16,-0.01 -0.32,-0.03 -0.48,-0.04 -0.36,1.71 -0.73,3.42 -1.09,5.13 0.2,0.04 0.39,0.07 0.59,0.11 0.33,-1.74 0.66,-3.47 0.98,-5.2 z m 2.26,-9.23 c -0.19,-0.08 -0.38,-0.16 -0.56,-0.25 -0.17,0.8 -0.35,1.6 -0.52,2.4 0.16,0.04 0.31,0.07 0.47,0.11 0.2,-0.75 0.4,-1.51 0.61,-2.26 z m -2.27,7.42 c 0.18,0.04 0.35,0.08 0.53,0.11 0.17,-0.76 0.33,-1.53 0.5,-2.29 -0.19,-0.04 -0.39,-0.08 -0.58,-0.12 -0.16,0.76 -0.31,1.53 -0.45,2.3 z"
   id="path85" /><path
   d="m 91.45,94.67 c -2.62,-0.48 -4.72,-1.92 -6.22,-4.07 -1.37,-1.95 -2.68,-4.03 -3.54,-6.23 -0.76,-1.94 -1.18,-4.14 -1.16,-6.22 0.03,-3.49 0.5,-6.97 0.84,-10.46 0.05,-0.53 0.35,-1.04 0.58,-1.54 1.26,-2.69 2.09,-5.38 -0.09,-7.88 0.69,-1.26 1.48,-1.29 2.44,-0.75 0.79,0.45 1.61,0.83 2.58,1.34 0.59,-1.93 1.13,-3.71 1.67,-5.49 0.19,-0.03 0.38,-0.06 0.57,-0.09 0.75,1.45 1.51,2.91 2.26,4.36 -0.16,0.12 -0.32,0.24 -0.48,0.36 -0.57,-0.67 -1.15,-1.35 -1.98,-2.32 -0.2,1.24 -0.32,2.21 -0.52,3.17 -0.29,1.4 -0.83,1.64 -2.1,0.95 -0.77,-0.42 -1.52,-0.9 -2.75,-1.63 0.22,1.02 0.24,1.46 0.41,1.83 0.72,1.54 0.51,3 -0.14,4.53 -1.6,3.77 -2.54,7.67 -2.51,11.82 0.04,5.24 2.15,9.64 5.23,13.66 1,1.31 2.25,2.4 4.01,2.79 0.55,0.12 0.96,0.82 1.44,1.25 -0.17,0.21 -0.35,0.41 -0.54,0.62 z"
   id="path87" /><path
   d="m 157.94,224.83 c -0.72,1.52 -2.36,1.56 -3.62,2.12 -4.43,1.98 -8.92,3.81 -13.42,5.65 -5.44,2.22 -10.9,4.39 -16.37,6.56 -0.21,0.08 -0.51,-0.05 -0.9,-0.09 0.09,-1.16 0.81,-1.54 1.71,-1.88 7.37,-2.83 14.71,-5.72 22.09,-8.53 3.49,-1.33 7.03,-2.51 10.55,-3.76 0.02,-0.02 -0.04,-0.07 -0.04,-0.07 z"
   id="path89" /><path
   d="m 111.78,77.53 c -0.76,2.78 -1.52,5.55 -2.26,8.26 -1.59,0.1 -1.88,-0.98 -2.52,-1.73 -0.82,-0.95 -1.72,-2.03 -2.82,-2.48 -2.32,-0.95 -3.81,-0.13 -5.11,2.34 -1.91,3.63 -0.56,7.16 3.21,8.35 -1.26,0.84 -2.93,0.49 -3.77,-0.89 -2.14,-3.58 -1.24,-7.49 1.4,-10.38 1.21,-1.29 3.86,-1.4 5.4,-0.27 1.22,0.9 2.28,2.03 3.39,3.04 0.61,-1.71 1.22,-3.56 1.95,-5.35 0.16,-0.38 0.78,-0.57 1.19,-0.84 -0.01,0 -0.06,-0.05 -0.06,-0.05 z"
   id="path91" /><path
   d="m 391.54,129.21 c -0.72,0.5 -1.38,1.16 -2.18,1.48 -5.18,2.1 -10.41,4.09 -15.58,6.2 -2.88,1.17 -5.66,2.57 -8.54,3.72 -1.16,0.47 -2.48,0.57 -3.72,0.84 l 0.04,0.06 c 0.71,-0.5 1.37,-1.15 2.15,-1.47 6.86,-2.81 13.73,-5.59 20.63,-8.3 2.37,-0.93 4.83,-1.64 7.25,-2.45 -0.01,-0.01 -0.05,-0.08 -0.05,-0.08 z"
   id="path93" /><path
   d="m 361.51,141.45 c -0.36,0.37 -0.66,0.88 -1.09,1.07 -1.92,0.82 -3.88,1.52 -5.81,2.31 -3.69,1.5 -7.35,3.07 -11.06,4.53 -0.8,0.32 -1.75,0.29 -2.62,0.42 l 0.05,0.07 c 0.59,-0.4 1.13,-0.91 1.77,-1.2 5.32,-2.41 10.98,-3.99 16.14,-6.8 0.74,-0.4 1.78,-0.24 2.68,-0.34 -0.02,0 -0.06,-0.06 -0.06,-0.06 z"
   id="path95" /><path
   d="m 328.08,154.76 c -0.04,1.65 -1.54,1.66 -2.52,2.1 -2.94,1.29 -5.91,2.53 -8.95,3.58 -2.05,0.71 -4.22,1.05 -6.34,1.56 0,0 0.1,0.09 0.1,0.09 0.54,-0.34 1.05,-0.75 1.63,-1 2.79,-1.18 5.58,-2.35 8.4,-3.44 2.57,-0.99 5.18,-1.86 7.77,-2.79 z"
   id="path97" /><path
   d="m 340.92,149.79 c -0.13,0.23 -0.21,0.58 -0.41,0.66 -2.75,1.13 -5.5,2.29 -8.3,3.31 -1.32,0.48 -2.75,0.68 -4.13,1.01 0,0 0.09,0.09 0.09,0.09 2.96,-1.33 5.9,-2.71 8.9,-3.95 1.23,-0.51 2.59,-0.71 3.89,-1.05 0.01,-0.01 -0.04,-0.07 -0.04,-0.07 z"
   id="path99" /><path
   d="m 123.8,76.37 c -0.5,-0.13 -1,-0.27 -1.49,-0.4 0.03,-0.19 0.06,-0.39 0.09,-0.58 0.52,0.06 1.03,0.12 1.55,0.18 -0.05,0.26 -0.1,0.53 -0.15,0.8 z"
   id="path101" /><path
   class="st13"
   d="m 152.35,95.55 c -0.33,1.73 -0.65,3.46 -0.98,5.19 -0.2,-0.04 -0.39,-0.07 -0.59,-0.11 0.36,-1.71 0.73,-3.42 1.09,-5.13 0.17,0.02 0.32,0.04 0.48,0.05 z"
   id="path103" /><path
   class="st13"
   d="m 154.61,86.32 c -0.21,0.75 -0.41,1.51 -0.62,2.26 -0.16,-0.04 -0.31,-0.07 -0.47,-0.11 0.17,-0.8 0.35,-1.6 0.52,-2.4 0.19,0.08 0.38,0.16 0.57,0.25 z"
   id="path105" /><path
   class="st13"
   d="m 152.34,93.74 c 0.15,-0.77 0.3,-1.54 0.45,-2.3 0.19,0.04 0.39,0.08 0.58,0.12 -0.17,0.76 -0.33,1.53 -0.5,2.29 -0.18,-0.04 -0.36,-0.08 -0.53,-0.11 z"
   id="path107" /><path
   d="m 193.09,128.79 c -0.84,-0.45 -2.33,-0.81 -3.13,-1.76 -1.08,-1.29 -1.88,-2.94 -2.35,-4.57 -0.81,-2.79 3.29,-6.86 6.92,-5.51 2.04,0.76 3.69,2.05 4.72,3.98 0.78,1.46 0.83,2.9 -0.24,4.39 -1.37,1.91 -3.16,2.97 -5.92,3.47 z m -4.24,-6.82 c -0.04,2.54 2.08,5.32 4.17,5.44 1.83,0.11 5.13,-2.49 5.25,-4.15 0.16,-2.07 -2.93,-5.18 -5.22,-5.25 -1.89,-0.06 -4.17,2.09 -4.2,3.96 z"
   id="path109" /><circle
   cx="123.32"
   cy="75.979996"
   r="1.05"
   id="circle111" /><polygon
   points="213.46,104.77 208.93,124.02 210.92,123.24 214.9,105.21 "
   id="polygon113"
   transform="translate(-59.29,-21.22)" /><polygon
   class="st5"
   points="248.6,183.69 252.39,191.26 257.59,189.38 254.61,180.97 "
   id="polygon115"
   transform="translate(-59.29,-21.22)" /><path
   class="st14"
   d="m 246.69,232.75 -22.65,-0.41 -1.61,0.5 c 0.45,0.11 3.52,1.9 4.91,3.78 1.62,2.19 2.07,4.51 1.92,5.09 l 17.75,-0.17 z"
   id="path117" /><path
   class="st14"
   d="m 176.02,232.75 c 0.05,0.96 0.22,2.23 0.66,3.65 0.41,1.29 0.93,2.33 1.39,3.11 l 0.43,2.36 -72.33,1.49 -0.17,-8.79 13.11,-0.17 2.49,5.47 16.59,-6.14 z"
   id="path119" />
</svg>
