<?xml version="1.0" encoding="UTF-8" standalone="no"?>
<!-- Generator: Adobe Illustrator 27.5.0, SVG Export Plug-In . SVG Version: 6.00 Build 0)  -->

<svg
   version="1.1"
   x="0px"
   y="0px"
   viewBox="0 0 795.01281 321.56509"
   xml:space="preserve"
   id="svg124"
   sodipodi:docname="teeter-header.svg"
   width="795.01282"
   height="321.56509"
   inkscape:version="1.1.2 (0a00cf5339, 2022-02-04)"
   xmlns:inkscape="http://www.inkscape.org/namespaces/inkscape"
   xmlns:sodipodi="http://sodipodi.sourceforge.net/DTD/sodipodi-0.dtd"
   xmlns="http://www.w3.org/2000/svg"
   xmlns:svg="http://www.w3.org/2000/svg"><defs
   id="defs128">
	

		<linearGradient
   id="SVGID_1_"
   gradientUnits="userSpaceOnUse"
   x1="395.12009"
   y1="308.24039"
   x2="395.12009"
   y2="-2.5090001">
			<stop
   offset="0"
   style="stop-color:#FFFFFF"
   id="stop6" />
			<stop
   offset="0.0573"
   style="stop-color:#EAF8FE"
   id="stop8" />
			<stop
   offset="0.2607"
   style="stop-color:#A4E2F9"
   id="stop10" />
			<stop
   offset="0.4529"
   style="stop-color:#69D0F6"
   id="stop12" />
			<stop
   offset="0.6282"
   style="stop-color:#3CC1F3"
   id="stop14" />
			<stop
   offset="0.7834"
   style="stop-color:#1BB7F1"
   id="stop16" />
			<stop
   offset="0.9126"
   style="stop-color:#07B0EF"
   id="stop18" />
			<stop
   offset="1"
   style="stop-color:#00AEEF"
   id="stop20" />
			<stop
   offset="1"
   style="stop-color:#000000"
   id="stop22" />
		</linearGradient>
		
		
		
		
		
		
		
		
		
		
		
		
		
		
		
		
		
		
		
		
		
		
		
		
		
		
		
		
		
		
		
		
		
		
		
		
		
		
		
	<linearGradient
   id="SVGID_1_-3"
   gradientUnits="userSpaceOnUse"
   x1="395.12009"
   y1="308.24039"
   x2="395.12009"
   y2="-2.5090001"><stop
     offset="0"
     style="stop-color:#FFFFFF"
     id="stop6-6" /><stop
     offset="0.0573"
     style="stop-color:#EAF8FE"
     id="stop8-7" /><stop
     offset="0.2607"
     style="stop-color:#A4E2F9"
     id="stop10-5" /><stop
     offset="0.4529"
     style="stop-color:#69D0F6"
     id="stop12-3" /><stop
     offset="0.6282"
     style="stop-color:#3CC1F3"
     id="stop14-5" /><stop
     offset="0.7834"
     style="stop-color:#1BB7F1"
     id="stop16-6" /><stop
     offset="0.9126"
     style="stop-color:#07B0EF"
     id="stop18-2" /><stop
     offset="1"
     style="stop-color:#00AEEF"
     id="stop20-9" /><stop
     offset="1"
     style="stop-color:#000000"
     id="stop22-1" /></linearGradient><linearGradient
   x1="0"
   y1="0"
   x2="1"
   y2="0"
   gradientUnits="userSpaceOnUse"
   gradientTransform="matrix(0,240.27089,240.27089,0,367.52734,350.50949)"
   spreadMethod="pad"
   id="linearGradient30"><stop
     style="stop-opacity:1;stop-color:#ffffff"
     offset="0"
     id="stop22-2" /><stop
     style="stop-opacity:1;stop-color:#00aeef"
     offset="0.68314877"
     id="stop24" /><stop
     style="stop-opacity:1;stop-color:#00aeef"
     offset="1"
     id="stop26" /><stop
     style="stop-opacity:1;stop-color:#00aeef"
     offset="1"
     id="stop28" /></linearGradient></defs><sodipodi:namedview
   id="namedview126"
   pagecolor="#ffffff"
   bordercolor="#666666"
   borderopacity="1.0"
   inkscape:pageshadow="2"
   inkscape:pageopacity="0.0"
   inkscape:pagecheckerboard="0"
   showgrid="true"
   fit-margin-top="0"
   fit-margin-left="0"
   fit-margin-right="0"
   fit-margin-bottom="0"
   inkscape:zoom="0.96938332"
   inkscape:cx="258.9275"
   inkscape:cy="-45.389682"
   inkscape:window-width="1904"
   inkscape:window-height="995"
   inkscape:window-x="1208"
   inkscape:window-y="645"
   inkscape:window-maximized="0"
   inkscape:current-layer="layer1"><inkscape:grid
     type="xygrid"
     id="grid2027"
     originx="1.43776e-05"
     originy="1.2293334e-06" /></sodipodi:namedview>
<style
   type="text/css"
   id="style2">
	.st0{fill:url(#SVGID_1_);}
	.st1{fill:#009444;}
	.st2{fill:#BE1E2D;}
	.st3{fill:none;stroke:#009444;stroke-width:11.6189;stroke-miterlimit:10;}
	.st4{fill:#1C75BC;}
	.st5{fill:#F9ED32;}
	.st6{fill:#009444;stroke:#009444;stroke-width:0.6804;stroke-miterlimit:10;}
	.st7{fill:#009444;stroke:#009444;stroke-width:0.9126;stroke-miterlimit:10;}
	.st8{fill:#ECC19C;}
	.st9{fill:#8B5E3C;}
	.st10{fill:#FBB040;}
	.st11{fill:#6D6E71;}
	.st12{fill:#005E8A;}
	.st13{fill:#FFFFFF;}
	.st14{fill:#006838;}
</style>
<g
   id="Layer_3"
   transform="translate(2.0900144,2.5100013)">
</g>
<g
   id="red"
   transform="translate(2.0900144,2.5100013)">
</g>

<g
   inkscape:groupmode="layer"
   id="layer1"
   inkscape:label="Layer 1"
   style="display:inline"
   transform="translate(3.5944e-6,1.0307333e-5)"><g
     id="g10"
     transform="matrix(1.2895837,0,0,-1.3333333,-76.456842,787.70665)"><g
       id="g12"><g
         id="g18"><g
           id="g20"><path
             d="M 59.288,352.721 V 590.78 l 616.47803,10e-6 V 365.78 l -150.56103,-1.826 -57.802,-7.963 -85.277,6.684 -62.12,-9.339 -35.993,1.834 -2.288,2.773 24.252,7.757 -3.434,5 -28.65,-7.089 -36.762,-10.226 -113.474,-2.876 z"
             style="fill:url(#linearGradient30);stroke:none"
             id="path32"
             sodipodi:nodetypes="cccccccccccccccc" /></g></g></g></g></g><g
   inkscape:groupmode="layer"
   id="layer2"
   inkscape:label="Layer 2"
   style="display:inline"
   transform="translate(3.5944e-6,1.0307333e-5)"><g
     id="g1977"><polygon
       class="st1"
       points="290.04,303.02 292.61,308.28 293.82,298.22 282.99,297.76 "
       id="polygon27"
       transform="translate(2.09,2.51)" /><path
       class="st2"
       d="M 227.04,234.94 621.69,77.59 635.37,71.58 725.16,38.11 c 0,0.43 24.75,-9.14 30.79,11.44 4.28,14.59 -8.84,19.74 -14.54,21.46 L 247.27,274.13 Z"
       id="path29" /><polyline
       class="st3"
       points="793.22,290.42 598.31,290.85 523.83,301.15 413.93,292.51 333.88,304.58 292.5,304.09   "
       id="polyline31"
       transform="matrix(0.99938091,0,0,1,2.2710829,2.51)" /><polygon
       class="st4"
       points="692.28,12.72 711.95,32.46 720.22,299.94 679.74,299.94 673.47,144.03 671.33,88.24 669.48,33.89 "
       id="polygon33"
       transform="translate(2.09,2.51)" /><path
       class="st5"
       d="m 250.98,225.93 c -9.14,-13.99 -14.54,-31.76 -24.98,-55.66 -1.95,-4.46 -1.82,-9.37 -2.38,-13.81 l -1.52,-14.6 c 7.16,-5.11 20.76,-8.19 39.45,-12.25 5.24,-1.14 18.34,1.33 21.08,8.35 2.82,7.22 -7.03,14.53 -4.68,27.57 2.54,14.06 12.77,8.26 28.62,23.5 4.06,3.91 7.06,7.45 8.93,9.79 z"
       id="path35" /><ellipse
       class="st4"
       cx="249.83"
       cy="158.72"
       rx="6.9699998"
       ry="6.5999999"
       id="ellipse37" /><polygon
       class="st4"
       points="191.74,246.45 86.84,290.36 83.42,279.63 182.62,241.01 "
       id="polygon39"
       transform="translate(2.09,2.51)" /><polyline
       class="st3"
       points="227.08,304.52 75.76,308.02 -1.21,306.3   "
       id="polyline41"
       transform="translate(2.09,2.51)" /><polyline
       class="st6"
       points="680.89,292.32 672.48,267.9 675.18,284.78 663.76,272.42 672.18,286.59 658.65,282.67     680.89,292.32   "
       id="polyline43"
       transform="translate(2.09,2.51)" /><polyline
       class="st7"
       points="726.66,279.65 741.17,262.14 730.48,282.21 747.66,276.66 719.41,290.32   "
       id="polyline45"
       transform="translate(2.09,2.51)" /><polygon
       class="st8"
       points="167.65,188.66 156.54,192.52 131.31,184.08 131.91,171.13 141.57,152.61 152.25,157.11 163.52,162.91 183.04,138.88 184.75,131.16 184.33,124.72 188.6,116.57 191.88,120.86 191.16,128.31 193.31,129.44 196.87,115.99 199.72,117.57 199.29,120.86 203.43,126.01 205.56,129.3 208.13,134.16 204.57,137.59 197.87,149.04 191.88,151.9 183.04,170.21 "
       id="polygon47"
       transform="translate(2.09,2.51)" /><path
       class="st8"
       d="m 164.67,80.24 0.37,19.24 c 2.28,1.96 6.02,2.87 5.42,4.29 -0.43,1 -1.11,3.26 -2.28,4.86 l -2.33,6.22 -3.64,0.34 -2.02,8.32 -7.41,6.15 -10.26,0.14 -10.66,8.02 -18.4,-20.89 14,-7.18 -5.02,-9.08 6.86,-6.42 7.83,8.86 9.84,-10.15 -2.67,-10.51 9.81,-7.1 z"
       id="path49" /><path
       class="st9"
       d="m 159.2,86.03 c 0.51,0.22 7.96,1.36 7.98,1.14 0.15,-2.04 -2.22,-4.96 -4.96,-7.92 -2.64,-2.86 -7.67,-5.86 -20.26,-8.1 -17.95,-3.19 -16.82,2.15 -23.09,5.01 -1.08,0.49 -3.03,-6.36 -4.13,-6.01 -0.9,0.29 -1.43,6.63 -2.28,7.01 -0.96,0.42 -5.25,-2.69 -6.13,-2.15 -1.45,0.9 3.48,4.8 2.28,6.01 -2.85,2.86 -6.18,18.77 -3.91,25.27 2.82,8.09 8.93,12.07 9.85,15.16 l 8.5,-0.38 6.94,-2.28 c -0.71,0.14 -7.13,-0.29 -1.73,-13.02 2.52,-4.35 14.12,2.77 10.85,4.15 l 4,-8.22 c 0.43,-0.29 3.86,-2.74 4.12,-7.23 0.23,-3.81 -1.99,-6.38 -2.42,-6.87 l 7.13,1.57 -4.56,-7.58 c 5.73,2.68 7.11,2.44 11.82,4.44 z"
       id="path51" /><path
       class="st10"
       d="m 94.35,240.09 c -2.99,-11.44 -5.94,-43.23 -3.71,-62.65 4.06,-35.3 9.99,-36.82 16.25,-49.21 1.55,1.35 8.81,-6.44 17.54,-4.65 8.68,1.79 11.67,5.67 13.53,4.36 l 3.71,1.14 2.57,8.87 c 0,0 14.15,14.02 13.4,16.59 -2,4.79 -24.78,23.78 -25.37,23.74 l 17.67,13.45 -0.29,13.45 7.98,6.87 c -4.69,3.77 -7.98,12.87 -15.68,15.45 -25.94,11.73 -20.52,0 -26.51,5.44 -22.01,19.98 -18.53,6 -21.09,7.15 z"
       id="path53" /><path
       class="st11"
       d="m 240.15,312.9 c 18.1,-1.72 51.17,-6.01 51.74,-7.01 1.56,-2.73 -6.84,-4.86 -17.25,-11.44 l 21.09,-2.86 18.39,-6.58 c 0,0 -1.56,-3.6 -5.56,-4.29 -7.41,-1.29 -15.56,-3.83 -18.53,-8.44 -0.94,-1.45 -3.49,-0.4 -4.7,-1.29 -2.71,-2.86 -10.96,-7.15 -10.97,-7.15 l -12.4,3.72 -13.97,5.15 2,8.58 -16.82,9.73 -4.42,6.87 0.43,8.44 2.57,5.29 z"
       id="path55" /><path
       class="st12"
       d="m 95.77,239.95 9.83,1.72 c 4.6,-1.57 5.52,-6.58 10.12,-8.15 5.59,-1.91 15.22,-1.52 20.81,-3.43 5.5,-1.88 9.69,-2.57 14.82,-10.44 l 6.27,-8.15 4.28,-0.78 25.08,-10.09 c 6.98,-2.29 21.24,-11.36 34.21,4.58 7.4,9.1 16.11,12.84 16.25,14.73 l -15.68,6.44 17.96,30.61 12.54,22.89 -12.4,6.72 -12.68,10.44 c -2.99,-2.75 -8.8,-18.94 -13.11,-25.46 -7.21,-10.89 -5.75,-6.14 -13.97,-16.59 -5.2,-6.61 -8.93,-7.31 -13.97,-9.3 -2.89,-1.14 -5.18,-0.63 -6.98,-0.86 l -53.73,22.46 c -5.47,-1.98 -14.02,-5.41 -20.81,-9.87 -3.46,-2.28 -5.7,-8.01 -6.8,-11.87 z"
       id="path57" /><polygon
       class="st2"
       points="194.16,247.88 206.13,261.61 217.96,281.06 156.11,308.24 146.13,284.78 140.43,269.05 190.31,247.02 "
       id="polygon59"
       transform="translate(2.09,2.51)" /><polygon
       class="st4"
       points="248.75,222.99 225.09,232.43 219.95,224.91 243.9,213.55 "
       id="polygon61"
       transform="translate(2.09,2.51)" /><ellipse
       class="st13"
       cx="245.50999"
       cy="300.81"
       rx="5.5599999"
       ry="5.5799999"
       id="ellipse63" /><g
       id="g83"
       transform="translate(2.09,2.51)">
			<path
   class="st13"
   d="m 559.79,111.56 c -0.11,0.05 -0.29,0.06 -0.53,0.05 -0.24,-0.01 -0.41,0.02 -0.53,0.1 l -1.95,1.5 4.6,11.26 c 0.17,0.41 0.45,0.82 0.85,1.23 0.12,0.12 0.21,0.4 0.29,0.83 0.09,0.48 0.07,0.81 -0.07,1 -0.02,0.03 -0.09,0.06 -0.2,0.11 -0.47,0.19 -1.16,0.37 -2.08,0.53 -1.03,0.17 -1.67,0.19 -1.92,0.06 -0.3,-0.18 -0.44,-0.52 -0.4,-1.04 0.03,-0.45 0.02,-0.76 -0.05,-0.93 l -4.33,-10.6 -1.36,1.01 c -0.07,0.04 -0.16,0.15 -0.28,0.33 -0.12,0.18 -0.24,0.27 -0.37,0.29 -0.36,0.05 -0.98,-0.19 -1.86,-0.72 -0.88,-0.53 -1.34,-0.94 -1.38,-1.25 -0.02,-0.37 0.21,-0.76 0.7,-1.16 0.12,-0.1 0.31,-0.18 0.55,-0.25 0.24,-0.06 0.42,-0.14 0.53,-0.22 l 6.65,-4.96 c 0.07,-0.04 0.23,-0.21 0.51,-0.51 0.18,-0.19 0.38,-0.31 0.57,-0.36 0.42,-0.11 0.76,-0.06 1,0.14 0.17,0.13 0.41,0.41 0.71,0.83 0.37,0.5 0.64,0.95 0.81,1.37 0.13,0.31 0.19,0.57 0.18,0.77 0,0.21 -0.22,0.4 -0.64,0.59 z"
   id="path65" />
			<path
   class="st13"
   d="m 577.26,120.28 c 0.1,0.44 0.05,0.77 -0.15,0.99 -0.08,0.08 -0.25,0.18 -0.51,0.28 -0.48,0.2 -1.09,0.36 -1.82,0.49 -0.73,0.13 -1.2,0.15 -1.39,0.06 -0.09,-0.05 -0.15,-0.12 -0.19,-0.22 -0.05,-0.11 -0.07,-0.35 -0.07,-0.72 0.04,-0.15 0.08,-0.31 0.13,-0.49 0.04,-0.18 0.02,-0.37 -0.07,-0.59 -2.27,-5.64 -3.47,-8.45 -3.6,-8.45 -0.24,0.02 -0.52,0.74 -0.83,2.17 -0.34,1.52 -0.36,2.64 -0.07,3.36 l 1.94,4.75 c 0.32,0.14 0.52,0.4 0.6,0.8 0.1,0.48 -0.01,0.87 -0.31,1.18 -0.05,0.05 -0.13,0.1 -0.24,0.15 -0.39,0.16 -0.98,0.3 -1.79,0.43 -0.81,0.13 -1.27,0.16 -1.38,0.1 -0.25,-0.16 -0.37,-0.42 -0.36,-0.77 0,-0.05 0.03,-0.15 0.11,-0.31 0.08,-0.16 0.1,-0.29 0.06,-0.39 l -6.18,-15.14 c -0.05,-0.11 -0.17,-0.24 -0.35,-0.38 -0.18,-0.14 -0.29,-0.28 -0.3,-0.43 -0.04,-0.34 0.11,-0.62 0.43,-0.85 0.21,-0.15 0.77,-0.29 1.7,-0.42 1,-0.15 1.6,-0.12 1.78,0.09 0.12,0.13 0.2,0.38 0.22,0.73 0.03,0.35 0.14,0.76 0.32,1.22 l 1.64,4 c 0.38,-1.34 0.94,-2.16 1.68,-2.47 0.48,-0.2 1.18,-0.29 2.08,-0.27 0.91,0.02 1.47,0.14 1.69,0.37 0.77,0.75 2.35,4.04 4.73,9.88 0.26,0.3 0.44,0.58 0.5,0.85 z"
   id="path67" />
			<path
   class="st13"
   d="m 586.35,112.71 c 0.22,0.16 0.2,0.91 -0.05,2.25 -0.28,1.43 -0.69,2.49 -1.24,3.19 -0.07,0.08 -0.19,0.15 -0.36,0.22 -0.55,0.23 -1.35,0.36 -2.39,0.38 -1.09,0.05 -1.87,-0.06 -2.33,-0.34 -1.26,-0.73 -2.28,-2.05 -3.06,-3.95 -0.73,-1.8 -1.02,-3.53 -0.85,-5.2 0.17,-1.82 0.85,-2.99 2.05,-3.52 0.44,-0.19 1.01,-0.3 1.74,-0.32 0.89,-0.02 1.69,0.13 2.4,0.44 0.18,0.08 0.46,0.41 0.84,1.01 0.42,0.63 0.77,1.27 1.03,1.92 0.4,0.97 0.51,1.71 0.35,2.21 -1.27,1.07 -2.66,1.95 -4.16,2.64 0.26,0.71 0.64,1.41 1.16,2.1 0.51,0.69 0.88,1 1.1,0.92 0.29,-0.1 0.54,-0.48 0.73,-1.13 0.19,-0.56 0.27,-1 0.23,-1.32 -0.08,-0.47 -0.12,-0.97 -0.14,-1.49 0.22,-0.12 0.71,-0.19 1.48,-0.21 0.8,-0.02 1.28,0.05 1.47,0.2 z m -6.47,-4.99 c -0.25,0.07 -0.43,0.6 -0.54,1.57 -0.11,0.98 -0.05,1.85 0.18,2.6 0.63,-0.29 1.08,-0.66 1.34,-1.1 0.16,-0.27 -0.02,-1.02 -0.53,-2.28 -0.22,-0.53 -0.37,-0.79 -0.45,-0.79 z"
   id="path69" />
			<path
   class="st13"
   d="m 599.13,95.37 c -0.11,0.05 -0.29,0.07 -0.53,0.05 -0.24,-0.01 -0.41,0.02 -0.53,0.1 l -1.95,1.5 4.6,11.26 c 0.17,0.41 0.45,0.82 0.85,1.23 0.12,0.12 0.21,0.4 0.29,0.83 0.1,0.48 0.07,0.81 -0.06,1 -0.02,0.03 -0.09,0.06 -0.21,0.11 -0.47,0.19 -1.16,0.37 -2.07,0.53 -1.03,0.17 -1.67,0.19 -1.92,0.06 -0.3,-0.17 -0.44,-0.52 -0.4,-1.04 0.03,-0.45 0.02,-0.76 -0.06,-0.93 l -4.33,-10.6 -1.36,1.01 c -0.07,0.04 -0.16,0.15 -0.28,0.33 -0.12,0.18 -0.24,0.27 -0.37,0.29 -0.36,0.05 -0.98,-0.19 -1.87,-0.72 -0.88,-0.53 -1.34,-0.94 -1.38,-1.24 -0.02,-0.38 0.21,-0.76 0.7,-1.16 0.12,-0.1 0.31,-0.18 0.55,-0.25 0.24,-0.06 0.42,-0.14 0.53,-0.22 l 6.64,-4.96 c 0.07,-0.04 0.24,-0.21 0.51,-0.51 0.19,-0.19 0.38,-0.31 0.57,-0.36 0.42,-0.11 0.76,-0.06 1,0.14 0.17,0.13 0.41,0.41 0.71,0.83 0.37,0.5 0.64,0.95 0.81,1.37 0.13,0.31 0.19,0.57 0.18,0.77 0.02,0.2 -0.2,0.39 -0.62,0.58 z"
   id="path71" />
			<path
   class="st13"
   d="m 610.8,102.65 c 0.21,0.16 0.2,0.91 -0.05,2.25 -0.28,1.43 -0.69,2.49 -1.24,3.19 -0.07,0.08 -0.19,0.15 -0.36,0.22 -0.56,0.23 -1.35,0.36 -2.39,0.38 -1.09,0.05 -1.87,-0.06 -2.33,-0.34 -1.26,-0.73 -2.28,-2.05 -3.06,-3.95 -0.73,-1.8 -1.02,-3.53 -0.85,-5.2 0.17,-1.82 0.85,-2.99 2.05,-3.52 0.43,-0.19 1.01,-0.3 1.74,-0.32 0.89,-0.02 1.69,0.13 2.4,0.44 0.18,0.08 0.46,0.41 0.84,1.01 0.42,0.63 0.77,1.27 1.03,1.93 0.4,0.97 0.52,1.71 0.35,2.21 -1.27,1.07 -2.66,1.95 -4.16,2.64 0.26,0.71 0.64,1.41 1.16,2.1 0.52,0.69 0.88,1 1.1,0.92 0.29,-0.1 0.53,-0.48 0.73,-1.13 0.19,-0.56 0.26,-1 0.23,-1.32 -0.08,-0.47 -0.12,-0.97 -0.14,-1.49 0.21,-0.12 0.71,-0.19 1.48,-0.21 0.79,-0.03 1.28,0.04 1.47,0.19 z m -6.47,-4.99 c -0.25,0.07 -0.44,0.6 -0.54,1.57 -0.11,0.98 -0.05,1.85 0.18,2.6 0.63,-0.29 1.07,-0.66 1.34,-1.1 0.16,-0.26 -0.02,-1.02 -0.53,-2.28 -0.22,-0.52 -0.37,-0.79 -0.45,-0.79 z"
   id="path73" />
			<path
   class="st13"
   d="m 621.06,98.43 c 0.22,0.16 0.2,0.91 -0.05,2.25 -0.28,1.43 -0.69,2.49 -1.24,3.19 -0.07,0.08 -0.19,0.15 -0.36,0.22 -0.55,0.23 -1.35,0.35 -2.39,0.38 -1.09,0.05 -1.87,-0.06 -2.33,-0.34 -1.26,-0.73 -2.28,-2.05 -3.06,-3.94 -0.73,-1.8 -1.02,-3.53 -0.85,-5.2 0.17,-1.82 0.85,-2.99 2.05,-3.52 0.44,-0.2 1.01,-0.3 1.74,-0.32 0.89,-0.02 1.69,0.13 2.4,0.44 0.18,0.08 0.46,0.41 0.84,1.01 0.42,0.63 0.77,1.27 1.03,1.92 0.4,0.97 0.51,1.71 0.35,2.21 -1.27,1.07 -2.66,1.95 -4.16,2.64 0.26,0.71 0.64,1.41 1.16,2.1 0.51,0.69 0.88,1 1.1,0.92 0.29,-0.1 0.53,-0.48 0.73,-1.13 0.19,-0.56 0.27,-1 0.23,-1.32 -0.08,-0.47 -0.12,-0.97 -0.14,-1.49 0.21,-0.12 0.71,-0.19 1.48,-0.21 0.8,-0.03 1.28,0.04 1.47,0.19 z m -6.47,-4.99 c -0.25,0.07 -0.44,0.59 -0.54,1.57 -0.11,0.98 -0.05,1.85 0.18,2.6 0.63,-0.29 1.08,-0.66 1.34,-1.1 0.16,-0.27 -0.02,-1.03 -0.53,-2.28 -0.22,-0.53 -0.37,-0.79 -0.45,-0.79 z"
   id="path75" />
			<path
   class="st13"
   d="m 626.95,88.13 c 0.09,0.26 0.1,0.53 0.03,0.79 -0.08,0.27 -0.21,0.43 -0.39,0.51 -0.06,0.02 -0.11,0.04 -0.16,0.04 -0.23,0.01 -0.69,0.16 -1.39,0.45 l 3.45,8.46 c -0.01,-0.01 0.09,0.08 0.28,0.29 0.19,0.21 0.32,0.4 0.4,0.59 0.17,0.41 -0.03,0.75 -0.58,1.02 -0.29,0.14 -0.89,0.23 -1.8,0.29 -0.98,0.07 -1.55,0 -1.71,-0.22 -0.07,-0.09 -0.11,-0.32 -0.11,-0.69 0,-0.37 -0.04,-0.65 -0.11,-0.82 l -3.1,-7.58 -0.72,0.3 c -0.27,0.11 -0.7,0.01 -1.3,-0.31 -0.59,-0.31 -0.95,-0.61 -1.06,-0.9 -0.09,-0.21 -0.09,-0.44 0.01,-0.68 0.09,-0.24 0.24,-0.4 0.44,-0.48 l 1.54,-0.63 -0.79,-1.93 c -0.33,-0.2 -0.56,-0.46 -0.7,-0.79 -0.12,-0.3 -0.07,-0.54 0.16,-0.71 0.12,-0.08 0.29,-0.17 0.52,-0.26 0.53,-0.22 1.18,-0.39 1.95,-0.51 0.77,-0.13 1.3,-0.15 1.58,-0.06 0.13,0.05 0.22,0.13 0.27,0.24 0.06,0.14 0.03,0.4 -0.08,0.78 -0.11,0.38 -0.15,0.63 -0.12,0.75 l 0.47,1.16 0.68,-0.28 c 0.14,-0.06 0.54,0.07 1.21,0.4 0.67,0.3 1.04,0.56 1.13,0.78 z"
   id="path77" />
			<path
   class="st13"
   d="m 639.2,90.97 c 0.21,0.16 0.2,0.91 -0.06,2.25 -0.28,1.43 -0.69,2.49 -1.24,3.19 -0.07,0.08 -0.19,0.15 -0.36,0.22 -0.55,0.23 -1.35,0.36 -2.39,0.38 -1.09,0.05 -1.87,-0.07 -2.33,-0.34 -1.26,-0.73 -2.28,-2.05 -3.06,-3.95 -0.73,-1.8 -1.02,-3.53 -0.85,-5.2 0.17,-1.82 0.85,-2.99 2.05,-3.52 0.44,-0.19 1.01,-0.3 1.74,-0.32 0.89,-0.02 1.69,0.13 2.4,0.44 0.18,0.08 0.46,0.41 0.84,1.01 0.42,0.63 0.77,1.27 1.03,1.92 0.4,0.97 0.51,1.71 0.35,2.21 -1.27,1.07 -2.66,1.95 -4.16,2.64 0.26,0.71 0.64,1.41 1.16,2.1 0.51,0.69 0.88,1 1.1,0.92 0.29,-0.1 0.53,-0.48 0.73,-1.13 0.18,-0.56 0.26,-1 0.23,-1.32 -0.08,-0.47 -0.12,-0.97 -0.14,-1.49 0.21,-0.12 0.71,-0.19 1.48,-0.21 0.8,-0.02 1.28,0.05 1.48,0.2 z m -6.47,-4.99 c -0.25,0.07 -0.44,0.6 -0.54,1.57 -0.11,0.98 -0.05,1.85 0.18,2.6 0.63,-0.29 1.08,-0.66 1.34,-1.1 0.16,-0.27 -0.02,-1.02 -0.53,-2.28 -0.22,-0.53 -0.37,-0.79 -0.45,-0.79 z"
   id="path79" />
			<path
   class="st13"
   d="m 645.74,79.4 c 0.15,0.2 0.15,0.42 -0.01,0.65 -0.14,0.16 -0.26,0.32 -0.38,0.48 -0.34,1.74 -0.8,4.09 -1.38,7.05 0.93,2.27 1.41,3.44 1.46,3.5 0.04,0.07 0.17,0.23 0.38,0.48 0.21,0.25 0.35,0.47 0.42,0.64 0.11,0.27 0.07,0.51 -0.14,0.71 -0.13,0.14 -0.33,0.26 -0.6,0.37 -0.54,0.22 -1.19,0.35 -1.94,0.37 -0.94,0.05 -1.5,-0.14 -1.68,-0.58 -0.05,-0.13 -0.08,-0.36 -0.08,-0.69 0,-0.33 -0.04,-0.59 -0.12,-0.78 l -3.47,-8.48 c -0.48,-0.74 -0.73,-1.12 -0.74,-1.15 -0.18,-0.44 -0.09,-0.8 0.26,-1.08 0.15,-0.11 0.35,-0.22 0.59,-0.32 0.5,-0.2 1.06,-0.34 1.67,-0.4 0.61,-0.06 1.01,-0.02 1.19,0.13 0.05,0.05 0.09,0.11 0.13,0.2 0.03,0.07 0.07,0.45 0.12,1.15 l 0.42,1.03 c 0.09,-0.75 0.17,-1.51 0.25,-2.25 0.13,-0.95 0.29,-1.49 0.48,-1.62 0.29,-0.19 0.84,-0.2 1.66,-0.03 0.82,0.15 1.32,0.36 1.51,0.62 z"
   id="path81" />
		</g><path
       d="m 399.84,209.52 c -0.48,0.48 -0.87,1.15 -1.45,1.4 -7.72,3.37 -15.44,6.76 -23.22,9.99 -7.88,3.27 -15.85,6.33 -23.74,9.56 -10.44,4.27 -20.84,8.62 -31.26,12.94 -5.8,2.4 -11.64,4.73 -17.4,7.22 -6.63,2.86 -13.21,5.84 -19.81,8.78 -2.59,1.15 -5.15,2.35 -8.35,3.8 1.72,0.75 3.05,1.14 4.18,1.86 1.86,1.18 3.59,2.59 5.39,3.88 0.63,0.45 1.3,1.21 1.95,1.2 3.99,-0.08 6.39,2.15 8.24,5.32 0.17,0.3 0.43,0.55 0.75,0.95 2.69,-0.6 5.07,-0.17 6.9,2.26 0.42,0.55 1.7,0.69 2.56,0.64 4.09,-0.25 7.28,1.22 10.1,4.23 1.56,1.66 3.09,3.21 3.93,5.34 1.1,2.78 0.19,4.19 -2.66,4.85 -3.92,0.91 -7.77,2.12 -11.68,3.07 -4.85,1.18 -9.73,2.22 -14.59,3.36 -0.92,0.21 -1.8,0.59 -3.02,1.01 2.35,1.58 5.04,2.3 6.33,4.89 1.21,2.44 2.61,4.77 2.54,7.82 -0.64,0.23 -1.26,0.57 -1.92,0.68 -12.44,2.11 -24.89,4.16 -37.33,6.29 -6.43,1.1 -12.76,0.89 -19.16,-0.47 -5.47,-1.16 -6.74,-3.81 -7.18,-8.24 -0.08,-0.8 -0.05,-1.73 -0.45,-2.35 -2.21,-3.4 -2.45,-7.15 -2.26,-11.02 0.03,-0.71 -0.03,-1.43 -0.04,-2.15 1.11,-0.88 2.29,-1.67 3.31,-2.64 3.69,-3.52 7.07,-7.35 11.73,-9.74 2.78,-1.43 5.28,-3.4 7.9,-5.12 -0.31,-0.89 -0.45,-1.48 -0.72,-2 -4.99,-9.5 -9.78,-19.11 -15.08,-28.43 -3.7,-6.5 -8.12,-12.59 -12.2,-18.88 -1.73,-2.67 -3.3,-5.46 -5.14,-8.05 -3.09,-4.35 -6.36,-8.56 -9.52,-12.86 -1.11,-1.52 -1.97,-3.24 -3.21,-4.64 -2.36,-2.66 -5.19,-4.25 -9.01,-4.1 -6.75,0.26 -12.6,3.35 -18.68,5.64 -5.64,2.12 -11.02,4.91 -16.48,7.49 -1.25,0.59 -2.52,1.34 -3.46,2.33 -2.52,2.64 -4.85,5.46 -7.27,8.2 -1.77,2 -4.05,3.25 -6.48,4.26 -1.76,0.73 -3.83,1.08 -5.21,2.25 -4.01,3.4 -8.53,3.11 -13.2,2.56 -1.04,-0.12 -2.12,-0.11 -3.17,0 -4.97,0.53 -8.91,2.76 -11.94,6.86 -2.35,3.18 -5.7,4.13 -9.56,3.13 -0.87,-0.22 -1.76,-0.35 -3.1,-0.6 1.13,4.82 3.17,8.63 6.51,11.58 5.68,5.01 12.24,8.61 19.46,10.85 2.24,0.69 4.65,0.89 7.02,-0.09 10.24,-4.2 20.52,-8.27 30.74,-12.51 7.12,-2.95 14.19,-6.01 21.21,-9.18 2.31,-1.04 4.35,-0.43 6.09,0.7 8.09,5.31 15.2,11.75 20.86,19.66 6.94,9.69 12.56,20.18 18.19,30.67 0.42,0.79 0.36,1.84 0.52,2.77 -1.85,-0.01 -2.14,-1.5 -2.76,-2.79 -1.47,-3.09 -3.05,-6.12 -4.65,-9.3 -4.28,1.85 -8.24,3.64 -12.26,5.27 -1.27,0.51 -2.7,0.62 -4.06,0.91 l 0.07,0.07 c 3.34,-1.67 6.69,-3.29 10,-5.02 1.66,-0.87 3.23,-1.91 5.17,-3.07 -1.4,-2.6 -2.5,-5.07 -3.96,-7.3 -3.44,-5.25 -6.82,-10.57 -10.66,-15.52 -2.45,-3.16 -5.57,-5.81 -8.56,-8.51 -1.81,-1.63 -3.21,-1.4 -5.25,-0.34 -3.87,2.02 -7.76,4.03 -11.77,5.76 -7.31,3.15 -14.7,6.12 -22.07,9.12 -3.41,1.38 -6.85,2.69 -10.29,3.97 -2.2,0.82 -2.62,1.14 -2,3.33 1,3.55 2.16,7.07 3.51,10.51 2.57,6.54 5.32,13.01 7.99,19.5 0.81,1.96 1.69,3.9 2.37,5.91 0.14,0.43 -0.48,1.12 -1.1,2.44 -5.25,-13.54 -10.21,-26.36 -15.33,-39.56 -18.09,6.37 -35.53,14.94 -53.98,20.88 -1.13,-2.61 -2.2,-5.09 -3.29,-7.57 -0.66,-1.5 -0.17,-2.55 1.24,-3.2 1.94,-0.9 3.86,-1.82 5.85,-2.6 10.05,-3.96 20.12,-7.87 30.17,-11.82 0.41,-0.16 0.72,-0.56 1.18,-0.94 -7.45,-2.62 -14.34,-5.84 -20.12,-11.13 -2.76,-2.52 -4.9,-5.29 -6.25,-8.89 -0.74,-1.98 -1.15,-4.42 -3.25,-5.77 -0.22,-0.14 -0.4,-0.7 -0.3,-0.91 1.02,-1.99 -0.39,-3.68 -0.64,-5.5 -2.12,-15.5 -4.3,-30.99 -3.88,-46.69 0.15,-5.49 0.11,-11.07 1.09,-16.44 1.3,-7.1 3.47,-14.03 5.35,-21.02 1.02,-3.8 2,-7.63 4.19,-10.98 3.05,-4.66 5.35,-9.9 10.17,-13.17 1.21,-0.82 2.41,-1.81 4.45,-1.33 -0.47,0.69 -0.64,1.22 -0.98,1.38 -5.51,2.59 -8.29,7.55 -11.14,12.54 -4.27,7.47 -6.44,15.62 -8.08,23.97 -0.48,2.45 -1.1,4.89 -1.79,7.29 -1.64,5.71 -1.47,11.58 -1.68,17.42 -0.42,11.63 0.98,23.15 2.37,34.65 0.57,4.73 1.68,9.39 2.54,14.08 0.19,1.04 0.35,2.09 0.54,3.19 4.28,3.09 8.99,2.53 12.55,-1.32 5.22,-5.64 11.35,-8.85 19.36,-7.11 1.66,0.36 3.67,0.17 5.26,-0.45 4.17,-1.62 8.55,-3.09 12.17,-5.61 3.63,-2.53 6.49,-6.2 9.54,-9.51 0.75,-0.81 0.94,-2.15 1.48,-3.47 -6.03,-1.75 -7.09,-6.5 -7.31,-11.72 -0.09,-2.15 -0.06,-4.31 -0.04,-6.46 0.01,-1.11 0.01,-2.17 -1.2,-2.74 -5.76,-2.75 -10.38,-7.02 -15.18,-11.67 -2.24,2.01 -4.4,3.95 -6.72,6.03 -3.33,-4.72 -6.79,-8.96 -8.87,-14.06 -0.8,-1.97 -1.61,-4.01 -1.93,-6.1 -0.81,-5.3 -2.19,-10.5 -2.05,-15.96 0.17,-7.01 3.29,-12.35 8.64,-16.43 2.45,-1.87 5.5,-2.09 8.57,-1.68 4.59,0.61 8.62,2.57 12.47,5.02 0.35,0.22 0.72,0.42 1.65,0.2 -1,-1.95 -1.92,-3.95 -3.05,-5.82 -0.39,-0.64 -1.24,-1.15 -1.98,-1.41 -4.8,-1.69 -9.59,-3.43 -14.48,-4.85 -1.64,-0.48 -3.54,-0.15 -5.31,-0.06 -1.37,0.06 -2.73,0.32 -4.1,0.18 4.01,-1.28 7.75,-2.7 12.18,-0.28 3.55,1.94 7.9,2.5 11.95,3.44 2.98,0.69 6.04,1.33 9.09,1.45 6.37,0.25 12.33,-4.27 13.27,-11.93 0.1,-0.81 0.22,-1.62 0.33,-2.42 3.14,0.02 3.59,-0.41 4.55,-3.24 0.68,-2.01 1.6,-3.94 2.5,-5.87 0.95,-2.04 0.77,-2.59 -1.35,-3.45 -3.22,-1.3 -3.63,-2.15 -3.16,-5.7 0.37,-2.81 0.55,-5.65 0.83,-8.55 -5.47,-1.73 -10.59,-3.34 -15.7,-4.96 -0.14,0.18 -0.29,0.36 -0.43,0.54 1.42,1.78 2.83,3.56 4.39,5.51 -2.77,1.49 -5,-1.04 -7.99,-0.94 2.29,2.59 2.65,5.26 2.28,8.01 -0.28,2.07 -1.02,3.94 -3.56,4.15 l 0.07,0.07 c 2.67,-4.46 2.54,-8.72 -0.87,-12.76 -0.04,-0.05 0.05,-0.22 0.21,-0.78 2.25,0.44 4.56,0.88 6.87,1.33 0.14,-0.18 0.28,-0.35 0.42,-0.53 -1.77,-2.21 -3.54,-4.42 -5.81,-7.26 1.5,0.15 2.35,-0.01 2.92,0.32 4.05,2.31 8.43,3.76 12.92,4.84 1.69,0.41 3.46,0.46 5.51,0.71 -1.26,-4.3 -4.29,-6.47 -7.33,-8.47 -7.16,-4.72 -15.21,-6.76 -23.68,-6.8 -4.03,-0.02 -8.09,0.67 -11.71,2.74 -1.37,0.78 -2.58,1.83 -4.24,2.43 0.33,-0.49 0.6,-1.03 1,-1.45 2.42,-2.49 5.48,-3.76 8.81,-4.38 8.8,-1.65 17.27,-0.11 25.37,3.3 3.91,1.65 7.64,3.96 10.43,7.27 1.56,1.85 2.5,4.22 3.85,6.59 -1.11,0.47 -1.71,0.73 -2.58,1.1 0,3.7 0,7.51 0,11.51 2.3,0.76 4.81,1.45 5.37,4.78 -2.24,2.34 -3.86,5.25 -4.37,8.82 -0.34,2.37 -1.06,2.62 -4.25,2.88 -0.32,4.83 -2.27,8.59 -6.41,11.63 -4.06,2.98 -8.39,2.53 -13.24,2.38 0.79,1.86 1.85,3.25 1.89,4.68 0.13,4.08 3.2,6.05 5.47,8.66 1.95,2.24 3.79,4.58 5.5,7.01 0.87,1.24 1.52,2.5 3.68,1.67 -0.02,0.27 -0.04,0.53 -0.06,0.8 -1.28,1.42 -2.56,2.83 -3.86,4.28 2.84,2.63 5.51,5.09 8.31,7.69 3.16,-2.01 5.12,-5.16 7.44,-7.92 1.68,-1.99 2.91,-4.34 4.46,-6.45 2.17,-2.95 4.38,-5.87 6.68,-8.72 3.17,-3.93 3.4,-8.21 1.78,-12.78 -0.15,-0.43 -0.42,-0.83 -0.66,-1.29 0.44,-0.65 0.71,-1.44 1.26,-1.79 2.12,-1.36 2.89,-3.42 3.15,-5.74 0.14,-1.22 0.09,-2.53 1.52,-2.92 1.54,-0.42 2.45,0.5 3.07,1.82 0.25,0.52 0.6,1 1.04,1.71 2.12,-2.46 1.94,-5.45 2.59,-8.12 0.67,-2.75 1.06,-5.56 1.61,-8.56 1.38,0.48 2.59,0.89 4.25,1.47 -1.08,3.93 -2.14,7.77 -3.18,11.55 3.82,2 3.82,2 2.93,5.61 0.88,1.23 1.63,2.36 2.48,3.42 0.38,0.48 0.9,0.96 1.46,1.17 1.67,0.63 3.07,1.3 2.69,3.55 -0.08,0.49 0.53,1.15 0.93,1.66 2.03,2.62 1.69,5.56 -1.18,7.29 -1.76,1.06 -2.56,2.38 -3.23,4.31 -1.52,4.36 -4.04,8.04 -8.69,9.8 -1.4,0.53 -2.6,1.56 -3.18,3.18 -2.15,6 -5.69,11.27 -9.15,16.52 -3.07,4.66 -6.71,8.95 -10.11,13.39 -2.69,3.51 -6.22,5.63 -10.45,6.95 -3.45,1.08 -6.66,1.45 -9.99,-0.19 -0.93,-0.46 -2.02,-0.58 -3.1,-0.87 -1.26,1.67 -1.39,3.52 -1.06,5.22 0.49,2.56 1.39,5.05 2.13,7.57 0.6,2.05 1.92,3.14 4.06,3.51 1.16,0.2 2.22,0.93 3.71,1.6 6.29,-4.41 14.14,-6.72 21.71,-9.73 6.73,-2.68 13.47,-5.28 20.63,-6.42 3.63,-0.58 7.19,-0.12 10.58,1.96 4.93,3.03 8.85,7.16 13.11,10.93 4.09,3.62 8.16,7.28 12.28,10.97 2.29,-0.99 4.43,-1.91 6.78,-2.94 -1.76,-3.92 -3.41,-7.57 -5.04,-11.23 -2.68,-5.98 -5.57,-11.88 -7.97,-17.97 -2.13,-5.42 -3.72,-11.05 -5.56,-16.58 -1.38,-4.17 -2.7,-8.36 -4.19,-12.49 -1.36,-3.78 -1.53,-7.7 -1.77,-11.65 -0.33,-5.28 -0.38,-5.2 4.55,-6.96 4.91,-1.75 9.71,-3.79 14.65,-5.44 2.55,-0.85 5.28,-1.16 7.94,-1.64 4.78,-0.87 9.54,-1.94 14.36,-2.48 5.8,-0.65 11.61,-0.97 17,2.28 5.87,3.55 6.85,8.49 5.48,13.76 -0.56,2.16 -1.71,4.18 -2.72,6.19 -2.18,4.31 -3.96,8.64 -3.35,13.68 0.26,2.18 0.96,4.04 2.56,5.34 2.29,1.86 4.72,3.6 7.27,5.07 2.55,1.47 5.36,2.51 8.02,3.8 6,2.92 10.99,7.06 14.86,12.53 1.51,2.13 3.1,4.2 4.84,6.54 0.75,-0.23 1.66,-0.43 2.5,-0.77 7.9,-3.25 15.76,-6.58 23.69,-9.76 5.96,-2.4 12.02,-4.55 17.99,-6.93 7.16,-2.87 14.27,-5.88 21.41,-8.8 1.88,-0.77 3.81,-1.4 5.69,-2.16 11.46,-4.63 22.89,-9.31 34.36,-13.89 8.7,-3.48 17.47,-6.77 26.16,-10.26 11.23,-4.51 22.42,-9.16 33.63,-13.72 11.65,-4.75 23.31,-9.5 34.98,-14.19 9.67,-3.89 19.39,-7.66 29.06,-11.56 8.34,-3.37 16.6,-6.92 24.95,-10.27 8.26,-3.31 16.58,-6.46 24.87,-9.71 7.52,-2.94 15.02,-5.91 22.54,-8.87 9.05,-3.56 18.12,-7.09 27.15,-10.7 4.06,-1.62 8.01,-3.51 12.09,-5.08 4.61,-1.77 8.7,-4.7 13.54,-5.94 1.31,-0.33 1.89,-1.25 1.81,-2.69 -0.21,-3.82 -0.33,-7.64 -0.49,-11.46 -0.02,-0.47 -0.3,-0.99 -0.18,-1.4 0.53,-1.77 0.29,-3.21 -1.3,-3.71 8.02,-7.88 15.85,-15.58 24.02,-23.61 1.13,1.14 2.51,2.39 3.73,3.78 5.63,6.43 11.25,12.87 16.78,19.39 0.94,1.1 1.43,2.58 2.11,3.87 2.99,-1.11 6.19,-2.31 9.41,-3.48 7.12,-2.6 14.22,-1.97 21.4,-0.09 2.82,0.74 4.62,2.5 6,4.71 2.3,3.66 3.82,7.7 3.97,12.09 0.22,6.89 -3.11,12.44 -9.63,15.25 -4.68,2.02 -9.2,4.38 -13.85,6.46 -4.98,2.22 -10.04,4.28 -15.05,6.42 -0.32,0.14 -0.59,0.38 -1.38,0.91 0,6.98 -0.19,14.26 0.04,21.53 0.39,12.08 1.18,24.14 1.56,36.22 0.39,12.21 0.41,24.42 0.78,36.63 0.23,7.77 0.95,15.53 1.17,23.3 0.39,14.23 0.4,28.48 0.9,42.71 0.39,11.22 1.42,22.42 1.87,33.64 0.3,7.41 0.29,14.85 0.01,22.27 -0.23,6.22 -0.74,5.01 -5.2,4.99 -11.22,-0.04 -22.43,-0.27 -33.65,-0.41 -1.42,-0.02 -2.84,0 -4.52,0 -0.15,-0.66 -0.44,-1.44 -0.47,-2.22 -0.29,-7.53 -0.6,-15.05 -0.78,-22.58 -0.19,-7.64 -0.16,-15.29 -0.36,-22.94 -0.44,-16.51 -0.82,-33.03 -1.52,-49.53 -0.38,-8.95 -1.01,-17.92 -2.16,-26.79 -1.31,-10.04 -0.59,-20.05 -0.66,-30.08 -0.08,-11.12 -0.57,-22.24 -1.03,-33.35 -0.21,-5.1 -0.75,-10.19 -1.18,-15.82 -1.97,0.85 -3.63,1.59 -5.31,2.29 -8.56,3.56 -17.1,7.18 -25.7,10.63 -5.82,2.34 -11.77,4.37 -17.62,6.64 -5.73,2.23 -11.41,4.59 -17.11,6.88 -6.37,2.57 -12.74,5.15 -19.12,7.69 -7.49,2.98 -15.03,5.86 -22.5,8.9 -9,3.66 -17.96,7.42 -26.93,11.15 -9.29,3.86 -18.56,7.78 -27.89,11.55 -1.72,0.7 -3.67,0.83 -5.51,1.23 0,0 0.06,0.1 0.06,0.1 1.89,-0.96 3.72,-2.06 5.68,-2.86 11.3,-4.64 22.65,-9.18 33.95,-13.81 13.08,-5.36 26.14,-10.79 39.21,-16.19 5.6,-2.31 11.17,-4.71 16.8,-6.94 10.17,-4.02 20.4,-7.88 30.56,-11.92 4.51,-1.79 8.77,-4.38 13.4,-5.67 8.31,-2.31 15.78,-6.58 23.81,-9.48 2.73,-0.99 4.88,-2.91 4.21,-6.5 -0.26,-1.39 -0.08,-2.87 -0.11,-4.3 -0.11,-5.98 -0.25,-11.96 -0.32,-17.94 -0.05,-4.64 -0.01,-9.27 -0.01,-14.51 -1.75,0.82 -2.88,1.41 -4.04,1.89 -8.64,3.61 -17.27,7.24 -25.94,10.79 -7.25,2.97 -14.52,5.89 -21.81,8.74 -8.63,3.38 -17.34,6.57 -25.95,10 -8.82,3.51 -17.55,7.23 -26.34,10.81 -7.15,2.91 -14.32,5.74 -21.48,8.6 -6.94,2.78 -13.87,5.58 -20.81,8.34 -9.83,3.91 -19.69,7.73 -29.5,11.7 -8.24,3.33 -16.39,6.89 -24.63,10.22 -12.11,4.91 -24.27,9.71 -36.41,14.55 -14.67,5.84 -29.35,11.66 -44.01,17.52 -10.92,4.36 -21.84,8.74 -32.73,13.16 -9.46,3.84 -18.87,7.81 -28.33,11.63 -12.11,4.89 -24.3,9.56 -36.36,14.56 -6.79,2.82 -13.77,5.17 -20.18,8.93 -3.55,2.09 -7.64,3.27 -11.51,4.81 -9.9,3.94 -19.81,7.85 -29.71,11.79 -1.05,0.42 -2.05,0.95 -2.93,1.37 6.68,11.87 13.19,23.45 19.54,34.74 2.05,-0.63 3.76,-1.03 5.37,-1.68 6.95,-2.77 13.91,-5.51 20.79,-8.45 6.65,-2.85 13.14,-6.1 19.82,-8.88 13.4,-5.58 26.89,-10.93 40.32,-16.43 9.44,-3.87 18.83,-7.86 28.27,-11.73 8.68,-3.56 17.39,-7.06 26.11,-10.53 3.51,-1.4 7.09,-2.63 10.64,-3.93 z m -237.18,-34.4 c -0.39,-0.24 -0.85,-0.4 -1.15,-0.72 -2.59,-2.79 -5.12,-5.62 -7.71,-8.4 -1.13,-1.22 -2.34,-2.37 -4.28,-2.42 -5.39,4.92 -10.8,9.86 -16.56,15.12 3.55,2.87 6.62,5.64 9.99,7.98 2.92,2.02 6.06,3.81 9.32,5.2 2.56,1.09 5.25,2.51 8.25,1.81 4.59,-1.07 8.87,-2.78 11.97,-6.59 3.22,-3.95 6.85,-7.53 9.51,-11.99 3.52,-5.92 7.27,-11.7 9.85,-18.12 0.73,-1.82 1.75,-3.27 3.66,-4.08 5.93,-2.49 9.36,-8.1 8.87,-14.4 -0.06,-0.78 -0.18,-1.88 -0.68,-2.23 -2.15,-1.51 -2.78,-4.72 -5.89,-4.89 0.89,-3.13 1.65,-5.96 2.51,-8.76 0.39,-1.26 0.57,-2.3 -1.45,-2.79 -0.89,3.9 -1.97,7.66 -2.56,11.49 -0.38,2.47 -1.49,4.08 -3.66,5.38 -0.91,-0.78 -1.79,-1.52 -2.64,-2.25 3.73,-5.59 3.91,-9.8 0.74,-14.49 -1.37,2.78 -2.74,5.58 -4.37,8.9 1.5,2.6 1.35,5.92 0.4,9.42 -0.52,1.91 -0.46,4.03 -0.37,6.04 0.08,1.74 -0.2,3.25 -1.11,4.75 -3.38,5.59 -6.8,11.16 -9.96,16.87 -2.56,4.62 -6.52,7.84 -10.33,11.24 -0.47,0.42 -1.23,0.52 -2.12,0.87 -0.15,-1.2 -0.26,-2.12 -0.37,-3.05 1.39,0.55 2.69,0.67 3.87,-0.53 1.83,-1.86 4.14,-3.42 5.49,-5.58 4.41,-7.04 8.47,-14.29 12.67,-21.46 0.73,-1.25 0.43,-2.28 -0.9,-3.28 -0.76,0.83 -1.61,1.63 -2.31,2.55 -4.59,6.06 -9.14,12.15 -13.73,18.21 -1.05,1.39 -1.98,3.04 -4.21,2.82 -2.58,-3.24 -5.17,-6.49 -9.29,-8.63 -0.77,0.8 -1.57,1.63 -2.42,2.52 0.63,0.76 1.05,1.33 1.53,1.84 2.76,2.95 5.59,5.83 8.27,8.85 0.65,0.7 0.8,1.85 1.17,2.8 z M 721.4,301.6 c 0,-2.07 -0.06,-3.97 0.01,-5.86 0.51,-13.89 -0.49,-27.74 -0.97,-41.6 -0.33,-9.57 -0.57,-19.14 -0.81,-28.71 -0.22,-8.61 -0.33,-17.22 -0.6,-25.82 -0.15,-4.9 -0.63,-9.79 -0.78,-14.69 -0.21,-6.82 -0.24,-13.64 -0.37,-20.46 -0.19,-9.69 -0.21,-19.39 -0.66,-29.07 -0.38,-8.32 -1.44,-16.61 -1.86,-24.94 -0.27,-5.48 0.02,-10.99 0.13,-16.49 0.1,-5.02 0.56,-10.04 0.4,-15.04 -0.43,-13.47 -1.11,-26.93 -1.71,-40.39 -0.01,-0.19 -0.27,-0.37 -0.73,-0.94 -12.99,-0.18 -26.3,-0.36 -39.75,-0.55 -0.21,1.23 -0.52,2.15 -0.49,3.07 0.08,2.62 0.41,5.23 0.43,7.84 0.07,8.14 -0.13,16.28 0.09,24.41 0.32,11.89 0.96,23.77 1.38,35.65 0.63,17.94 1.14,35.87 1.78,53.81 0.3,8.34 0.65,16.68 1.25,24.99 0.34,4.76 1.09,9.46 1,14.28 -0.08,4.25 0.74,8.51 0.85,12.78 0.5,18.76 0.85,37.53 1.33,56.29 0.22,8.83 0.6,17.65 0.92,26.47 0.06,1.63 0.22,3.25 0.33,4.98 13.08,-0.01 25.82,-0.01 38.83,-0.01 z M 312.8,199.9 c -0.35,-1.03 -0.41,-1.4 -0.59,-1.7 -5.32,-8.69 -12.61,-15 -22.08,-18.86 -3.04,-1.24 -6,-2.85 -8.73,-4.69 -4.56,-3.08 -7.3,-9.54 -5.41,-15.1 1.35,-3.98 2.93,-7.78 5.01,-11.42 4.43,-7.76 0.24,-13.65 -6.76,-15.95 -4.61,-1.52 -9.61,-1.74 -14.51,-0.81 -6.3,1.2 -12.71,1.99 -18.86,3.72 -6.37,1.78 -12.49,4.46 -18.78,6.77 0,5.23 0,9.99 1.52,14.6 0.81,2.46 1.61,4.93 2.42,7.39 2.08,6.34 3.89,12.8 6.32,19 3.61,9.19 7.58,18.25 11.6,27.27 0.89,2 1.33,4.76 5.27,4.84 -2.08,1.35 -1.84,2.47 -1.06,3.69 1.33,2.11 2.57,4.26 3.99,6.64 6.74,-2.97 13.43,-6.03 20.21,-8.88 6.66,-2.79 13.51,-5.14 20.1,-8.1 6.65,-2.97 13.71,-4.99 20.34,-8.41 z M 156.78,155.13 c -1.02,-1.93 -1.61,-3.52 -2.6,-4.8 -1.88,-2.44 -3.86,-4.82 -6.02,-7 -4.75,-4.78 -10.17,-8.62 -16.74,-10.39 -2.98,-0.8 -6.18,-1.11 -8.94,0.86 -1.13,0.81 -1.87,2.14 -2.97,3 -3.95,3.14 -5.56,7.38 -5.42,12.22 0.11,3.68 0.89,7.33 1.16,11.01 0.56,7.79 3.84,14.41 8.41,20.52 0.61,0.81 1.29,1.58 1.94,2.37 10.44,-9.3 20.61,-18.37 31.18,-27.79 z M 717.96,79.81 c 0.89,-0.16 1.49,-0.18 2.02,-0.39 6.73,-2.62 13.45,-5.26 20.16,-7.92 0.42,-0.17 0.77,-0.52 1.17,-0.76 1.91,-1.16 3.82,-2.33 5.74,-3.47 3.35,-1.97 6.1,-4.31 7.44,-8.26 1.71,-5.05 0.5,-9.59 -1.38,-14.21 -1.52,-3.73 -4.23,-6.05 -8.05,-6.91 -2.65,-0.6 -5.39,-0.94 -8.1,-1.1 -7.65,-0.46 -14.35,2.44 -21,5.99 0.67,12.36 1.33,24.49 2,37.03 z m -428.6,225.95 c 0.08,-0.35 0.15,-0.69 0.23,-1.04 -3.48,-0.83 -5.93,-3.21 -8.69,-5.14 -1.01,-0.7 -2.43,-1.03 -3.69,-1.11 -1.33,-0.08 -2,-0.56 -2.87,-1.59 -2.26,-2.68 -4.31,-6.06 -8.5,-4.71 -1.99,-2.81 -2.73,-6.38 -6.88,-6.3 -0.5,0.01 -1.04,-0.89 -1.53,-1.4 -2.75,-2.9 -7.03,-3.67 -10.33,-1.49 -5.15,3.4 -10.27,6.79 -14.55,11.4 -2.68,2.89 -4.09,5.92 -3.15,9.66 0.53,2.12 1.6,4.24 2.94,5.98 0.7,0.91 2.5,0.92 3.78,1.42 2.45,0.94 4.95,0.47 7.42,0.23 8.41,-0.83 16.82,-1.68 25.22,-2.62 4.01,-0.45 8,-1.11 11.99,-1.74 2.88,-0.46 5.74,-1.03 8.61,-1.55 z m -39.88,-32.48 c 0.98,1.89 1.76,3.49 2.64,5.03 0.4,0.71 0.94,1.83 1.49,1.88 3.51,0.29 5,4.32 8.63,4.48 0.88,0.04 1.79,1.45 2.52,2.36 0.74,0.92 1.27,2 1.91,3.05 2.89,-0.23 5.24,0.63 7.03,2.86 0.72,0.89 1.63,1 2.84,0.86 11.01,-1.21 21.71,-3.72 32.17,-7.34 1.38,-0.48 2.74,-1.05 4.75,-1.83 -2.79,-2.97 -6.23,-4.43 -11.45,-3.27 -2.69,-3.18 -2.69,-3.18 -8.09,-3.59 -1.46,-2.06 -2.53,-4.65 -5.48,-5.15 -2.74,-0.46 -5.62,-0.53 -6.73,-3.93 -0.21,-0.63 -1.24,-1.14 -1.99,-1.43 -3.46,-1.32 -6.99,-2.44 -10.74,-1.5 -2.3,0.58 -4.57,1.31 -6.77,2.18 -4.18,1.66 -8.29,3.47 -12.73,5.34 z M 88.66,290.1 c 0.74,0 1.13,0.1 1.44,-0.01 9.37,-3.39 18.78,-6.68 28.08,-10.23 8.09,-3.09 16.07,-6.5 24.1,-9.75 7.69,-3.12 15.4,-6.18 23.07,-9.35 6.88,-2.84 13.74,-5.71 20.56,-8.7 1.96,-0.86 3.72,-2.2 5.88,-3.51 -2.1,-1.38 -3.71,-2.37 -5.25,-3.45 -1.31,-0.92 -2.52,-0.89 -3.99,-0.27 -9.84,4.15 -19.69,8.26 -29.58,12.29 -9,3.68 -18.05,7.24 -27.07,10.87 -9.46,3.8 -18.92,7.59 -28.35,11.46 -3.82,1.57 -7.55,3.35 -11.32,5.03 0.88,2.02 1.63,3.76 2.43,5.62 z m 107.93,-92.18 c 1.87,0.58 3.93,0.62 5,1.67 2.79,2.72 5.31,5.76 7.64,8.9 3.74,5.05 7.24,10.28 10.81,15.46 0.76,1.1 1.55,1.71 2.97,1.27 4.26,-1.3 8.32,-3.03 12.32,-5.19 -0.37,-0.55 -0.54,-0.87 -0.77,-1.12 -6.25,-6.66 -12.92,-12.85 -20.14,-18.45 -5.43,-4.21 -11.28,-5.52 -17.83,-2.54 z m 97.17,114.97 c -0.81,-5.15 -1.55,-5.73 -5.72,-5.11 -2.94,0.44 -5.87,0.85 -8.82,1.24 -5.78,0.76 -11.56,1.47 -17.34,2.23 -4.01,0.52 -8,1.2 -12.02,1.59 -5.31,0.52 -10.64,1.41 -15.99,0.14 -0.52,-0.12 -1.11,0.09 -2.29,0.2 0.72,1.43 1,2.84 1.86,3.51 1.27,0.99 2.89,1.81 4.47,2.1 5.52,0.99 11.11,1.53 16.71,0.71 8.94,-1.3 17.86,-2.7 26.78,-4.17 4.09,-0.67 8.13,-1.6 12.36,-2.44 z M 674.03,34.73 c 0.09,0.24 0.17,0.47 0.26,0.71 11.94,0 23.88,0 36.54,0 -5.9,-6.96 -11.36,-13.42 -16.94,-20 -6.83,6.58 -12.3,14.01 -19.86,19.29 z M 222.66,227.8 c 1.73,2.5 3.31,4.78 4.71,6.8 7.7,-2.95 14.9,-5.71 22.24,-8.52 -1.44,-2.93 -2.68,-5.47 -3.95,-8.04 -8.05,2.25 -15.26,5.98 -23,9.76 z m 92.61,58.48 c -6.77,1.97 -13.05,3.76 -19.31,5.62 -6.32,1.87 -13.1,1.71 -19.1,4.01 2.05,0.89 4.05,1.83 6.11,2.62 1.06,0.41 2.32,0.99 3.32,0.76 8.79,-2.01 17.55,-4.16 26.3,-6.33 1.68,-0.42 3.28,-1.14 5.3,-1.86 -0.95,-1.75 -1.72,-3.16 -2.62,-4.82 z m -110.48,-157 c -0.72,1.1 -1.34,2.06 -2.01,3.08 0.37,0.41 0.82,0.92 1.26,1.41 3.27,-1.84 3.49,-2.78 0.75,-4.49 z m 2.27,9.16 c 2.08,-1.63 2.13,-2.07 0.59,-4.33 -1.98,1.22 -1.72,2.68 -0.59,4.33 z m -5.21,-12.54 c -1.42,2.43 -1.42,2.43 -0.81,4.47 1.57,-1.64 1.57,-1.64 0.81,-4.47 z m -5.52,-2.32 c -0.2,-0.02 -0.41,-0.04 -0.61,-0.06 -0.47,2.21 -0.94,4.42 -1.41,6.63 0.25,0.05 0.51,0.09 0.76,0.14 0.42,-2.23 0.84,-4.47 1.26,-6.71 z m 2.91,-11.94 c -0.24,-0.11 -0.48,-0.21 -0.73,-0.32 -0.23,1.04 -0.45,2.07 -0.68,3.11 0.2,0.05 0.4,0.09 0.61,0.14 0.27,-0.98 0.53,-1.96 0.8,-2.93 z m -2.93,9.59 c 0.23,0.05 0.46,0.1 0.68,0.15 0.21,-0.99 0.43,-1.98 0.64,-2.97 -0.25,-0.05 -0.5,-0.11 -0.74,-0.16 -0.2,1 -0.39,1.99 -0.58,2.98 z"
       id="path85" /><path
       d="m 117.85,122.44 c -3.37,-0.62 -6.08,-2.49 -8.01,-5.26 -1.76,-2.53 -3.45,-5.21 -4.56,-8.06 -0.97,-2.51 -1.52,-5.35 -1.5,-8.05 0.04,-4.51 0.65,-9.02 1.08,-13.52 0.07,-0.68 0.45,-1.35 0.75,-1.99 1.63,-3.48 2.69,-6.96 -0.12,-10.19 0.89,-1.63 1.91,-1.67 3.14,-0.97 1.01,0.58 2.07,1.08 3.33,1.73 0.76,-2.5 1.46,-4.8 2.16,-7.1 0.24,-0.04 0.49,-0.07 0.73,-0.11 0.97,1.88 1.94,3.76 2.91,5.64 -0.2,0.16 -0.41,0.31 -0.61,0.47 -0.74,-0.87 -1.48,-1.74 -2.55,-3.01 -0.26,1.6 -0.41,2.86 -0.67,4.1 -0.38,1.81 -1.07,2.12 -2.71,1.22 -1,-0.54 -1.96,-1.16 -3.55,-2.11 0.28,1.31 0.31,1.89 0.53,2.36 0.93,2 0.66,3.88 -0.17,5.85 -2.07,4.87 -3.27,9.93 -3.23,15.29 0.06,6.77 2.77,12.46 6.74,17.67 1.29,1.7 2.9,3.11 5.17,3.61 0.7,0.16 1.24,1.06 1.86,1.62 -0.25,0.28 -0.48,0.54 -0.72,0.81 z"
       id="path87" /><path
       d="m 203.53,290.78 c -0.93,1.96 -3.04,2.01 -4.66,2.74 -5.71,2.55 -11.5,4.93 -17.29,7.3 -7.01,2.87 -14.05,5.67 -21.09,8.48 -0.28,0.11 -0.66,-0.06 -1.16,-0.12 0.11,-1.5 1.05,-1.99 2.2,-2.43 9.49,-3.66 18.96,-7.4 28.46,-11.03 4.5,-1.72 9.06,-3.25 13.6,-4.87 0.01,0 -0.06,-0.07 -0.06,-0.07 z"
       id="path89" /><path
       d="m 144.04,100.27 c -0.98,3.59 -1.96,7.18 -2.91,10.69 -2.05,0.13 -2.42,-1.27 -3.25,-2.23 -1.05,-1.23 -2.21,-2.63 -3.63,-3.21 -2.98,-1.23 -4.91,-0.16 -6.59,3.03 -2.46,4.7 -0.72,9.25 4.14,10.8 -1.62,1.09 -3.77,0.64 -4.86,-1.15 -2.76,-4.63 -1.59,-9.68 1.8,-13.42 1.57,-1.66 4.98,-1.81 6.95,-0.35 1.57,1.16 2.93,2.62 4.37,3.93 0.79,-2.22 1.57,-4.6 2.51,-6.92 0.2,-0.49 1.01,-0.73 1.54,-1.09 0,-0.01 -0.07,-0.08 -0.07,-0.08 z"
       id="path91" /><path
       d="m 504.55,167.11 c -0.93,0.65 -1.78,1.5 -2.81,1.91 -6.68,2.72 -13.41,5.29 -20.08,8.02 -3.71,1.51 -7.3,3.32 -11.01,4.82 -1.5,0.61 -3.19,0.74 -4.79,1.09 l 0.06,0.08 c 0.92,-0.65 1.76,-1.49 2.78,-1.91 8.84,-3.63 17.69,-7.23 26.58,-10.73 3.05,-1.21 6.22,-2.12 9.34,-3.17 -0.01,-0.01 -0.07,-0.11 -0.07,-0.11 z"
       id="path93" /><path
       d="m 465.86,182.95 c -0.47,0.47 -0.85,1.14 -1.41,1.38 -2.47,1.06 -5,1.97 -7.49,2.99 -4.75,1.95 -9.47,3.97 -14.25,5.86 -1.04,0.41 -2.25,0.37 -3.38,0.54 l 0.06,0.08 c 0.76,-0.52 1.45,-1.18 2.28,-1.55 6.85,-3.11 14.15,-5.16 20.8,-8.79 0.95,-0.52 2.29,-0.31 3.45,-0.44 0,0 -0.06,-0.07 -0.06,-0.07 z"
       id="path95" /><path
       d="m 422.79,200.16 c -0.05,2.13 -1.98,2.15 -3.25,2.71 -3.79,1.67 -7.62,3.27 -11.53,4.63 -2.64,0.91 -5.44,1.36 -8.17,2.02 0,0 0.13,0.11 0.13,0.11 0.7,-0.44 1.35,-0.97 2.1,-1.29 3.59,-1.52 7.19,-3.04 10.83,-4.45 3.31,-1.28 6.67,-2.41 10.01,-3.61 z"
       id="path97" /><path
       d="m 439.33,193.72 c -0.17,0.29 -0.28,0.75 -0.52,0.85 -3.55,1.47 -7.09,2.96 -10.69,4.28 -1.71,0.62 -3.55,0.88 -5.33,1.31 0,0 0.12,0.12 0.12,0.12 3.82,-1.72 7.61,-3.51 11.47,-5.11 1.58,-0.66 3.33,-0.92 5.01,-1.36 0,0 -0.06,-0.09 -0.06,-0.09 z"
       id="path99" /><path
       d="m 159.54,98.77 c -0.64,-0.17 -1.28,-0.34 -1.93,-0.52 0.04,-0.25 0.08,-0.5 0.12,-0.75 0.67,0.08 1.33,0.16 2,0.24 -0.06,0.34 -0.13,0.68 -0.19,1.03 z"
       id="path101" /><path
       class="st13"
       d="m 196.33,123.58 c -0.42,2.24 -0.84,4.48 -1.26,6.72 -0.25,-0.05 -0.51,-0.09 -0.76,-0.14 0.47,-2.21 0.94,-4.42 1.41,-6.63 0.2,0.01 0.4,0.03 0.61,0.05 z"
       id="path103" /><path
       class="st13"
       d="m 199.24,111.64 c -0.27,0.98 -0.53,1.95 -0.8,2.93 -0.2,-0.05 -0.4,-0.09 -0.61,-0.14 0.23,-1.04 0.45,-2.07 0.68,-3.11 0.24,0.1 0.48,0.21 0.73,0.32 z"
       id="path105" /><path
       class="st13"
       d="m 196.31,121.23 c 0.19,-0.99 0.39,-1.99 0.58,-2.98 0.25,0.05 0.5,0.11 0.74,0.16 -0.21,0.99 -0.43,1.98 -0.64,2.97 -0.23,-0.05 -0.46,-0.1 -0.68,-0.15 z"
       id="path107" /><path
       d="m 248.83,166.57 c -1.09,-0.58 -3.01,-1.05 -4.03,-2.28 -1.39,-1.66 -2.42,-3.81 -3.03,-5.91 -1.04,-3.61 4.24,-8.88 8.91,-7.13 2.62,0.98 4.75,2.65 6.08,5.14 1.01,1.89 1.06,3.75 -0.3,5.68 -1.77,2.48 -4.08,3.85 -7.63,4.5 z m -5.47,-8.83 c -0.05,3.29 2.69,6.88 5.37,7.04 2.36,0.14 6.6,-3.22 6.77,-5.36 0.21,-2.67 -3.78,-6.69 -6.73,-6.79 -2.44,-0.08 -5.37,2.69 -5.41,5.11 z"
       id="path109" /><ellipse
       cx="158.91"
       cy="98.270004"
       rx="1.35"
       ry="1.36"
       id="ellipse111" /><polygon
       points="193.31,129.44 198.44,106.12 196.58,105.55 190.74,130.44 "
       id="polygon113"
       transform="translate(2.09,2.51)" /><polygon
       class="st5"
       points="253.45,214.98 249.6,204.11 241.87,207.61 246.75,217.41 "
       id="polygon115"
       transform="translate(2.09,2.51)" /><path
       class="st14"
       d="m 317.9,301.02 -29.18,-0.54 -2.07,0.65 c 0.59,0.14 4.53,2.46 6.33,4.89 2.09,2.83 2.67,5.83 2.48,6.58 l 22.88,-0.21 z"
       id="path117" /><path
       class="st14"
       d="m 226.82,301.02 c 0.07,1.25 0.28,2.88 0.86,4.72 0.52,1.67 1.2,3.01 1.8,4.02 l 0.56,3.06 -93.21,1.93 -0.21,-11.37 16.89,-0.21 3.21,7.08 21.38,-7.94 z"
       id="path119" /></g></g></svg>
