<?xml version="1.0" encoding="UTF-8" standalone="no"?>
<svg
   version="1.1"
   id="svg2"
   xml:space="preserve"
   width="900.34808"
   height="366.03925"
   viewBox="0 0 900.34809 366.03925"
   sodipodi:docname="teeter-header.svg"
   inkscape:version="1.1.2 (0a00cf5339, 2022-02-04)"
   xmlns:inkscape="http://www.inkscape.org/namespaces/inkscape"
   xmlns:sodipodi="http://sodipodi.sourceforge.net/DTD/sodipodi-0.dtd"
   xmlns="http://www.w3.org/2000/svg"
   xmlns:svg="http://www.w3.org/2000/svg"><sodipodi:namedview
     id="namedview101"
     pagecolor="#ffffff"
     bordercolor="#666666"
     borderopacity="1.0"
     inkscape:pageshadow="2"
     inkscape:pageopacity="0.0"
     inkscape:pagecheckerboard="0"
     showgrid="true"
     fit-margin-top="0"
     fit-margin-left="0"
     fit-margin-right="0"
     fit-margin-bottom="0"
     inkscape:zoom="1"
     inkscape:cx="494"
     inkscape:cy="291"
     inkscape:window-width="1904"
     inkscape:window-height="995"
     inkscape:window-x="1208"
     inkscape:window-y="645"
     inkscape:window-maximized="0"
     inkscape:current-layer="svg2"
     showguides="true"
     inkscape:guide-bbox="true"
     objecttolerance="10000"><sodipodi:guide
       position="-305.01798,1042.9454"
       orientation="1,0"
       id="guide956" /><inkscape:grid
       type="xygrid"
       id="grid1046"
       originx="-331.59224"
       originy="-317.87589" /></sodipodi:namedview><defs
     id="defs6"><linearGradient
       x1="0"
       y1="0"
       x2="1"
       y2="0"
       gradientUnits="userSpaceOnUse"
       gradientTransform="matrix(0,240.27089,240.27089,0,367.52734,350.50949)"
       spreadMethod="pad"
       id="linearGradient30"><stop
         style="stop-opacity:1;stop-color:#ffffff"
         offset="0"
         id="stop22" /><stop
         style="stop-opacity:1;stop-color:#00aeef"
         offset="0.68314877"
         id="stop24" /><stop
         style="stop-opacity:1;stop-color:#00aeef"
         offset="1"
         id="stop26" /><stop
         style="stop-opacity:1;stop-color:#00aeef"
         offset="1"
         id="stop28" /></linearGradient><clipPath
       clipPathUnits="userSpaceOnUse"
       id="clipPath132"><path
         d="M 0,612 H 792 V 0 H 0 Z"
         id="path130" /></clipPath></defs><g
     id="g10"
     transform="matrix(1.4445511,0,0,-1.4566946,-80.539347,865.59589)"><g
       id="g12"
       transform="matrix(1.0092527,0,0,1.0092527,-3.9817221,-3.2431841)"><g
         id="g18"><g
           id="g20"><path
             d="m 58.781743,352.47289 v 240.1078 H 676.7867 l 0,-225.14358 -151.5817,-3.48311 -57.802,-7.963 -85.277,6.684 -62.12,-9.339 -35.993,1.834 -2.288,2.773 24.252,7.757 -3.434,5 -28.65,-7.089 -36.762,-10.226 -113.474,-2.876 z"
             style="fill:url(#linearGradient30);stroke:none"
             id="path32"
             sodipodi:nodetypes="cccccccccccccccc" /></g></g></g></g><g
     id="g34"
     transform="matrix(1.4522673,0,0,-1.4522673,333.81666,342.68701)"><path
       d="M 0,0 -8.406,0.355 -2.931,-3.71 -0.94,-7.774 Z"
       style="fill:#009444;fill-opacity:1;fill-rule:nonzero;stroke:none"
       id="path36" /></g><g
     id="g46"
     transform="matrix(1.4522673,0,0,-1.4522673,256.19747,268.80886)"><path
       d="m 0,0 306.248,121.659 10.618,4.645 69.677,25.88 c 0,-0.332 19.208,7.068 23.889,-8.848 3.318,-11.281 -6.857,-15.263 -11.281,-16.59 L 15.705,-30.304 Z"
       style="fill:#bf1e2d;fill-opacity:1;fill-rule:nonzero;stroke:none"
       id="path48" /></g><g
     id="g50"
     transform="matrix(1.455188,0,0,-1.4522673,897.75766,333.93012)"><path
       d="M 1.8211393,-0.82215581 C -49.116575,-0.68743895 -100.31229,-0.46671687 -151.25,-0.332 l -57.803,-7.963 -85.276,6.685 -62.121,-9.339 -32.109,0.38"
       style="fill:none;stroke:#009444;stroke-width:9;stroke-linecap:butt;stroke-linejoin:miter;stroke-miterlimit:10;stroke-dasharray:none;stroke-opacity:1"
       id="path52"
       sodipodi:nodetypes="cccccc" /></g><g
     id="g54"
     transform="matrix(1.4522673,0,0,-1.4522673,757.16841,45.869566)"><path
       d="M 0,0 17.696,16.369 32.958,1.106 39.373,-205.714 H 7.963 L 3.097,-85.161 1.438,-42.028 Z"
       style="fill:#1b75bc;fill-opacity:1;fill-rule:nonzero;stroke:none"
       id="path56" /></g><g
     id="g58"
     transform="matrix(1.4522673,0,0,-1.4522673,283.18147,258.6899)"><path
       d="m 0,0 c -7.091,10.817 -11.281,24.553 -19.386,43.038 -1.512,3.449 -1.408,7.245 -1.85,10.676 l -1.178,11.292 c 5.552,3.948 16.11,6.33 30.611,9.47 4.064,0.88 14.23,-1.03 16.356,-6.458 2.187,-5.581 -5.456,-11.234 -3.629,-21.314 1.97,-10.87 9.912,-6.383 22.21,-18.169 3.152,-3.022 5.476,-5.757 6.927,-7.567 z"
       style="fill:#f9ed32;fill-opacity:1;fill-rule:nonzero;stroke:none"
       id="path60" /></g><g
     id="g62"
     transform="matrix(1.4522673,0,0,-1.4522673,289.73715,183.22472)"><path
       d="m 0,0 c 0,-2.82 -2.422,-5.105 -5.409,-5.105 -2.987,0 -5.409,2.285 -5.409,5.105 0,2.82 2.422,5.105 5.409,5.105 C -2.422,5.105 0,2.82 0,0"
       style="fill:#1b75bc;fill-opacity:1;fill-rule:nonzero;stroke:none"
       id="path64" /></g><g
     id="g66"
     transform="matrix(1.4522673,0,0,-1.4522673,96.702654,321.81313)"><path
       d="M 0,0 76.977,29.862 84.055,25.659 2.654,-8.295 Z"
       style="fill:#1b75bc;fill-opacity:1;fill-rule:nonzero;stroke:none"
       id="path68" /></g><g
     id="g70"
     transform="matrix(1.458962,0,0,-1.458962,258.60679,349.75181)"><path
       d="m 0,0 -117.43,-2.703 -57.77224,1.2836341 -1.43852,0.031962 -0.51324,0.011404"
       style="fill:none;stroke:#009444;stroke-width:9;stroke-linecap:butt;stroke-linejoin:miter;stroke-miterlimit:10;stroke-dasharray:none;stroke-opacity:1"
       id="path72"
       sodipodi:nodetypes="ccccc" /></g><g
     id="g74"
     transform="matrix(1.4522673,0,0,-1.4522673,770.02664,336.0606)"><path
       d="M 0,0 -6.528,18.885 -4.43,5.829 -13.29,15.388 -6.761,4.43 -17.253,7.461 Z"
       style="fill:#009444;fill-opacity:1;fill-rule:nonzero;stroke:none"
       id="path76" /></g><g
     id="g78"
     transform="matrix(1.4522673,0,0,-1.4522673,770.02664,336.0606)"><path
       d="M 0,0 -6.528,18.885 -4.43,5.829 -13.29,15.388 -6.761,4.43 -17.253,7.461 0,0"
       style="fill:none;stroke:#009444;stroke-width:0.527;stroke-linecap:butt;stroke-linejoin:miter;stroke-miterlimit:10;stroke-dasharray:none;stroke-opacity:1"
       id="path80" /></g><g
     id="g82"
     transform="matrix(1.4522673,0,0,-1.4522673,821.61074,321.8278)"><path
       d="M 0,0 11.258,13.535 2.963,-1.981 16.295,2.311 -5.629,-8.253"
       style="fill:#009444;fill-opacity:1;fill-rule:nonzero;stroke:#009444;stroke-width:0.707;stroke-linecap:butt;stroke-linejoin:miter;stroke-miterlimit:10;stroke-dasharray:none;stroke-opacity:1"
       id="path84" /></g><g
     id="g86"
     transform="matrix(1.4522673,0,0,-1.4522673,150.67079,214.51962)"><path
       d="m 0,0 0.468,10.016 7.495,14.316 8.29,-3.477 8.742,-4.486 15.152,18.58 1.328,5.973 -0.332,4.977 3.318,6.304 2.544,-3.318 -0.56,-5.764 1.666,-0.872 2.764,10.396 2.212,-1.217 -0.331,-2.543 3.207,-3.982 1.659,-2.544 1.991,-3.76 L 56.848,35.945 51.65,27.097 47.005,24.885 40.147,10.728 28.203,-3.539 19.576,-6.525 Z"
       style="fill:#ebc19c;fill-opacity:1;fill-rule:nonzero;stroke:none"
       id="path88" /></g><g
     id="g90"
     transform="matrix(1.4522673,0,0,-1.4522673,185.91427,95.097216)"><path
       d="m 0,0 0.285,-14.877 c 1.766,-1.512 4.674,-2.218 4.203,-3.318 -0.332,-0.774 -0.859,-2.518 -1.77,-3.76 l -1.804,-4.81 -2.823,-0.264 -1.566,-6.429 -5.751,-4.755 -7.964,-0.111 -8.275,-6.2 -14.277,16.154 10.865,5.55 -3.896,7.018 5.324,4.967 6.08,-6.848 7.635,7.851 -2.075,8.123 7.614,5.493 z"
       style="fill:#ebc19c;fill-opacity:1;fill-rule:nonzero;stroke:none"
       id="path92" /></g><g
     id="g94"
     transform="matrix(1.4522673,0,0,-1.4522673,179.74272,101.60439)"><path
       d="M 0,0 C 0.398,-0.169 6.181,-1.054 6.194,-0.885 6.312,0.692 4.472,2.948 2.342,5.242 0.29,7.45 -3.613,9.775 -13.382,11.502 -27.31,13.965 -26.433,9.843 -31.299,7.631 c -0.835,-0.379 -2.349,4.92 -3.208,4.645 -0.701,-0.224 -1.107,-5.129 -1.769,-5.419 -0.748,-0.327 -4.075,2.079 -4.756,1.659 -1.128,-0.695 2.703,-3.711 1.769,-4.645 -2.212,-2.212 -4.797,-14.514 -3.036,-19.537 2.192,-6.253 6.928,-9.33 7.641,-11.721 l 6.597,0.297 5.388,1.763 c -0.553,-0.111 -5.53,0.221 -1.343,10.065 1.954,3.363 10.959,-2.141 8.422,-3.208 l 3.103,6.358 c 0.331,0.226 2.992,2.12 3.201,5.587 0.177,2.945 -1.542,4.932 -1.88,5.308 L -5.641,-2.433 -9.18,3.429 C -4.724,1.364 -3.65,1.548 0,0"
       style="fill:#8b5d3b;fill-opacity:1;fill-rule:nonzero;stroke:none"
       id="path96" /></g><g
     id="g98"
     transform="matrix(1.4522673,0,0,-1.4522673,106.66114,274.59121)"><path
       d="m 0,0 c -2.323,8.849 -4.61,33.424 -2.876,48.442 3.153,27.291 7.751,28.471 12.609,38.046 1.202,-1.042 6.837,4.982 13.612,3.593 6.738,-1.381 9.059,-4.385 10.498,-3.371 l 2.876,-0.885 1.991,-6.857 c 0,0 10.977,-10.839 10.396,-12.83 C 47.558,62.433 29.876,47.755 29.419,47.779 L 43.134,37.382 42.912,26.986 49.106,21.677 C 45.468,18.762 42.912,11.723 36.94,9.733 16.811,0.664 21.014,9.733 16.369,5.53 -0.708,-9.921 1.991,0.885 0,0"
       style="fill:#fbb03f;fill-opacity:1;fill-rule:nonzero;stroke:none"
       id="path100" /></g><g
     id="g102"
     transform="matrix(1.4522673,0,0,-1.4522673,270.97444,356.34631)"><path
       d="m 0,0 c 14.046,1.327 39.705,4.645 40.147,5.419 1.208,2.113 -5.308,3.761 -13.382,8.848 l 16.369,2.212 14.267,5.088 c -0.003,0.001 -1.209,2.78 -4.314,3.318 -5.751,0.995 -12.075,2.963 -14.377,6.525 -0.727,1.124 -2.707,0.309 -3.65,0.995 -2.102,2.212 -8.509,5.527 -8.516,5.53 L 16.922,35.06 6.083,31.078 7.631,24.442 -5.419,16.922 -8.848,11.613 -8.516,5.088 -6.525,0.995 Z"
       style="fill:#6d6f71;fill-opacity:1;fill-rule:nonzero;stroke:none"
       id="path104" /></g><g
     id="g106"
     transform="matrix(1.4522673,0,0,-1.4522673,108.2672,274.43044)"><path
       d="m 0,0 7.631,-1.327 c 3.567,1.215 4.286,5.089 7.853,6.304 4.337,1.477 11.811,1.177 16.147,2.654 4.271,1.455 7.521,1.991 11.503,8.074 l 4.866,6.304 3.322,0.602 19.461,7.804 c 5.42,1.769 16.484,8.786 26.544,-3.539 5.745,-7.04 12.498,-9.932 12.608,-11.392 l -12.166,-4.977 13.936,-23.668 9.733,-17.696 -9.623,-5.198 -9.843,-8.074 c -2.32,2.13 -6.825,14.642 -10.175,19.687 -5.593,8.422 -4.463,4.748 -10.839,12.829 -4.033,5.112 -6.933,5.652 -10.838,7.189 -2.245,0.884 -4.02,0.486 -5.42,0.664 L 23.005,-21.124 c -4.244,1.533 -10.879,4.18 -16.148,7.631 -2.687,1.76 -4.424,6.193 -5.278,9.18 z"
       style="fill:#005e8a;fill-opacity:1;fill-rule:nonzero;stroke:none"
       id="path108" /></g><g
     id="g110"
     transform="matrix(1.4522673,0,0,-1.4522673,217.16706,285.19203)"><path
       d="m 0,0 2.986,-0.664 9.29,-10.617 9.18,-15.042 -48,-21.013 -7.742,18.138 -4.424,12.166 z"
       style="fill:#bf1e2d;fill-opacity:1;fill-rule:nonzero;stroke:none"
       id="path112" /></g><g
     id="g114"
     transform="matrix(1.4522673,0,0,-1.4522673,250.56907,260.36654)"><path
       d="m 0,0 18.585,8.786 3.761,-7.3 -18.36,-7.299 z"
       style="fill:#1b75bc;fill-opacity:1;fill-rule:nonzero;stroke:none"
       id="path116" /></g><g
     id="g118"
     transform="matrix(1.4522673,0,0,-1.4522673,274.84372,336.89711)"><path
       d="m 0,0 c -2.235,-0.825 -3.378,-3.305 -2.554,-5.54 0.825,-2.235 3.305,-3.378 5.54,-2.553 2.235,0.824 3.378,3.304 2.554,5.539 C 4.715,-0.319 2.235,0.825 0,0"
       style="fill:#ffffff;fill-opacity:1;fill-rule:nonzero;stroke:none"
       id="path120" /></g><text
     transform="rotate(-22.291567)"
     style="font-variant:normal;font-weight:bold;font-stretch:normal;font-size:25.9851px;font-family:MarkerFelt;-inkscape-font-specification:MarkerFelt-Wide;writing-mode:lr-tb;fill:#ffffff;fill-opacity:1;fill-rule:nonzero;stroke:none;stroke-width:1.45227"
     id="text124"
     x="522.05719"
     y="380.37592"><tspan
       x="522.05719 537.7782 551.78418 563.47748 569.97375 581.56317 594.06201 605.75531 616.14935 628.75214"
       y="380.37592"
       id="tspan122"
       style="stroke-width:1.45227">The Teeter</tspan></text><g
     id="g126"
     transform="matrix(1.4522673,0,0,-1.4522673,-85.771247,862.97048)"><g
       id="g128"
       clip-path="url(#clipPath132)"><g
         id="g134"
         transform="translate(211.6253,497.0432)"><path
           d="M 0,0 C 0.177,-0.038 0.354,-0.075 0.531,-0.113 0.696,0.651 0.861,1.415 1.026,2.18 0.834,2.221 0.641,2.263 0.448,2.304 0.299,1.536 0.149,0.768 0,0 M 2.274,7.421 C 2.086,7.503 1.898,7.585 1.71,7.667 1.535,6.866 1.361,6.065 1.186,5.264 1.343,5.228 1.5,5.192 1.657,5.156 1.863,5.911 2.068,6.666 2.274,7.421 M 0.018,-1.816 c -0.159,0.015 -0.318,0.029 -0.477,0.044 -0.364,-1.709 -0.729,-3.418 -1.093,-5.127 0.197,-0.036 0.395,-0.073 0.592,-0.11 0.326,1.731 0.652,3.462 0.978,5.193 m 4.284,-1.793 c -1.1,-1.876 -1.1,-1.876 -0.625,-3.454 1.212,1.267 1.212,1.267 0.625,3.454 m 4.042,-9.696 c 1.61,1.263 1.654,1.597 0.459,3.346 -1.538,-0.94 -1.335,-2.072 -0.459,-3.346 m -1.761,7.086 c -0.557,-0.852 -1.039,-1.59 -1.556,-2.38 0.287,-0.321 0.637,-0.712 0.979,-1.094 2.536,1.425 2.706,2.148 0.577,3.474 m 85.735,-121.398 c -5.257,-1.521 -10.128,-2.908 -14.986,-4.342 -4.904,-1.447 -10.163,-1.319 -14.819,-3.101 1.59,-0.687 3.145,-1.413 4.742,-2.027 0.822,-0.316 1.797,-0.767 2.573,-0.59 6.822,1.554 13.621,3.214 20.412,4.897 1.303,0.323 2.547,0.882 4.111,1.437 -0.739,1.353 -1.333,2.443 -2.033,3.726 m -71.864,45.223 c 1.346,-1.937 2.57,-3.698 3.655,-5.26 5.973,2.281 11.563,4.416 17.257,6.59 -1.118,2.268 -2.083,4.228 -3.065,6.219 -6.247,-1.746 -11.846,-4.626 -17.847,-7.549 M 370.715,66.884 c 0.066,-0.184 0.133,-0.367 0.199,-0.55 h 28.357 c -4.575,5.382 -8.818,10.373 -13.147,15.466 -5.298,-5.09 -9.545,-10.836 -15.409,-14.916 M 75.626,-148.185 c -0.626,3.984 -1.2,4.431 -4.442,3.948 -2.277,-0.339 -4.558,-0.66 -6.841,-0.958 -4.483,-0.585 -8.97,-1.14 -13.453,-1.722 -3.109,-0.404 -6.206,-0.928 -9.325,-1.231 -4.125,-0.399 -8.26,-1.087 -12.407,-0.105 -0.401,0.095 -0.862,-0.066 -1.778,-0.155 0.556,-1.104 0.777,-2.195 1.443,-2.713 0.989,-0.769 2.245,-1.402 3.472,-1.621 4.284,-0.765 8.625,-1.183 12.965,-0.552 6.936,1.007 13.863,2.088 20.78,3.221 3.166,0.519 6.299,1.234 9.586,1.888 M 0.222,-59.292 c 1.454,-0.45 3.049,-0.479 3.883,-1.29 2.164,-2.104 4.124,-4.456 5.928,-6.885 2.901,-3.908 5.622,-7.949 8.39,-11.953 0.587,-0.848 1.204,-1.319 2.303,-0.986 3.308,1.003 6.458,2.346 9.561,4.016 -0.29,0.423 -0.416,0.67 -0.599,0.864 -4.852,5.147 -10.029,9.938 -15.63,14.266 -4.216,3.258 -8.752,4.272 -13.836,1.968 m -83.753,-71.275 c 0.577,0 0.875,-0.075 1.115,0.011 7.272,2.619 14.572,5.163 21.794,7.913 6.28,2.391 12.468,5.023 18.699,7.541 5.966,2.411 11.948,4.781 17.9,7.227 5.338,2.193 10.666,4.415 15.952,6.73 1.522,0.667 2.885,1.699 4.566,2.711 -1.631,1.063 -2.877,1.829 -4.071,2.668 -1.016,0.713 -1.957,0.687 -3.097,0.208 -7.634,-3.207 -15.283,-6.383 -22.952,-9.505 -6.984,-2.843 -14.004,-5.597 -21.003,-8.403 -7.338,-2.941 -14.682,-5.867 -21.997,-8.862 -2.963,-1.213 -5.858,-2.591 -8.783,-3.893 0.675,-1.562 1.257,-2.909 1.877,-4.346 m 124.793,13.006 c 0.761,-1.457 1.37,-2.695 2.05,-3.893 0.31,-0.546 0.73,-1.414 1.157,-1.45 2.722,-0.225 3.882,-3.339 6.697,-3.463 0.684,-0.03 1.389,-1.119 1.956,-1.824 0.571,-0.708 0.983,-1.544 1.486,-2.36 2.241,0.181 4.063,-0.488 5.458,-2.213 0.557,-0.69 1.261,-0.771 2.202,-0.668 8.544,0.933 16.849,2.874 24.963,5.672 1.074,0.371 2.123,0.813 3.686,1.417 -2.161,2.293 -4.833,3.422 -8.886,2.527 -2.085,2.461 -2.085,2.461 -6.279,2.778 -1.131,1.591 -1.963,3.596 -4.253,3.981 -2.126,0.357 -4.358,0.412 -5.223,3.035 -0.162,0.491 -0.96,0.882 -1.546,1.104 -2.682,1.018 -5.426,1.89 -8.333,1.162 -1.781,-0.446 -3.547,-1.009 -5.255,-1.683 -3.241,-1.28 -6.436,-2.677 -9.88,-4.122 m 30.95,-25.117 c 0.059,0.268 0.117,0.537 0.175,0.805 -2.7,0.641 -4.602,2.482 -6.745,3.973 -0.783,0.544 -1.884,0.798 -2.859,0.857 -1.03,0.062 -1.554,0.434 -2.225,1.227 -1.756,2.075 -3.341,4.687 -6.592,3.643 -1.542,2.172 -2.119,4.93 -5.338,4.869 -0.389,-0.007 -0.808,0.685 -1.185,1.08 -2.137,2.24 -5.457,2.836 -8.014,1.155 -3.994,-2.626 -7.971,-5.249 -11.287,-8.816 -2.08,-2.236 -3.178,-4.575 -2.446,-7.469 0.415,-1.642 1.243,-3.283 2.278,-4.621 0.541,-0.7 1.941,-0.714 2.932,-1.094 1.904,-0.729 3.839,-0.366 5.756,-0.177 6.525,0.645 13.051,1.298 19.567,2.03 3.113,0.35 6.208,0.858 9.303,1.347 2.234,0.352 4.454,0.791 6.68,1.191 M 404.808,32.026 c 0.689,0.126 1.156,0.139 1.566,0.298 5.221,2.026 10.435,4.069 15.644,6.124 0.329,0.129 0.599,0.401 0.908,0.588 1.483,0.898 2.962,1.803 4.457,2.68 2.597,1.523 4.738,3.334 5.775,6.384 1.327,3.901 0.389,7.416 -1.073,10.984 -1.18,2.882 -3.28,4.677 -6.245,5.341 -2.058,0.461 -4.181,0.724 -6.288,0.85 -5.936,0.354 -11.14,-1.888 -16.299,-4.628 0.518,-9.543 1.028,-18.923 1.555,-28.621 m -435.48,-58.235 c -0.794,1.495 -1.249,2.724 -2.014,3.713 -1.458,1.884 -2.993,3.73 -4.674,5.415 -3.684,3.693 -7.889,6.668 -12.993,8.031 -2.312,0.617 -4.795,0.86 -6.94,-0.666 -0.875,-0.623 -1.453,-1.651 -2.301,-2.324 -3.067,-2.43 -4.316,-5.704 -4.203,-9.45 0.086,-2.844 0.693,-5.669 0.899,-8.515 0.436,-6.021 2.976,-11.143 6.529,-15.863 0.474,-0.63 1,-1.22 1.505,-1.833 8.098,7.195 15.993,14.208 24.192,21.492 M 90.403,-60.823 c -0.274,0.799 -0.318,1.085 -0.458,1.313 -4.125,6.719 -9.784,11.601 -17.131,14.585 -2.362,0.959 -4.655,2.204 -6.772,3.627 -3.538,2.378 -5.665,7.378 -4.201,11.673 1.049,3.078 2.274,6.014 3.888,8.831 3.435,5.997 0.185,10.555 -5.247,12.336 -3.574,1.171 -7.455,1.343 -11.259,0.624 -4.887,-0.924 -9.859,-1.542 -14.633,-2.873 -4.943,-1.377 -9.692,-3.449 -14.576,-5.236 -0.003,-4.045 -0.002,-7.721 1.178,-11.292 0.629,-1.904 1.247,-3.811 1.875,-5.715 1.617,-4.905 3.017,-9.895 4.907,-14.692 2.801,-7.109 5.885,-14.109 9.003,-21.087 0.691,-1.547 1.031,-3.678 4.09,-3.741 -1.617,-1.042 -1.425,-1.907 -0.826,-2.855 1.029,-1.628 1.994,-3.297 3.098,-5.134 5.229,2.297 10.422,4.665 15.686,6.865 5.168,2.16 10.484,3.977 15.594,6.26 5.154,2.303 10.633,3.861 15.784,6.511 m 317.068,-78.634 c 0,1.604 -0.047,3.07 0.007,4.532 0.399,10.738 -0.378,21.447 -0.749,32.167 -0.256,7.398 -0.441,14.798 -0.63,22.199 -0.17,6.655 -0.259,13.313 -0.469,19.967 -0.12,3.789 -0.489,7.57 -0.606,11.359 -0.163,5.271 -0.183,10.547 -0.286,15.82 -0.145,7.494 -0.164,14.994 -0.51,22.479 -0.298,6.435 -1.119,12.845 -1.443,19.28 -0.213,4.238 0.016,8.501 0.102,12.751 0.079,3.879 0.436,7.762 0.311,11.632 -0.335,10.413 -0.861,20.82 -1.327,31.229 -0.006,0.145 -0.211,0.282 -0.566,0.726 -10.082,0.138 -20.406,0.28 -30.849,0.422 -0.163,-0.949 -0.405,-1.665 -0.384,-2.373 0.06,-2.022 0.317,-4.04 0.334,-6.061 0.052,-6.292 -0.103,-12.589 0.067,-18.877 0.248,-9.191 0.747,-18.376 1.07,-27.566 0.488,-13.868 0.883,-27.739 1.382,-41.606 0.232,-6.445 0.503,-12.893 0.97,-19.324 0.268,-3.678 0.848,-7.314 0.775,-11.039 -0.063,-3.288 0.572,-6.583 0.66,-9.881 0.387,-14.506 0.662,-29.015 1.03,-43.522 0.174,-6.824 0.462,-13.645 0.714,-20.467 0.046,-1.257 0.167,-2.512 0.259,-3.847 z m -433.583,97.795 c -0.301,0.183 -0.663,0.31 -0.894,0.558 -2.006,2.154 -3.976,4.342 -5.985,6.494 -0.879,0.939 -1.814,1.835 -3.323,1.873 -4.183,-3.808 -8.38,-7.627 -12.849,-11.694 2.755,-2.216 5.137,-4.363 7.755,-6.171 2.263,-1.563 4.705,-2.949 7.234,-4.02 1.99,-0.842 4.073,-1.944 6.4,-1.402 3.563,0.831 6.886,2.149 9.291,5.094 2.497,3.057 5.319,5.819 7.381,9.269 2.735,4.576 5.638,9.043 7.641,14.01 0.567,1.407 1.356,2.531 2.844,3.153 4.598,1.922 7.265,6.264 6.885,11.137 -0.047,0.6 -0.137,1.452 -0.529,1.727 -1.671,1.17 -2.16,3.65 -4.57,3.783 0.69,2.422 1.28,4.61 1.946,6.774 C 3.416,-0.1 3.561,0.699 1.992,1.081 1.298,-1.936 0.465,-4.842 0.006,-7.806 c -0.296,-1.91 -1.157,-3.155 -2.838,-4.159 -0.709,0.601 -1.386,1.175 -2.05,1.739 2.89,4.32 3.036,7.579 0.575,11.204 -1.06,-2.152 -2.124,-4.311 -3.388,-6.877 1.164,-2.007 1.046,-4.577 0.312,-7.281 -0.401,-1.476 -0.359,-3.113 -0.285,-4.666 0.064,-1.349 -0.154,-2.512 -0.858,-3.673 -2.619,-4.324 -5.275,-8.63 -7.73,-13.047 -1.986,-3.573 -5.056,-6.063 -8.015,-8.689 -0.368,-0.326 -0.957,-0.402 -1.646,-0.673 -0.114,0.927 -0.201,1.642 -0.285,2.355 1.077,-0.426 2.089,-0.519 3.003,0.407 1.423,1.442 3.211,2.643 4.26,4.313 3.419,5.442 6.573,11.051 9.828,16.595 0.568,0.967 0.333,1.761 -0.698,2.538 -0.589,-0.641 -1.252,-1.258 -1.793,-1.969 -3.563,-4.684 -7.091,-9.395 -10.655,-14.079 -0.815,-1.072 -1.538,-2.353 -3.263,-2.179 -2.004,2.507 -4.01,5.016 -7.205,6.672 -0.598,-0.621 -1.215,-1.261 -1.878,-1.95 0.485,-0.588 0.811,-1.029 1.184,-1.426 2.144,-2.278 4.34,-4.509 6.419,-6.843 0.49,-0.55 0.602,-1.436 0.888,-2.168 m 184.051,-26.597 c -0.372,-0.368 -0.678,-0.886 -1.125,-1.081 -5.994,-2.606 -11.983,-5.225 -18.022,-7.723 -6.114,-2.529 -12.297,-4.892 -18.424,-7.39 -8.099,-3.302 -16.174,-6.667 -24.26,-10.003 -4.502,-1.857 -9.029,-3.659 -13.504,-5.579 -5.148,-2.208 -10.254,-4.514 -15.373,-6.789 -2.006,-0.891 -3.999,-1.814 -6.478,-2.94 1.337,-0.579 2.368,-0.883 3.241,-1.436 1.447,-0.915 2.787,-1.999 4.183,-2.996 0.487,-0.348 1.012,-0.936 1.51,-0.926 3.093,0.06 4.958,-1.661 6.393,-4.113 0.135,-0.231 0.334,-0.425 0.581,-0.734 2.09,0.467 3.931,0.134 5.358,-1.745 0.326,-0.429 1.318,-0.532 1.985,-0.491 3.174,0.196 5.648,-0.943 7.839,-3.27 1.208,-1.282 2.401,-2.483 3.053,-4.125 0.855,-2.152 0.151,-3.24 -2.066,-3.75 -3.042,-0.699 -6.029,-1.636 -9.063,-2.374 -3.761,-0.915 -7.55,-1.72 -11.321,-2.599 -0.712,-0.166 -1.395,-0.458 -2.347,-0.777 1.821,-1.22 3.912,-1.781 4.912,-3.783 0.942,-1.885 2.026,-3.691 1.969,-6.047 -0.497,-0.18 -0.979,-0.44 -1.491,-0.527 -9.653,-1.63 -19.315,-3.213 -28.965,-4.864 -4.99,-0.854 -9.902,-0.686 -14.866,0.362 -4.244,0.897 -5.227,2.949 -5.57,6.369 -0.061,0.616 -0.038,1.336 -0.35,1.815 -1.712,2.628 -1.903,5.532 -1.757,8.524 0.027,0.552 -0.02,1.108 -0.033,1.663 0.859,0.678 1.778,1.291 2.567,2.041 2.861,2.721 5.485,5.68 9.106,7.534 2.158,1.104 4.1,2.629 6.13,3.958 -0.244,0.686 -0.347,1.147 -0.56,1.55 -3.873,7.343 -7.588,14.777 -11.703,21.983 -2.872,5.028 -6.305,9.734 -9.47,14.595 -1.345,2.064 -2.558,4.219 -3.987,6.221 -2.4,3.36 -4.937,6.621 -7.388,9.944 -0.865,1.172 -1.531,2.509 -2.493,3.588 -1.832,2.056 -4.025,3.284 -6.988,3.173 -5.237,-0.198 -9.779,-2.594 -14.493,-4.36 -4.373,-1.639 -8.555,-3.796 -12.791,-5.79 -0.968,-0.455 -1.956,-1.037 -2.685,-1.8 -1.953,-2.044 -3.763,-4.223 -5.643,-6.337 -1.377,-1.549 -3.144,-2.515 -5.032,-3.291 -1.363,-0.561 -2.969,-0.837 -4.041,-1.743 -3.111,-2.629 -6.618,-2.408 -10.246,-1.983 -0.81,0.095 -1.649,0.088 -2.461,0.001 -3.857,-0.41 -6.916,-2.131 -9.268,-5.302 -1.821,-2.456 -4.422,-3.195 -7.418,-2.422 -0.673,0.174 -1.367,0.267 -2.404,0.465 0.877,-3.726 2.463,-6.673 5.056,-8.953 4.409,-3.877 9.495,-6.658 15.1,-8.388 1.738,-0.536 3.606,-0.686 5.447,0.067 7.942,3.247 15.926,6.395 23.857,9.669 5.523,2.28 11.012,4.646 16.46,7.098 1.792,0.806 3.38,0.335 4.726,-0.545 6.281,-4.104 11.792,-9.088 16.186,-15.199 5.386,-7.492 9.749,-15.606 14.114,-23.711 0.328,-0.608 0.276,-1.421 0.4,-2.138 -1.434,0.009 -1.664,1.162 -2.141,2.156 -1.144,2.386 -2.367,4.734 -3.607,7.194 -3.322,-1.432 -6.396,-2.811 -9.517,-4.072 -0.986,-0.398 -2.099,-0.479 -3.154,-0.706 l 0.053,-0.057 c 2.589,1.289 5.195,2.548 7.761,3.881 1.289,0.67 2.507,1.476 4.012,2.372 -1.083,2.013 -1.939,3.92 -3.071,5.645 -2.666,4.063 -5.293,8.173 -8.27,12.004 -1.898,2.442 -4.325,4.496 -6.646,6.577 -1.406,1.26 -2.491,1.082 -4.072,0.26 -3.005,-1.563 -6.025,-3.116 -9.133,-4.452 -5.672,-2.438 -11.405,-4.732 -17.127,-7.05 -2.643,-1.07 -5.312,-2.078 -7.986,-3.07 -1.709,-0.634 -2.033,-0.88 -1.554,-2.576 0.776,-2.746 1.68,-5.468 2.727,-8.123 1.993,-5.055 4.125,-10.056 6.2,-15.08 0.627,-1.517 1.315,-3.014 1.837,-4.566 0.112,-0.332 -0.371,-0.864 -0.857,-1.883 -4.072,10.47 -7.926,20.379 -11.897,30.588 -14.037,-4.927 -27.571,-11.552 -41.886,-16.147 -0.879,2.015 -1.708,3.936 -2.554,5.851 -0.512,1.159 -0.13,1.969 0.964,2.474 1.503,0.693 2.998,1.409 4.537,2.012 7.799,3.06 15.612,6.083 23.413,9.137 0.318,0.124 0.562,0.436 0.919,0.724 -5.781,2.023 -11.125,4.516 -15.613,8.606 -2.142,1.951 -3.803,4.093 -4.85,6.87 -0.577,1.531 -0.89,3.421 -2.521,4.459 -0.167,0.107 -0.312,0.543 -0.229,0.705 0.79,1.54 -0.304,2.847 -0.497,4.255 -1.646,11.981 -3.335,23.962 -3.012,36.1 0.113,4.246 0.085,8.559 0.846,12.708 1.006,5.487 2.695,10.85 4.15,16.25 0.791,2.936 1.548,5.902 3.25,8.493 2.364,3.601 4.151,7.654 7.891,10.182 0.937,0.634 1.874,1.398 3.453,1.032 -0.368,-0.531 -0.498,-0.944 -0.763,-1.069 -4.275,-1.999 -6.436,-5.839 -8.643,-9.692 -3.31,-5.777 -4.997,-12.076 -6.274,-18.532 -0.375,-1.896 -0.851,-3.777 -1.388,-5.634 -1.276,-4.414 -1.142,-8.953 -1.304,-13.468 -0.322,-8.995 0.757,-17.901 1.839,-26.795 0.445,-3.654 1.305,-7.257 1.972,-10.885 0.148,-0.807 0.275,-1.618 0.418,-2.466 3.318,-2.387 6.974,-1.953 9.736,1.022 4.051,4.363 8.804,6.841 15.027,5.496 1.287,-0.278 2.849,-0.131 4.08,0.346 3.233,1.253 6.638,2.388 9.44,4.337 2.815,1.957 5.033,4.794 7.401,7.349 0.583,0.63 0.731,1.662 1.151,2.687 -4.681,1.352 -5.506,5.026 -5.673,9.063 -0.07,1.663 -0.044,3.331 -0.032,4.997 0.006,0.859 0.006,1.678 -0.927,2.122 -4.468,2.124 -8.053,5.424 -11.782,9.022 -1.735,-1.552 -3.415,-3.055 -5.217,-4.666 -2.581,3.646 -5.268,6.924 -6.887,10.874 -0.624,1.523 -1.248,3.102 -1.495,4.713 -0.628,4.096 -1.696,8.117 -1.591,12.34 0.135,5.421 2.55,9.545 6.704,12.706 1.899,1.444 4.266,1.615 6.65,1.297 3.564,-0.475 6.69,-1.99 9.677,-3.878 0.271,-0.172 0.557,-0.322 1.284,-0.157 -0.777,1.507 -1.489,3.053 -2.365,4.5 -0.301,0.498 -0.96,0.891 -1.54,1.094 -3.726,1.306 -7.445,2.65 -11.234,3.75 -1.272,0.369 -2.743,0.112 -4.119,0.048 -1.061,-0.049 -2.115,-0.246 -3.184,-0.141 3.114,0.989 6.012,2.088 9.453,0.216 2.758,-1.501 6.13,-1.929 9.271,-2.657 2.316,-0.537 4.689,-1.027 7.053,-1.119 4.941,-0.191 9.57,3.303 10.299,9.225 0.078,0.629 0.174,1.256 0.259,1.868 2.437,-0.013 2.783,0.319 3.531,2.505 0.531,1.554 1.244,3.05 1.942,4.541 0.738,1.574 0.597,2.005 -1.048,2.665 -2.498,1.002 -2.818,1.666 -2.456,4.407 0.288,2.175 0.43,4.37 0.641,6.611 -4.248,1.336 -8.216,2.585 -12.185,3.834 -0.111,-0.139 -0.222,-0.277 -0.334,-0.415 1.099,-1.377 2.197,-2.753 3.403,-4.264 -2.153,-1.15 -3.883,0.803 -6.198,0.724 1.774,-2.003 2.055,-4.067 1.769,-6.197 -0.215,-1.597 -0.796,-3.043 -2.765,-3.206 l 0.055,-0.054 c 2.075,3.446 1.973,6.74 -0.677,9.864 -0.034,0.04 0.042,0.173 0.162,0.606 1.745,-0.336 3.537,-0.682 5.329,-1.028 0.109,0.136 0.218,0.271 0.327,0.406 -1.373,1.71 -2.747,3.419 -4.511,5.614 1.166,-0.112 1.823,0.005 2.269,-0.248 3.146,-1.789 6.54,-2.906 10.028,-3.741 1.311,-0.313 2.688,-0.352 4.279,-0.546 -0.978,3.325 -3.329,5.001 -5.688,6.549 -5.558,3.648 -11.8,5.229 -18.376,5.26 -3.124,0.015 -6.28,-0.52 -9.087,-2.115 -1.06,-0.602 -2.001,-1.412 -3.287,-1.878 0.256,0.375 0.463,0.798 0.775,1.118 1.878,1.925 4.251,2.903 6.836,3.385 6.832,1.273 13.404,0.087 19.689,-2.553 3.033,-1.274 5.932,-3.06 8.097,-5.619 1.21,-1.43 1.941,-3.264 2.989,-5.092 -0.861,-0.364 -1.329,-0.562 -2.004,-0.848 v -8.897 c 1.786,-0.59 3.733,-1.119 4.163,-3.698 -1.739,-1.811 -2.994,-4.058 -3.388,-6.823 -0.26,-1.831 -0.823,-2.024 -3.301,-2.225 -0.246,-3.739 -1.763,-6.644 -4.974,-8.994 -3.151,-2.306 -6.509,-1.959 -10.272,-1.842 0.609,-1.434 1.433,-2.514 1.467,-3.619 0.099,-3.158 2.483,-4.677 4.245,-6.694 1.511,-1.73 2.941,-3.543 4.266,-5.418 0.677,-0.958 1.177,-1.937 2.857,-1.289 -0.015,-0.206 -0.03,-0.411 -0.045,-0.617 -0.992,-1.095 -1.983,-2.19 -2.999,-3.311 2.203,-2.03 4.274,-3.939 6.448,-5.944 2.451,1.558 3.974,3.993 5.777,6.123 1.301,1.537 2.26,3.357 3.459,4.986 1.681,2.282 3.397,4.541 5.182,6.743 2.462,3.037 2.637,6.348 1.383,9.878 -0.12,0.336 -0.326,0.641 -0.51,0.994 0.343,0.504 0.552,1.113 0.977,1.384 1.644,1.051 2.24,2.647 2.446,4.435 0.109,0.944 0.066,1.953 1.178,2.259 1.194,0.329 1.898,-0.39 2.381,-1.408 0.193,-0.405 0.467,-0.772 0.807,-1.323 1.647,1.902 1.505,4.211 2.01,6.279 0.519,2.125 0.82,4.303 1.246,6.617 1.074,-0.37 2.006,-0.691 3.295,-1.135 C 3.905,8.708 3.086,5.741 2.28,2.82 5.243,1.271 5.243,1.271 4.55,-1.516 5.232,-2.465 5.815,-3.343 6.473,-4.16 c 0.298,-0.371 0.7,-0.742 1.133,-0.905 1.295,-0.49 2.381,-1.009 2.085,-2.748 -0.064,-0.378 0.415,-0.89 0.72,-1.282 1.574,-2.026 1.308,-4.296 -0.915,-5.635 -1.364,-0.822 -1.984,-1.839 -2.508,-3.334 -1.179,-3.369 -3.134,-6.215 -6.741,-7.576 -1.09,-0.411 -2.018,-1.204 -2.468,-2.455 -1.671,-4.637 -4.416,-8.713 -7.102,-12.772 -2.384,-3.604 -5.208,-6.918 -7.847,-10.352 -2.088,-2.716 -4.827,-4.353 -8.11,-5.375 -2.677,-0.834 -5.167,-1.122 -7.749,0.144 -0.72,0.353 -1.568,0.446 -2.405,0.671 -0.975,-1.287 -1.075,-2.719 -0.825,-4.033 0.377,-1.983 1.081,-3.904 1.65,-5.85 0.463,-1.586 1.493,-2.427 3.151,-2.716 0.898,-0.157 1.725,-0.723 2.878,-1.234 4.884,3.41 10.976,5.195 16.845,7.524 5.225,2.072 10.454,4.08 16.007,4.964 2.816,0.449 5.58,0.091 8.209,-1.518 3.825,-2.34 6.87,-5.538 10.177,-8.454 3.177,-2.801 6.329,-5.63 9.531,-8.481 1.78,0.768 3.434,1.481 5.265,2.27 -1.367,3.03 -2.643,5.855 -3.914,8.681 -2.079,4.625 -4.32,9.185 -6.184,13.895 -1.656,4.187 -2.889,8.541 -4.314,12.82 -1.074,3.223 -2.097,6.465 -3.251,9.66 -1.057,2.925 -1.186,5.955 -1.377,9.004 -0.255,4.08 -0.292,4.024 3.534,5.384 3.808,1.354 7.538,2.932 11.371,4.206 1.976,0.656 4.095,0.894 6.16,1.27 3.709,0.674 7.405,1.497 11.145,1.914 4.498,0.502 9.013,0.752 13.191,-1.763 4.554,-2.741 5.319,-6.567 4.253,-10.642 -0.436,-1.667 -1.324,-3.231 -2.113,-4.788 -1.689,-3.331 -3.071,-6.681 -2.604,-10.579 0.202,-1.684 0.747,-3.124 1.985,-4.128 1.776,-1.441 3.661,-2.787 5.643,-3.924 1.983,-1.137 4.156,-1.937 6.22,-2.937 4.657,-2.258 8.525,-5.461 11.535,-9.69 1.171,-1.646 2.407,-3.246 3.754,-5.057 0.586,0.178 1.288,0.33 1.942,0.598 6.13,2.51 12.233,5.086 18.381,7.549 4.627,1.853 9.331,3.514 13.96,5.36 5.56,2.216 11.073,4.546 16.615,6.807 1.455,0.594 2.953,1.085 4.412,1.672 8.89,3.576 17.763,7.198 26.666,10.743 6.75,2.688 13.556,5.234 20.301,7.934 8.717,3.491 17.395,7.081 26.096,10.612 9.044,3.67 18.086,7.344 27.146,10.974 7.506,3.008 15.05,5.921 22.551,8.941 6.471,2.605 12.885,5.352 19.362,7.942 6.409,2.563 12.868,4.999 19.299,7.506 5.834,2.274 11.659,4.569 17.488,6.855 7.025,2.755 14.06,5.485 21.07,8.277 3.15,1.254 6.218,2.715 9.383,3.927 3.577,1.369 6.753,3.634 10.509,4.593 1.014,0.259 1.464,0.97 1.402,2.081 -0.166,2.951 -0.253,5.906 -0.383,8.858 -0.017,0.366 -0.236,0.767 -0.14,1.085 0.411,1.366 0.226,2.48 -1.007,2.865 6.22,6.091 12.303,12.049 18.64,18.255 0.88,-0.883 1.951,-1.849 2.896,-2.925 4.368,-4.973 8.728,-9.955 13.02,-14.993 0.726,-0.852 1.109,-1.997 1.64,-2.988 2.318,0.855 4.807,1.785 7.303,2.692 5.528,2.011 11.036,1.527 16.61,0.073 2.191,-0.571 3.585,-1.936 4.659,-3.64 1.785,-2.834 2.967,-5.955 3.077,-9.351 0.171,-5.324 -2.415,-9.621 -7.475,-11.794 -3.629,-1.558 -7.14,-3.388 -10.75,-4.992 -3.866,-1.717 -7.788,-3.309 -11.682,-4.965 -0.245,-0.104 -0.455,-0.295 -1.067,-0.704 0,-5.394 -0.149,-11.025 0.033,-16.644 0.302,-9.338 0.912,-18.665 1.214,-28.003 0.305,-9.438 0.32,-18.884 0.602,-28.323 0.179,-6.01 0.738,-12.009 0.905,-18.02 0.305,-11.004 0.313,-22.018 0.697,-33.019 0.303,-8.675 1.105,-17.332 1.455,-26.007 0.231,-5.731 0.223,-11.486 0.008,-17.218 -0.181,-4.811 -0.575,-3.873 -4.032,-3.861 -8.703,0.03 -17.407,0.207 -26.11,0.32 -1.103,0.015 -2.207,0.002 -3.511,0.002 -0.113,0.514 -0.339,1.111 -0.363,1.715 -0.226,5.82 -0.465,11.64 -0.608,17.462 -0.144,5.911 -0.124,11.825 -0.282,17.735 -0.342,12.768 -0.638,25.54 -1.18,38.3 -0.294,6.919 -0.784,13.854 -1.68,20.717 -1.013,7.764 -0.459,15.502 -0.512,23.259 -0.06,8.597 -0.445,17.194 -0.797,25.786 -0.162,3.946 -0.584,7.882 -0.919,12.234 -1.53,-0.658 -2.818,-1.231 -4.121,-1.771 -6.644,-2.752 -13.269,-5.554 -19.947,-8.222 -4.519,-1.806 -9.132,-3.375 -13.672,-5.131 -4.447,-1.721 -8.854,-3.546 -13.28,-5.322 -4.945,-1.984 -9.884,-3.98 -14.837,-5.943 -5.815,-2.305 -11.66,-4.533 -17.458,-6.879 -6.986,-2.827 -13.937,-5.739 -20.9,-8.622 -7.212,-2.984 -14.404,-6.015 -21.642,-8.934 -1.335,-0.538 -2.845,-0.644 -4.274,-0.949 0,0 0.046,-0.075 0.046,-0.075 1.466,0.743 2.889,1.592 4.406,2.212 8.771,3.587 17.574,7.095 26.346,10.678 10.153,4.147 20.285,8.344 30.425,12.52 4.345,1.79 8.664,3.642 13.036,5.363 7.892,3.106 15.831,6.093 23.717,9.214 3.499,1.385 6.802,3.384 10.395,4.382 6.445,1.788 12.242,5.084 18.477,7.333 2.117,0.763 3.784,2.253 3.268,5.023 -0.2,1.077 -0.064,2.217 -0.084,3.328 -0.084,4.622 -0.195,9.245 -0.247,13.868 -0.04,3.584 -0.008,7.169 -0.008,11.22 -1.358,-0.637 -2.231,-1.088 -3.135,-1.464 -6.705,-2.793 -13.405,-5.6 -20.129,-8.346 -5.625,-2.296 -11.267,-4.554 -16.928,-6.76 -6.7,-2.611 -13.453,-5.084 -20.136,-7.734 -6.843,-2.714 -13.621,-5.592 -20.443,-8.358 -5.545,-2.249 -11.114,-4.436 -16.671,-6.654 -5.383,-2.147 -10.76,-4.311 -16.148,-6.445 -7.628,-3.021 -15.282,-5.979 -22.891,-9.046 -6.394,-2.578 -12.72,-5.326 -19.113,-7.905 -9.4,-3.793 -18.833,-7.508 -28.255,-11.248 -11.383,-4.518 -22.774,-9.016 -34.154,-13.545 -8.474,-3.372 -16.945,-6.755 -25.4,-10.176 -7.34,-2.97 -14.639,-6.04 -21.985,-8.994 -9.395,-3.778 -18.859,-7.388 -28.216,-11.258 -5.265,-2.178 -10.683,-3.994 -15.66,-6.906 -2.758,-1.613 -5.929,-2.527 -8.929,-3.718 -7.68,-3.048 -15.371,-6.07 -23.051,-9.116 -0.813,-0.322 -1.588,-0.738 -2.273,-1.06 5.182,-9.18 10.232,-18.129 15.161,-26.862 1.588,0.487 2.916,0.798 4.17,1.296 5.392,2.14 10.796,4.257 16.132,6.532 5.163,2.202 10.194,4.715 15.377,6.866 10.397,4.314 20.867,8.453 31.29,12.707 7.326,2.99 14.611,6.08 21.936,9.073 6.737,2.754 13.494,5.461 20.261,8.141 2.725,1.08 5.501,2.032 8.255,3.042 z"
           style="fill:#231f20;fill-opacity:1;fill-rule:nonzero;stroke:none"
           id="path136" /></g><g
         id="g138"
         transform="translate(150.7441,496.1108)"><path
           d="m 0,0 c -2.618,0.482 -4.717,1.922 -6.218,4.066 -1.367,1.955 -2.679,4.028 -3.538,6.234 -0.755,1.941 -1.179,4.14 -1.162,6.221 0.028,3.488 0.503,6.973 0.84,10.455 0.051,0.527 0.347,1.041 0.58,1.538 1.263,2.693 2.086,5.38 -0.094,7.879 0.693,1.261 1.479,1.294 2.438,0.75 0.787,-0.446 1.607,-0.834 2.581,-1.335 0.589,1.93 1.132,3.712 1.675,5.493 0.189,0.029 0.378,0.057 0.567,0.086 0.754,-1.455 1.507,-2.909 2.261,-4.363 -0.158,-0.121 -0.317,-0.241 -0.475,-0.361 -0.573,0.672 -1.146,1.345 -1.98,2.324 -0.2,-1.236 -0.322,-2.21 -0.521,-3.168 -0.291,-1.399 -0.83,-1.638 -2.1,-0.947 -0.773,0.421 -1.517,0.895 -2.754,1.631 0.22,-1.016 0.237,-1.458 0.409,-1.828 0.718,-1.543 0.515,-2.999 -0.135,-4.527 -1.603,-3.769 -2.54,-7.674 -2.506,-11.822 C -10.089,13.09 -7.979,8.688 -4.901,4.662 -3.896,3.348 -2.647,2.261 -0.891,1.87 -0.345,1.749 0.074,1.053 0.551,0.62 0.367,0.413 0.184,0.207 0,0"
           style="fill:#231f20;fill-opacity:1;fill-rule:nonzero;stroke:none"
           id="path140" /></g><g
         id="g142"
         transform="translate(217.2325,365.9526)"><path
           d="m 0,0 c -0.719,-1.519 -2.361,-1.556 -3.615,-2.115 -4.43,-1.976 -8.923,-3.813 -13.416,-5.646 -5.441,-2.22 -10.904,-4.387 -16.366,-6.556 -0.214,-0.085 -0.513,0.045 -0.897,0.09 0.087,1.156 0.812,1.537 1.707,1.88 7.367,2.83 14.711,5.721 22.087,8.528 3.49,1.328 7.034,2.512 10.553,3.762 C 0.053,-0.057 0,0 0,0"
           style="fill:#231f20;fill-opacity:1;fill-rule:nonzero;stroke:none"
           id="path144" /></g><g
         id="g146"
         transform="translate(171.0661,513.2515)"><path
           d="m 0,0 c -0.76,-2.777 -1.52,-5.554 -2.261,-8.263 -1.589,-0.102 -1.88,0.981 -2.523,1.727 -0.817,0.948 -1.717,2.032 -2.817,2.484 -2.316,0.952 -3.811,0.127 -5.111,-2.34 -1.912,-3.632 -0.557,-7.156 3.21,-8.347 -1.26,-0.84 -2.927,-0.493 -3.769,0.887 -2.139,3.579 -1.236,7.487 1.399,10.378 1.215,1.286 3.865,1.396 5.396,0.268 1.222,-0.901 2.277,-2.028 3.389,-3.039 0.612,1.715 1.217,3.558 1.951,5.348 0.156,0.38 0.782,0.567 1.192,0.843 C 0.056,-0.054 0,0 0,0"
           style="fill:#231f20;fill-opacity:1;fill-rule:nonzero;stroke:none"
           id="path148" /></g><g
         id="g150"
         transform="translate(450.8259,461.571)"><path
           d="m 0,0 c -0.723,-0.501 -1.383,-1.156 -2.178,-1.479 -5.181,-2.102 -10.406,-4.093 -15.584,-6.201 -2.876,-1.172 -5.662,-2.567 -8.543,-3.724 -1.164,-0.468 -2.475,-0.571 -3.719,-0.841 l 0.042,-0.059 c 0.715,0.499 1.367,1.152 2.155,1.475 6.859,2.806 13.73,5.589 20.628,8.3 2.37,0.932 4.828,1.642 7.245,2.454 C 0.046,-0.075 0,0 0,0"
           style="fill:#231f20;fill-opacity:1;fill-rule:nonzero;stroke:none"
           id="path152" /></g><g
         id="g154"
         transform="translate(420.8015,449.3263)"><path
           d="m 0,0 c -0.361,-0.366 -0.657,-0.883 -1.095,-1.071 -1.916,-0.82 -3.882,-1.523 -5.813,-2.31 -3.688,-1.504 -7.352,-3.072 -11.058,-4.532 -0.804,-0.317 -1.745,-0.288 -2.623,-0.419 l 0.046,-0.065 c 0.586,0.405 1.128,0.909 1.767,1.198 5.318,2.407 10.983,3.989 16.14,6.8 0.736,0.401 1.778,0.24 2.679,0.339 C 0.043,-0.06 0,0 0,0"
           style="fill:#231f20;fill-opacity:1;fill-rule:nonzero;stroke:none"
           id="path156" /></g><g
         id="g158"
         transform="translate(387.3739,436.0183)"><path
           d="m 0,0 c -0.04,-1.646 -1.54,-1.664 -2.524,-2.096 -2.942,-1.289 -5.914,-2.53 -8.948,-3.577 -2.048,-0.707 -4.221,-1.053 -6.337,-1.561 0,0 0.103,-0.085 0.103,-0.085 0.54,0.337 1.047,0.754 1.626,0.998 2.789,1.177 5.58,2.353 8.404,3.44 2.567,0.989 5.178,1.864 7.77,2.789 z"
           style="fill:#231f20;fill-opacity:1;fill-rule:nonzero;stroke:none"
           id="path160" /></g><g
         id="g162"
         transform="translate(400.212,440.9948)"><path
           d="m 0,0 c -0.133,-0.226 -0.214,-0.578 -0.407,-0.657 -2.754,-1.134 -5.501,-2.292 -8.298,-3.31 -1.324,-0.483 -2.752,-0.682 -4.133,-1.009 0,0 0.094,-0.092 0.094,-0.092 2.964,1.326 5.905,2.711 8.904,3.952 1.23,0.509 2.587,0.71 3.886,1.051 C 0.046,-0.065 0,0 0,0"
           style="fill:#231f20;fill-opacity:1;fill-rule:nonzero;stroke:none"
           id="path164" /></g><g
         id="g166"
         transform="translate(183.093,514.4146)"><path
           d="m 0,0 c -0.498,0.133 -0.996,0.266 -1.495,0.399 0.032,0.195 0.064,0.389 0.095,0.583 L 0.153,0.798 C 0.102,0.532 0.051,0.266 0,0"
           style="fill:#231f20;fill-opacity:1;fill-rule:nonzero;stroke:none"
           id="path168" /></g><g
         id="g170"
         transform="translate(211.6433,495.2271)"><path
           d="m 0,0 c -0.326,-1.731 -0.652,-3.462 -0.978,-5.193 -0.197,0.037 -0.395,0.074 -0.592,0.11 0.364,1.709 0.729,3.418 1.093,5.127 C -0.318,0.029 -0.159,0.015 0,0"
           style="fill:#ffffff;fill-opacity:1;fill-rule:nonzero;stroke:none"
           id="path172" /></g><g
         id="g174"
         transform="translate(213.8997,504.4641)"><path
           d="m 0,0 c -0.206,-0.755 -0.412,-1.51 -0.618,-2.265 -0.157,0.036 -0.314,0.072 -0.471,0.108 0.175,0.801 0.35,1.602 0.525,2.403 C -0.376,0.164 -0.188,0.082 0,0"
           style="fill:#ffffff;fill-opacity:1;fill-rule:nonzero;stroke:none"
           id="path176" /></g><g
         id="g178"
         transform="translate(211.6253,497.0432)"><path
           d="M 0,0 C 0.149,0.768 0.299,1.536 0.448,2.304 0.641,2.263 0.834,2.221 1.026,2.18 0.861,1.415 0.696,0.651 0.531,-0.113 0.354,-0.075 0.177,-0.038 0,0"
           style="fill:#ffffff;fill-opacity:1;fill-rule:nonzero;stroke:none"
           id="path180" /></g><g
         id="g182"
         transform="translate(248.1416,468.8141)"><path
           d="M 0,0 C -0.04,-2.541 2.084,-5.317 4.166,-5.445 5.997,-5.557 9.291,-2.958 9.42,-1.299 9.582,0.768 6.489,3.877 4.197,3.953 2.306,4.015 0.029,1.87 0,0 m 4.24,-6.821 c -0.844,0.448 -2.333,0.815 -3.129,1.763 -1.08,1.285 -1.88,2.944 -2.35,4.572 C -2.044,2.303 2.049,6.376 5.679,5.025 7.715,4.267 9.367,2.975 10.399,1.049 11.181,-0.41 11.225,-1.85 10.163,-3.34 8.792,-5.263 6.995,-6.322 4.24,-6.821"
           style="fill:#231f20;fill-opacity:1;fill-rule:nonzero;stroke:none"
           id="path184" /></g><g
         id="g186"
         transform="translate(183.6558,514.8016)"><path
           d="m 0,0 c 0,-0.58 -0.47,-1.051 -1.051,-1.051 -0.58,0 -1.05,0.471 -1.05,1.051 0,0.58 0.47,1.051 1.05,1.051 C -0.47,1.051 0,0.58 0,0"
           style="fill:#231f20;fill-opacity:1;fill-rule:nonzero;stroke:none"
           id="path188" /></g><g
         id="g190"
         transform="translate(213.4631,507.2281)"><path
           d="m 0,0 -4.535,-19.244 1.991,0.774 3.982,18.028 z"
           style="fill:#231f20;fill-opacity:1;fill-rule:nonzero;stroke:none"
           id="path192" /></g><g
         id="g194"
         transform="translate(248.602,428.3146)"><path
           d="M 0,0 3.792,-7.575 8.99,-5.695 6.004,2.711 Z"
           style="fill:#f9ed32;fill-opacity:1;fill-rule:nonzero;stroke:none"
           id="path196" /></g><g
         id="g198"
         transform="translate(305.9791,358.0302)"><path
           d="m 0,0 -22.645,0.415 -1.609,-0.502 c 0.454,-0.11 3.517,-1.904 4.911,-3.783 1.624,-2.189 2.069,-4.51 1.924,-5.088 l 17.751,0.165 z"
           style="fill:#006838;fill-opacity:1;fill-rule:nonzero;stroke:none"
           id="path200" /></g><g
         id="g202"
         transform="translate(235.3064,358.0302)"><path
           d="M 0,0 C 0.052,-0.964 0.216,-2.229 0.664,-3.65 1.07,-4.938 1.593,-5.981 2.057,-6.762 l 0.431,-2.362 -72.331,-1.493 -0.166,8.792 13.106,0.166 2.488,-5.475 16.59,6.139 z"
           style="fill:#006838;fill-opacity:1;fill-rule:nonzero;stroke:none"
           id="path204" /></g></g></g></svg>
